<svg xmlns="http://www.w3.org/2000/svg" xmlns:xlink="http://www.w3.org/1999/xlink" viewBox="0 0 1024 1024"><defs><style>.cls-1{fill:#a8dadc;}.cls-2{fill:url(#linear-gradient);}.cls-3{fill:#e5e5e5;}</style><linearGradient id="linear-gradient" x1="493.24" y1="539.01" x2="873.98" y2="838.39" gradientUnits="userSpaceOnUse"><stop offset="0" stop-color="#9ac7c9"/><stop offset="0.15" stop-color="#9cc9cb" stop-opacity="0.88"/><stop offset="0.47" stop-color="#a0cfd1" stop-opacity="0.57"/><stop offset="0.94" stop-color="#a7d9db" stop-opacity="0.07"/><stop offset="1" stop-color="#a8dadc" stop-opacity="0"/></linearGradient></defs><g id="Working_2" data-name="Working 2"><path class="cls-1" d="M1024,512a513.09,513.09,0,0,1-11.78,109.66c-41.05,188.15-185.56,337.65-370.93,385.87a509.68,509.68,0,0,1-102.5,15.78q-13.31.69-26.79.69-13.17,0-26.16-.65C215.23,1009.73,0,786,0,512,0,229.23,229.23,0,512,0S1024,229.23,1024,512Z"/><path class="cls-2" d="M1012.22,621.66c-41.05,188.15-185.56,337.65-370.93,385.87L359.59,751l35.49-70,18.76-37h30.57a13.29,13.29,0,0,0,0-26.58H427.32L448.88,575a13.27,13.27,0,0,0,8.81-12.51,12.8,12.8,0,0,0-.55-3.78L602.2,272.58l8.45,7.19Z"/><path class="cls-3" d="M731,517v77c0,120.76-98.24,219-219,219s-219-98.24-219-219V517h.42a24.19,24.19,0,0,1,48.38,0v77c0,93.85,76.36,170.2,170.18,170.2s170.2-76.35,170.2-170.2V517a24.2,24.2,0,0,1,48.39,0Z"/><path class="cls-3" d="M538.79,796.27v227q-13.31.69-26.79.69-13.17,0-26.16-.65V796.27Z"/><path class="cls-3" d="M565.16,425.79a13.3,13.3,0,0,0,13.29,13.29h79.34v41.74H578.45a13.29,13.29,0,0,0,0,26.58h79.34v41.74H578.45a13.29,13.29,0,1,0,0,26.58h79.34v18.22a148.33,148.33,0,0,1-1.91,23.53H578.45a13.29,13.29,0,1,0,0,26.58H649a145.88,145.88,0,0,1-273.9,0h69.36a13.29,13.29,0,0,0,0-26.58H368.14a146,146,0,0,1-1.93-23.53V575.72h78.2a13.26,13.26,0,0,0,13.28-13.28,12.8,12.8,0,0,0-.55-3.78,13.29,13.29,0,0,0-12.73-9.52h-78.2V507.4h78.2a13.29,13.29,0,0,0,0-26.58h-78.2V439.08h78.2a13.3,13.3,0,0,0,0-26.59h-78.2V387.11a147.1,147.1,0,0,1,1-16.35h77.25a13.29,13.29,0,0,0,0-26.58H372.65a145.79,145.79,0,0,1,229.55-71.6c2.92,2.28,5.73,4.69,8.45,7.19a145.92,145.92,0,0,1,40.71,64.41H578.45a13.29,13.29,0,1,0,0,26.58h78.41a147.11,147.11,0,0,1,.93,16.35v25.38H578.45A13.3,13.3,0,0,0,565.16,425.79Z"/></g></svg>