<svg xmlns="http://www.w3.org/2000/svg" viewBox="0 0 1024 1024"><defs><style>.cls-1{font-size:200.08px;fill:#457b9d;font-family:Nunito-Bold, Nunito;font-weight:700;letter-spacing:0.02em;}.cls-2{letter-spacing:0.01em;}.cls-3{fill:#a8dadc;}</style></defs><g id="Working_3" data-name="Working 3"><text class="cls-1" transform="translate(8.7 849.12)">SP<tspan class="cls-2" x="267.7" y="0">E</tspan><tspan x="387.15" y="0">AK ED</tspan></text><path class="cls-3" d="M681.66,315.31V375c0,93.56-76.11,169.67-169.67,169.67S342.34,468.51,342.34,375V315.31h.32a18.75,18.75,0,0,1,37.49,0V375c0,72.71,59.15,131.86,131.84,131.86S643.85,447.66,643.85,375V315.31a18.75,18.75,0,0,1,37.49,0Z"/><rect class="cls-3" x="491.73" y="531.71" width="41.03" height="82.54"/><path class="cls-3" d="M532.75,589.15h-41c-25.33,0-84,20.53-84,45.85H617.22C617.22,609.68,558.08,589.15,532.75,589.15Z"/><path class="cls-3" d="M563.48,202.05a10.3,10.3,0,0,1,0-20.6H620a113,113,0,0,0-215.92,0h55.59a10.3,10.3,0,0,1,0,20.6H399.78a115.12,115.12,0,0,0-.73,12.67v19.67h60.58a10.3,10.3,0,1,1,0,20.59H399.05v32.34h60.58a10.3,10.3,0,1,1,0,20.59H399.05v32.34h60.58a10.3,10.3,0,1,1,0,20.59H399.05V375a114,114,0,0,0,1.49,18.23h59.09a10.3,10.3,0,0,1,0,20.6H405.9a113,113,0,0,0,212.2,0H563.48a10.3,10.3,0,0,1,0-20.6h60A114,114,0,0,0,625,375V360.84H563.48a10.3,10.3,0,0,1,0-20.59H625V307.91H563.48a10.3,10.3,0,0,1,0-20.59H625V255H563.48a10.3,10.3,0,0,1,0-20.59H625V214.72a115.12,115.12,0,0,0-.73-12.67Z"/></g></svg>