<svg xmlns="http://www.w3.org/2000/svg" viewBox="0 0 1024 1024"><defs><style>.cls-1{fill:#457b9d;}</style></defs><g id="Working_4" data-name="Working 4"><g id="MicBlueWired"><path class="cls-1" d="M56.83,641.12c-10.73-.34-21.49-1.38-30.68-7.4C14.4,626,6.12,618.45,2.53,603.63c-7.7-31.82,2.38-47.23,27.41-68.11,8.49-7.09,8.07-16.47,5.23-29.06-2.72-12.07-.77-29.31,9.63-37.8s24.77-10.06,33.52-8.2c13.72,2.9,18.86,11.32,24.07,19.08,4.1,6.09,2.43,10.11.93,13.95-2.21,5.67-7.88,8.82-12.14,10.52-.33-3.2-5-12.86-4-13.42,1.33-.2,1.68-.28,2.48-.36a14.94,14.94,0,0,0,4.35-1c1.63-1,1.39-4-.24-7a16.64,16.64,0,0,0-3-4,53.52,53.52,0,0,0-4.56-4.35,21.53,21.53,0,0,0-6.53-3.61,22.32,22.32,0,0,0-3-.79c-8.47-1.66-18.14-.54-26.13,6.47-9,7.9-8.31,17.48-6.24,30.23,2.19,13.45,3.46,26.9-9.27,37.12C13.66,560.53,4.25,573.7,11.4,601.41c3.08,12,9.38,18.39,19.38,24.41,11.67,7,24.77,6.84,37.84,4.35.9,2.85,1.66,5.81,2.49,8.77C66.47,639.89,61.6,641.28,56.83,641.12Z"/><path class="cls-1" d="M773.12,638.29,145,687.42c-14,1.09-26.2-8.19-27.48-20.91l-6.74-67.33c-1.28-12.72,8.84-24.24,22.78-25.94l625.41-76.48Z"/><path class="cls-1" d="M801.76,457.91l21,210a151.21,151.21,0,0,1-27.06-17.09L778.62,480A150.6,150.6,0,0,1,801.76,457.91Z"/><path class="cls-1" d="M1023.33,541.75A132.34,132.34,0,0,1,848,679.83L824.06,441.2a132.34,132.34,0,0,1,199.27,100.55Z"/><path class="cls-1" d="M117.27,654.66l-42.16-5.79a9.68,9.68,0,0,1-8.33-8.63l-1-10a9.69,9.69,0,0,1,6.45-10.12l40.17-14Z"/><path class="cls-1" d="M87,490.61q8.28-1,9.13,5.72.63,5.07-6.71,8.64-12.62,6.42-11.07,18.7a18,18,0,0,0,9.6,14.39q7.18,3.78,17.31,2.51,20.27-2.55,34-16.27,8.57-8.71,7.13-20.23a29,29,0,0,0-4.36-12.4,143.71,143.71,0,0,0-10.76-13.62q-10.94-12.66-18.66-23.24-8.64-11.7-10.16-23.83-3.58-28.71,21.67-57.29a135.66,135.66,0,0,1,30.51-25.35q14.22-8.47,28.19-10.23a24.94,24.94,0,0,1,16,2.83,18.42,18.42,0,0,1,9.62,14.55q1.92,15.35-12.43,35.24a131.4,131.4,0,0,1-33.11,31.9q-9.8,6.54-15.16,7.21a8.55,8.55,0,0,1-6.66-2.13,6.44,6.44,0,0,1-2.4-4.22q-.72-5.69,9-10.49a106.26,106.26,0,0,0,30.52-22.69q16.5-17.65,15.06-29.18a8.67,8.67,0,0,0-4.59-6.75,11.37,11.37,0,0,0-7.18-1.28q-10.59,1.32-25.54,11.46-20.13,13.6-30.25,32.33-8.88,16.25-7.11,30.36,1.29,10.29,8.33,20.48,5.85,8.16,14.61,18.28,8.38,9.72,14.44,18.15,7,10.05,8.2,19.4,2.28,18.12-16.7,34.69a71.39,71.39,0,0,1-38.46,16.67q-22,2.75-35.91-7.82-10.52-8-12-20-1.66-13.37,6.1-23.53a34.59,34.59,0,0,1,11.7-9.89A24.5,24.5,0,0,1,87,490.61Z"/><path class="cls-1" d="M213.88,483.1l-1,3.15q-7.65,22.77-10,32.35-3.57,15-4,17.46-1.26,6.91-4.63,7.34a5,5,0,0,1-4.35-1.68,6.48,6.48,0,0,1-2-3.88q-1.08-8.55,15.2-56.73c-2.9-1.65-4.48-3.48-4.72-5.46a5.08,5.08,0,0,1,1.49-4.23,5.7,5.7,0,0,1,3.5-1.85,13.36,13.36,0,0,1,3.76.23q12.35-32.83,14.07-41.64c-1.54,1.14-3.5,2.73-5.86,4.78a7.55,7.55,0,0,1-3.71,1.87,3.55,3.55,0,0,1-3.31-1.5,5.08,5.08,0,0,1-1.14-2.58q-.59-4.68,6.8-11.05A131.68,131.68,0,0,1,225.14,411a32.73,32.73,0,0,0,.68-3.42,14.18,14.18,0,0,1,1.45-5.33,4.22,4.22,0,0,1,3.22-1.72c3.11-.39,4.89,1.14,5.32,4.59q6.6-2.85,11.75-4.51a50.39,50.39,0,0,1,8.82-2.11,21.31,21.31,0,0,1,17.22,5.31,22.92,22.92,0,0,1,8.22,14.82q1.89,15-8.76,31.59a74.57,74.57,0,0,1-24.15,23.22,68,68,0,0,1-26.67,9.5A49.13,49.13,0,0,1,213.88,483.1ZM234.11,419a224.31,224.31,0,0,1-7.57,26.59q-6.81,19.83-8.76,25.93a50.73,50.73,0,0,0,7.77,0q11.34-1.43,25.3-12.46a69.11,69.11,0,0,0,20.08-25q4.06-8.69,3.27-14.95-.7-5.66-4.89-8t-11.93-1.38a48.11,48.11,0,0,0-11.69,3A58.1,58.1,0,0,0,234.11,419Z"/><path class="cls-1" d="M313.19,444.2l3.88-1.19q21.45-6.93,30.1-8,6.25-.79,6.89,4.28a4.24,4.24,0,0,1-1.95,4.59,16.84,16.84,0,0,1-5.64,1.71q-25.55,4.82-38.4,11-4.29,8.52-11.73,31.26a179.82,179.82,0,0,0-6.24,24.3c1.45-.72,2.88-1.44,4.27-2.15a223.73,223.73,0,0,1,20.86-9.18,93.44,93.44,0,0,1,17.17-4q5.37-.66,8.11.3c1.62.54,2.55,1.83,2.81,3.89a4,4,0,0,1-2.27,4.42,29.56,29.56,0,0,1-6.1,1.27q-26.18,4.69-45.3,18.8a9.93,9.93,0,0,1-4.38,2.07c-1.86.23-3.63-.52-5.33-2.26a7.89,7.89,0,0,1-2.5-4.64q-.31-2.48,4-19.07,6.43-25.14,19.16-55.71,3.8-9.25,14.84-31.44c1.66-3.44,3.25-6.8,4.8-10.09-2.74-.33-4.28-1.92-4.64-4.77a4.94,4.94,0,0,1,2.59-5.07q4.88-3,19.3-7.16,21.54-6.14,36.85-8.05,8.64-1.08,9.22,3.49a6.56,6.56,0,0,1-2.31,5.74,8.24,8.24,0,0,1-4.64,1.69l-2.29.19-3.28.41a206.48,206.48,0,0,0-20.49,4.08,119.13,119.13,0,0,0-19.7,6.3,5,5,0,0,1,1.29,2.27q.21,1.68-3.7,8.33l-3.85,8Q316.21,436.16,313.19,444.2Z"/><path class="cls-1" d="M421.88,449.56q-22,7.31-36.45,15.27Q378,479.4,369.38,499.55l-4.11,9.9c-.72,1.78-1.84,4.34-3.37,7.7q-2.5,5.85-6,6.3a4.09,4.09,0,0,1-3.36-1.1,4,4,0,0,1-1.66-2.72q-.34-2.77,5.48-16.73,3.18-7.57,9.82-21.53,2.55-5.37,4.05-8.78a84.1,84.1,0,0,0-10.45,5.24,10,10,0,0,1-3.84,1.59,3.45,3.45,0,0,1-3.31-1.4,4.34,4.34,0,0,1-1.12-2.48,5.12,5.12,0,0,1,1.79-5.07q3.58-2.88,13.23-7.21a115.26,115.26,0,0,0,11.28-5.86q1.77-2.85,9-16.58,3.09-5.94,18.23-28.53a364.87,364.87,0,0,1,22.77-31q6.9-8.53,11.08-9.06a5.85,5.85,0,0,1,4.73,1.53,6.34,6.34,0,0,1,2.11,4c.24,1.86-.29,5.22-1.56,10.09q-3.24,12.82-5.87,27.29-2.24,12.8-2.7,19.52a17.48,17.48,0,0,0,2.37-.4c1.92-.31,3.5-.54,4.76-.7,3.84-.48,6,.74,6.31,3.65a6.69,6.69,0,0,1-.77,3.89,5.05,5.05,0,0,1-2.55,2.59,15.76,15.76,0,0,1-3.26.61,38.2,38.2,0,0,0-8.36,1.75q-1.5,7.37-3,37-.27,19.62.38,24,.9,7.15-3.38,7.69-3.37.42-5.7-2.82a12.86,12.86,0,0,1-2.2-6.28q-1.73-13.73.23-37.59Q421.47,456,421.88,449.56Zm1.43-11.08q.54-3,2.64-16,.49-3.39,2.95-13.6,2.42-10.5,3.84-16.83A76.66,76.66,0,0,0,421,405q-20.3,28.18-27.93,45.4,3.57-1.35,15.25-6.46Q411.7,442.55,423.31,438.48Z"/><path class="cls-1" d="M500.11,408.46q4-2.82,15.9-12.49,3.48-2.87,19.09-14.41,6.39-4.63,16.41-10.84,6.09-3.8,8.47-4.09a4.17,4.17,0,0,1,2.83.76,5.41,5.41,0,0,1,0,8.37A26.42,26.42,0,0,1,557,379q-30.36,16.43-49.18,37A200,200,0,0,0,506,437.51q-.54,22.28,1.34,37.28c.45,3.58,1.24,6.23,2.36,7.93A4.31,4.31,0,0,0,514,485q5.26-.66,18.19-24.79,2.46-4.55,4.25-4.77c1.52-.19,2.4.64,2.63,2.49q.51,4-6.58,17.59-10.12,19.84-20.37,21.13-8.53,1.06-12.47-7.73a48.8,48.8,0,0,1-3.59-14.09,171.12,171.12,0,0,1-.24-37.42q1.9-20.22,2.2-25.11-4.29,10.94-16.4,37.49-14.25,33.69-15.5,52.72c-.42,4.16-2,6.42-4.81,6.76a4.73,4.73,0,0,1-4.6-2,8.12,8.12,0,0,1-1.26-3.68q-1-7.75,4.83-26.66,3.31-10.6,9.41-26.41,2.29-5.85,10.61-23.34,18.17-38.71,22-55.86a41.19,41.19,0,0,1,2.27-7.65,5.44,5.44,0,0,1,4.09-2.84,3.87,3.87,0,0,1,2.6.59,4.28,4.28,0,0,1,1.91,3.19Q514.26,373.18,500.11,408.46Z"/><path class="cls-1" d="M645.25,402.59l3.88-1.2q21.45-6.92,30.1-8,6.25-.78,6.89,4.29.4,3.18-2,4.58a16.57,16.57,0,0,1-5.64,1.72q-25.54,4.81-38.4,11-4.29,8.52-11.73,31.25a183,183,0,0,0-6.24,24.31q2.19-1.08,4.27-2.16a221.42,221.42,0,0,1,20.86-9.17,92,92,0,0,1,17.17-4q5.37-.68,8.11.3c1.62.53,2.55,1.83,2.81,3.88a4,4,0,0,1-2.27,4.43,30.29,30.29,0,0,1-6.1,1.27q-26.16,4.69-45.29,18.8a10,10,0,0,1-4.39,2.06c-1.86.23-3.63-.52-5.33-2.26a7.84,7.84,0,0,1-2.5-4.63q-.32-2.49,4-19.07,6.43-25.14,19.17-55.71,3.78-9.25,14.84-31.44,2.47-5.16,4.79-10.09c-2.74-.33-4.28-1.92-4.64-4.77a5,5,0,0,1,2.6-5.07q4.86-3,19.29-7.16,21.54-6.14,36.85-8.05c5.76-.73,8.84.44,9.22,3.48a6.51,6.51,0,0,1-2.31,5.75,8.31,8.31,0,0,1-4.63,1.69l-2.3.18-3.28.41a204.76,204.76,0,0,0-20.49,4.09,119.13,119.13,0,0,0-19.7,6.3,4.86,4.86,0,0,1,1.29,2.26q.21,1.69-3.7,8.34l-3.85,7.95Q648.28,394.54,645.25,402.59Z"/><path class="cls-1" d="M729.61,359.61a38.8,38.8,0,0,0-4.65,4c-2.55,2.75-4.52,4.2-5.91,4.38a4.06,4.06,0,0,1-3-.93,4.3,4.3,0,0,1-1.77-2.91q-.47-3.68,8.27-12.14a53.45,53.45,0,0,1,31.2-15.22q13.83-1.73,23.1,6.29a28.6,28.6,0,0,1,9.83,18.76q2.39,19.08-8.5,46.6a154.72,154.72,0,0,1-36.69,55.28q-17.73,17.16-32.94,19.06-6,.75-9.5-2.44a9.86,9.86,0,0,1-3.27-6.05q-.65-5.07,3.69-23.68A541.79,541.79,0,0,1,717.11,392Q718.75,387.32,729.61,359.61Zm8.77-5.74q3.17,1.11,3.39,2.9.16,1.29-2.75,8.63a646.55,646.55,0,0,0-23.42,67.74q-8.19,28.89-7.4,35.16c.33,2.65,1.75,3.81,4.27,3.5q6.36-.8,16.24-9,12.36-10.14,26-32a155.4,155.4,0,0,0,18.29-41q4.62-16.32,3.11-28.35-1.08-8.55-5.78-12.25t-13-2.66Q748.81,347.62,738.38,353.87Z"/></g></g></svg>