<svg xmlns="http://www.w3.org/2000/svg" viewBox="0 0 1024 1024"><defs><style>.cls-1{fill:#a8dadc;}</style></defs><g id="Working_4" data-name="Working 4"><g id="MicBlue"><path class="cls-1" d="M757.31,646.25,89.59,698.47c-14.89,1.16-27.86-8.7-29.21-22.22L53.2,604.67c-1.35-13.52,9.4-25.76,24.23-27.57l664.81-81.3Z"/><path class="cls-1" d="M787.75,454.5l22.37,223.2a160.4,160.4,0,0,1-28.77-18.17L763.16,478A160.68,160.68,0,0,1,787.75,454.5Z"/><path class="cls-1" d="M1023.29,543.62A140.67,140.67,0,0,1,836.88,690.4L811.46,436.74a140.68,140.68,0,0,1,211.83,106.88Z"/><path class="cls-1" d="M60.15,663.64,15.33,657.5a10.29,10.29,0,0,1-8.85-9.18L5.41,637.69a10.31,10.31,0,0,1,6.86-10.75L55,612Z"/><path class="cls-1" d="M28,489.27q8.81-1.11,9.71,6.07.68,5.39-7.14,9.19-13.41,6.81-11.77,19.87Q20.07,534.84,29,539.7q7.63,4,18.4,2.66,21.54-2.68,36.13-17.29,9.11-9.26,7.58-21.5a30.78,30.78,0,0,0-4.64-13.18A149.61,149.61,0,0,0,75,475.91q-11.62-13.46-19.83-24.7-9.2-12.43-10.8-25.33-3.82-30.53,23-60.91A144,144,0,0,1,99.83,338q15.12-9,30-10.88,9.62-1.2,16.95,3A19.56,19.56,0,0,1,157,345.63Q159,362,143.77,383.09A139.73,139.73,0,0,1,108.57,417q-10.41,6.94-16.12,7.66a9.09,9.09,0,0,1-7.08-2.26,6.89,6.89,0,0,1-2.55-4.49q-.75-6,9.54-11.14a113.07,113.07,0,0,0,32.45-24.13q17.55-18.76,16-31a9.24,9.24,0,0,0-4.88-7.18,12.12,12.12,0,0,0-7.63-1.36Q117,344.5,101.16,355.27,79.77,369.73,69,389.64q-9.44,17.26-7.56,32.28,1.38,10.92,8.86,21.76,6.23,8.67,15.53,19.44,8.92,10.32,15.35,19.29,7.47,10.66,8.72,20.62,2.41,19.26-17.76,36.87-17.2,14.76-40.88,17.72-23.34,2.93-38.17-8.31Q1.91,540.78.32,528q-1.78-14.2,6.47-25a37,37,0,0,1,12.44-10.51A25.89,25.89,0,0,1,28,489.27Z"/><path class="cls-1" d="M162.84,481.28l-1.08,3.35q-8.13,24.19-10.61,34.38-3.79,15.93-4.22,18.56-1.34,7.36-4.92,7.81a5.39,5.39,0,0,1-4.63-1.78,6.92,6.92,0,0,1-2.12-4.14q-1.14-9.08,16.16-60.29-4.63-2.64-5-5.81a5.41,5.41,0,0,1,1.58-4.49,6,6,0,0,1,3.72-2,14.14,14.14,0,0,1,4,.25q13.11-34.92,14.95-44.27-2.46,1.81-6.24,5.08a8,8,0,0,1-3.93,2,3.78,3.78,0,0,1-3.53-1.6,5.31,5.31,0,0,1-1.2-2.74q-.63-5,7.22-11.75a142.93,142.93,0,0,1,11.83-9.21,31.9,31.9,0,0,0,.72-3.63,15,15,0,0,1,1.55-5.66,4.48,4.48,0,0,1,3.42-1.83c3.31-.41,5.2,1.21,5.65,4.87q7-3,12.5-4.78a53.56,53.56,0,0,1,9.37-2.25A22.66,22.66,0,0,1,226.33,397a24.34,24.34,0,0,1,8.74,15.75q2,16-9.32,33.58A79.39,79.39,0,0,1,200.08,471a72.26,72.26,0,0,1-28.35,10.1A52,52,0,0,1,162.84,481.28Zm21.51-68.16a237.48,237.48,0,0,1-8,28.26Q169.07,462.47,167,469a54.44,54.44,0,0,0,8.26,0q12-1.51,26.89-13.24a73.53,73.53,0,0,0,21.35-26.61q4.31-9.24,3.48-15.89-.75-6-5.2-8.53t-12.69-1.46a51,51,0,0,0-12.42,3.22A61.81,61.81,0,0,0,184.35,413.12Z"/><path class="cls-1" d="M268.41,439.93l4.13-1.27q22.79-7.37,32-8.52,6.64-.83,7.33,4.56c.28,2.25-.41,3.88-2.08,4.87a17.59,17.59,0,0,1-6,1.83q-27.15,5.12-40.82,11.66-4.56,9-12.47,33.22a193.07,193.07,0,0,0-6.64,25.84q2.32-1.15,4.55-2.29a234,234,0,0,1,22.17-9.75,97.78,97.78,0,0,1,18.25-4.22c3.8-.48,6.68-.37,8.62.31q2.58.85,3,4.13A4.23,4.23,0,0,1,298,505a33.58,33.58,0,0,1-6.49,1.35q-27.81,5-48.15,20a10.55,10.55,0,0,1-4.66,2.2q-3,.36-5.67-2.41a8.32,8.32,0,0,1-2.65-4.92q-.33-2.64,4.22-20.28,6.84-26.71,20.37-59.21,4-9.84,15.77-33.42,2.64-5.49,5.1-10.73-4.37-.52-4.93-5.07a5.27,5.27,0,0,1,2.76-5.39q5.18-3.23,20.51-7.61,22.89-6.53,39.17-8.56,9.19-1.15,9.8,3.71a7,7,0,0,1-2.45,6.1c-1,.91-2.61,1.51-4.93,1.8l-2.44.2-3.49.43a222,222,0,0,0-21.78,4.34,127.63,127.63,0,0,0-20.94,6.7,5.17,5.17,0,0,1,1.37,2.41q.23,1.8-3.93,8.86L280.5,414Q271.62,431.37,268.41,439.93Z"/><path class="cls-1" d="M383.94,445.63q-23.38,7.75-38.74,16.23-7.93,15.48-17.06,36.9l-4.36,10.53c-.77,1.89-2,4.61-3.59,8.18q-2.65,6.22-6.35,6.7a4.37,4.37,0,0,1-3.58-1.16,4.28,4.28,0,0,1-1.76-2.9q-.37-3,5.82-17.79,3.39-8,10.44-22.88,2.72-5.7,4.3-9.34A90.56,90.56,0,0,0,318,475.68a10.61,10.61,0,0,1-4.08,1.69,3.67,3.67,0,0,1-3.51-1.49,4.54,4.54,0,0,1-1.19-2.64q-.45-3.58,1.9-5.39,3.81-3,14.06-7.66a120.28,120.28,0,0,0,12-6.23q1.89-3,9.6-17.62Q350,430,366.1,406a386.1,386.1,0,0,1,24.2-33q7.33-9.07,11.78-9.64a6.23,6.23,0,0,1,5,1.63,6.81,6.81,0,0,1,2.25,4.22q.36,3-1.66,10.73-3.45,13.62-6.24,29-2.37,13.61-2.87,20.75a20.75,20.75,0,0,0,2.52-.42c2-.33,3.72-.57,5.06-.74q6.12-.76,6.71,3.88a7.13,7.13,0,0,1-.83,4.13,5.33,5.33,0,0,1-2.71,2.75,15.71,15.71,0,0,1-3.46.65,40.81,40.81,0,0,0-8.89,1.86q-1.59,7.83-3.22,39.36-.28,20.87.4,25.49,1,7.6-3.59,8.18-3.58.45-6.06-3a13.64,13.64,0,0,1-2.34-6.68q-1.83-14.58.25-39.95Q383.51,452.44,383.94,445.63Zm1.53-11.79q.57-3.18,2.81-17,.51-3.62,3.13-14.45,2.56-11.16,4.08-17.9a81.25,81.25,0,0,0-12.43,13.79q-21.58,30-29.69,48.26,3.78-1.44,16.2-6.86Q373.14,438.19,385.47,433.84Z"/><path class="cls-1" d="M467.11,401.94q4.23-3,16.9-13.28,3.69-3,20.29-15.32,6.79-4.92,17.45-11.52,6.46-4,9-4.35a4.43,4.43,0,0,1,3,.81,5.45,5.45,0,0,1,2.09,3.81,5.55,5.55,0,0,1-2.05,5.09c-.76.74-2.84,1.9-6.22,3.46q-32.25,17.46-52.27,39.28a210.57,210.57,0,0,0-2,22.89q-.57,23.69,1.42,39.64c.48,3.8,1.31,6.61,2.51,8.43a4.59,4.59,0,0,0,4.64,2.37q5.59-.71,19.34-26.35,2.61-4.84,4.52-5.08c1.62-.2,2.55.68,2.8,2.66q.53,4.22-7,18.69-10.77,21.09-21.65,22.46-9.09,1.14-13.26-8.21a51.92,51.92,0,0,1-3.81-15,181.38,181.38,0,0,1-.26-39.78q2-21.51,2.34-26.69-4.56,11.63-17.44,39.85-15.15,35.81-16.47,56-.67,6.63-5.11,7.19a5,5,0,0,1-4.89-2.18,8.44,8.44,0,0,1-1.35-3.91q-1-8.23,5.14-28.33,3.53-11.28,10-28.08,2.44-6.21,11.28-24.81,19.31-41.16,23.36-59.37a43.61,43.61,0,0,1,2.41-8.14,5.76,5.76,0,0,1,4.34-3,4,4,0,0,1,2.76.62,4.54,4.54,0,0,1,2,3.39Q482.16,364.43,467.11,401.94Z"/><path class="cls-1" d="M621.39,395.69l4.13-1.26q22.8-7.37,32-8.52,6.65-.84,7.33,4.55c.28,2.26-.41,3.88-2.07,4.88a18,18,0,0,1-6,1.82q-27.15,5.13-40.82,11.66-4.56,9.06-12.47,33.23a192.58,192.58,0,0,0-6.64,25.83c1.55-.76,3.07-1.53,4.55-2.29a239.4,239.4,0,0,1,22.17-9.75,98.58,98.58,0,0,1,18.25-4.22c3.8-.47,6.68-.37,8.62.32q2.58.85,3,4.13a4.22,4.22,0,0,1-2.42,4.7,31.53,31.53,0,0,1-6.48,1.35q-27.81,5-48.15,20a10.63,10.63,0,0,1-4.66,2.19q-3,.38-5.67-2.4a8.43,8.43,0,0,1-2.65-4.93q-.33-2.64,4.22-20.27Q594.45,430,608,397.48q4-9.84,15.77-33.42,2.64-5.47,5.1-10.72c-2.91-.35-4.55-2-4.93-5.07a5.25,5.25,0,0,1,2.76-5.39q5.18-3.22,20.51-7.62,22.89-6.51,39.17-8.56,9.2-1.14,9.8,3.71a7,7,0,0,1-2.45,6.11,8.83,8.83,0,0,1-4.93,1.79c-.14,0-.95.09-2.44.2l-3.49.44a216.15,216.15,0,0,0-21.78,4.34,127,127,0,0,0-20.94,6.7,5.2,5.2,0,0,1,1.37,2.4q.22,1.8-3.93,8.87l-4.09,8.45Q624.6,387.14,621.39,395.69Z"/><path class="cls-1" d="M711.06,350a40.25,40.25,0,0,0-4.94,4.27q-4.07,4.37-6.28,4.65a4.29,4.29,0,0,1-3.24-1,4.57,4.57,0,0,1-1.89-3.09q-.48-3.92,8.79-12.91a56.87,56.87,0,0,1,33.18-16.18q14.69-1.83,24.55,6.69a30.35,30.35,0,0,1,10.44,19.94q2.55,20.3-9,49.53a164.45,164.45,0,0,1-39,58.76q-18.85,18.26-35,20.27-6.33.8-10.09-2.59a10.53,10.53,0,0,1-3.49-6.43q-.67-5.4,3.93-25.18a578.42,578.42,0,0,1,18.8-62.35Q699.51,379.47,711.06,350Zm9.33-6.11c2.24.8,3.44,1.82,3.6,3.09q.18,1.38-2.93,9.17a686.66,686.66,0,0,0-24.88,72q-8.71,30.72-7.88,37.37c.36,2.82,1.87,4.06,4.55,3.73q6.75-.86,17.25-9.57,13.15-10.77,27.61-34.05a164.79,164.79,0,0,0,19.44-43.54q4.9-17.36,3.31-30.14-1.14-9.08-6.14-13t-13.87-2.82Q731.47,337.26,720.39,343.9Z"/></g></g></svg>