<svg xmlns="http://www.w3.org/2000/svg" viewBox="0 0 1024 1024"><defs><style>.cls-1{fill:#a8dadc;}</style></defs><g id="Working_3" data-name="Working 3"><path class="cls-1" d="M837.8,410.08V524.62c0,179.66-146.15,325.82-325.82,325.82S186.2,704.28,186.2,524.62V410.08h.61a36,36,0,0,1,72,0V524.62c0,139.62,113.6,253.22,253.18,253.22S765.2,664.24,765.2,524.62V410.08a36,36,0,0,1,72,0Z"/><rect class="cls-1" x="473.07" y="825.64" width="78.79" height="158.5"/><path class="cls-1" d="M551.85,936H473.07c-48.64,0-161.28,39.42-161.28,88H714.06C714.06,975.37,600.48,936,551.85,936Z"/><path class="cls-1" d="M610.86,192.58a19.78,19.78,0,0,1,0-39.55H719.32C692.05,64.41,609.55,0,512,0S332,64.41,304.68,153H411.43a19.78,19.78,0,1,1,0,39.55H296.5a219.57,219.57,0,0,0-1.39,24.33v37.77H411.43a19.78,19.78,0,1,1,0,39.55H295.11v62.1H411.43a19.77,19.77,0,1,1,0,39.54H295.11V458H411.43a19.77,19.77,0,1,1,0,39.54H295.11v27.1a218.4,218.4,0,0,0,2.85,35H411.43a19.77,19.77,0,1,1,0,39.54H308.26C338.66,682.25,418.4,741.53,512,741.53A217.12,217.12,0,0,0,715.74,599.17H610.86a19.77,19.77,0,0,1,0-39.54H726a218.4,218.4,0,0,0,2.85-35v-27.1h-118a19.77,19.77,0,0,1,0-39.54h118V395.87h-118a19.77,19.77,0,1,1,0-39.54h118v-62.1h-118a19.78,19.78,0,0,1,0-39.55h118V216.91a219.57,219.57,0,0,0-1.39-24.33Z"/></g></svg>