<svg xmlns="http://www.w3.org/2000/svg" xmlns:xlink="http://www.w3.org/1999/xlink" viewBox="0 0 1024 1024"><defs><style>.cls-1{font-size:186.72px;fill:#457b9d;font-family:Nunito-Bold, Nunito;font-weight:700;letter-spacing:0.02em;}.cls-2{letter-spacing:0.01em;}.cls-3{fill:#a8dadc;}.cls-4{fill:url(#linear-gradient);}.cls-5{fill:#e5e5e5;}</style><linearGradient id="linear-gradient" x1="500.47" y1="395.36" x2="734.46" y2="579.34" gradientUnits="userSpaceOnUse"><stop offset="0" stop-color="#9ac7c9"/><stop offset="0.15" stop-color="#9cc9cb" stop-opacity="0.88"/><stop offset="0.47" stop-color="#a0cfd1" stop-opacity="0.57"/><stop offset="0.94" stop-color="#a7d9db" stop-opacity="0.07"/><stop offset="1" stop-color="#a8dadc" stop-opacity="0"/></linearGradient></defs><g id="Working_2" data-name="Working 2"><text class="cls-1" transform="translate(42.3 891.66)">SP<tspan class="cls-2" x="249.83" y="0">E</tspan><tspan x="361.31" y="0">AK ED</tspan></text><path class="cls-3" d="M826.65,378.76a315.66,315.66,0,0,1-7.24,67.39c-25.22,115.63-114,207.5-227.95,237.14a314.18,314.18,0,0,1-63,9.7q-8.18.42-16.46.42-8.08,0-16.08-.4c-166.3-8.37-298.57-145.87-298.57-314.25C197.35,205,338.22,64.11,512,64.11S826.65,205,826.65,378.76Z"/><path class="cls-4" d="M819.41,446.15c-25.22,115.63-114,207.5-227.95,237.14L418.34,525.66l21.81-43,11.52-22.73h18.79a8.17,8.17,0,0,0,0-16.33H460l13.25-26.13a8.21,8.21,0,0,0,5.08-10l89.15-175.81,5.19,4.42Z"/><path class="cls-5" d="M646.58,381.8v47.31c0,74.22-60.37,134.59-134.59,134.59S377.42,503.33,377.42,429.11V381.8h.25a14.87,14.87,0,0,1,29.74,0v47.31a104.59,104.59,0,1,0,209.18,0V381.8a14.87,14.87,0,0,1,29.74,0Z"/><path class="cls-5" d="M528.46,553.46V693q-8.18.42-16.46.42-8.08,0-16.08-.4V553.46Z"/><path class="cls-5" d="M544.67,325.78a8.17,8.17,0,0,0,8.17,8.17h48.75V359.6H552.84a8.17,8.17,0,1,0,0,16.33h48.75v25.66H552.84a8.17,8.17,0,1,0,0,16.33h48.75v11.19a90.75,90.75,0,0,1-1.17,14.47H552.84a8.17,8.17,0,1,0,0,16.33h43.32a89.65,89.65,0,0,1-168.32,0h42.62a8.17,8.17,0,0,0,0-16.33H423.59a89.6,89.6,0,0,1-1.18-14.47V417.92h48a8.36,8.36,0,0,0,2.75-.47,8.17,8.17,0,0,0-2.75-15.86h-48V375.93h48a8.17,8.17,0,0,0,0-16.33h-48V334h48a8.18,8.18,0,0,0,0-16.35h-48V302A90.11,90.11,0,0,1,423,292h47.47a8.17,8.17,0,0,0,0-16.34h-44.1a89.61,89.61,0,0,1,141.08-44c1.79,1.4,3.52,2.88,5.19,4.42a89.7,89.7,0,0,1,25,39.58h-44.8a8.17,8.17,0,0,0,0,16.34H601a90.12,90.12,0,0,1,.57,10.05V317.6H552.84A8.17,8.17,0,0,0,544.67,325.78Z"/></g></svg>