<svg width="154" height="23" viewBox="0 0 154 23" fill="none" xmlns="http://www.w3.org/2000/svg">
<path d="M10.0402 2.96V12.52C10.0402 14 9.62024 15.14 8.78024 15.94C7.95358 16.74 6.83358 17.14 5.42024 17.14C3.94024 17.14 2.75358 16.72 1.86024 15.88C0.966911 15.04 0.520244 13.8467 0.520244 12.3H3.92024C3.92024 12.8867 4.04024 13.3333 4.28024 13.64C4.52024 13.9333 4.86691 14.08 5.32024 14.08C5.73358 14.08 6.05358 13.9467 6.28024 13.68C6.50691 13.4133 6.62024 13.0267 6.62024 12.52V2.96H10.0402ZM12.1227 11.4C12.1227 10.2533 12.3361 9.24667 12.7627 8.38C13.2027 7.51333 13.7961 6.84667 14.5427 6.38C15.2894 5.91333 16.1227 5.68 17.0427 5.68C17.8294 5.68 18.5161 5.84 19.1027 6.16C19.7027 6.48 20.1627 6.9 20.4827 7.42V5.84H23.9027V17H20.4827V15.42C20.1494 15.94 19.6827 16.36 19.0827 16.68C18.4961 17 17.8094 17.16 17.0227 17.16C16.1161 17.16 15.2894 16.9267 14.5427 16.46C13.7961 15.98 13.2027 15.3067 12.7627 14.44C12.3361 13.56 12.1227 12.5467 12.1227 11.4ZM20.4827 11.42C20.4827 10.5667 20.2427 9.89333 19.7627 9.4C19.2961 8.90667 18.7227 8.66 18.0427 8.66C17.3627 8.66 16.7827 8.90667 16.3027 9.4C15.8361 9.88 15.6027 10.5467 15.6027 11.4C15.6027 12.2533 15.8361 12.9333 16.3027 13.44C16.7827 13.9333 17.3627 14.18 18.0427 14.18C18.7227 14.18 19.2961 13.9333 19.7627 13.44C20.2427 12.9467 20.4827 12.2733 20.4827 11.42ZM30.617 5.68C31.4036 5.68 32.0903 5.84 32.677 6.16C33.277 6.48 33.737 6.9 34.057 7.42V5.84H37.477V16.98C37.477 18.0067 37.2703 18.9333 36.857 19.76C36.457 20.6 35.837 21.2667 34.997 21.76C34.1703 22.2533 33.137 22.5 31.897 22.5C30.2436 22.5 28.9036 22.1067 27.877 21.32C26.8503 20.5467 26.2636 19.4933 26.117 18.16H29.497C29.6036 18.5867 29.857 18.92 30.257 19.16C30.657 19.4133 31.1503 19.54 31.737 19.54C32.4436 19.54 33.0036 19.3333 33.417 18.92C33.8436 18.52 34.057 17.8733 34.057 16.98V15.4C33.7236 15.92 33.2636 16.3467 32.677 16.68C32.0903 17 31.4036 17.16 30.617 17.16C29.697 17.16 28.8636 16.9267 28.117 16.46C27.3703 15.98 26.777 15.3067 26.337 14.44C25.9103 13.56 25.697 12.5467 25.697 11.4C25.697 10.2533 25.9103 9.24667 26.337 8.38C26.777 7.51333 27.3703 6.84667 28.117 6.38C28.8636 5.91333 29.697 5.68 30.617 5.68ZM34.057 11.42C34.057 10.5667 33.817 9.89333 33.337 9.4C32.8703 8.90667 32.297 8.66 31.617 8.66C30.937 8.66 30.357 8.90667 29.877 9.4C29.4103 9.88 29.177 10.5467 29.177 11.4C29.177 12.2533 29.4103 12.9333 29.877 13.44C30.357 13.9333 30.937 14.18 31.617 14.18C32.297 14.18 32.8703 13.9333 33.337 13.44C33.817 12.9467 34.057 12.2733 34.057 11.42ZM44.1912 5.68C44.9778 5.68 45.6645 5.84 46.2512 6.16C46.8512 6.48 47.3112 6.9 47.6312 7.42V5.84H51.0512V16.98C51.0512 18.0067 50.8445 18.9333 50.4312 19.76C50.0312 20.6 49.4112 21.2667 48.5712 21.76C47.7445 22.2533 46.7112 22.5 45.4712 22.5C43.8178 22.5 42.4778 22.1067 41.4512 21.32C40.4245 20.5467 39.8378 19.4933 39.6912 18.16H43.0712C43.1778 18.5867 43.4312 18.92 43.8312 19.16C44.2312 19.4133 44.7245 19.54 45.3112 19.54C46.0178 19.54 46.5778 19.3333 46.9912 18.92C47.4178 18.52 47.6312 17.8733 47.6312 16.98V15.4C47.2978 15.92 46.8378 16.3467 46.2512 16.68C45.6645 17 44.9778 17.16 44.1912 17.16C43.2712 17.16 42.4378 16.9267 41.6912 16.46C40.9445 15.98 40.3512 15.3067 39.9112 14.44C39.4845 13.56 39.2712 12.5467 39.2712 11.4C39.2712 10.2533 39.4845 9.24667 39.9112 8.38C40.3512 7.51333 40.9445 6.84667 41.6912 6.38C42.4378 5.91333 43.2712 5.68 44.1912 5.68ZM47.6312 11.42C47.6312 10.5667 47.3912 9.89333 46.9112 9.4C46.4445 8.90667 45.8712 8.66 45.1912 8.66C44.5112 8.66 43.9312 8.90667 43.4512 9.4C42.9845 9.88 42.7512 10.5467 42.7512 11.4C42.7512 12.2533 42.9845 12.9333 43.4512 13.44C43.9312 13.9333 44.5112 14.18 45.1912 14.18C45.8712 14.18 46.4445 13.9333 46.9112 13.44C47.3912 12.9467 47.6312 12.2733 47.6312 11.42ZM55.2454 4.68C54.6454 4.68 54.1521 4.50667 53.7654 4.16C53.3921 3.8 53.2054 3.36 53.2054 2.84C53.2054 2.30667 53.3921 1.86667 53.7654 1.52C54.1521 1.16 54.6454 0.979999 55.2454 0.979999C55.8321 0.979999 56.3121 1.16 56.6854 1.52C57.0721 1.86667 57.2654 2.30667 57.2654 2.84C57.2654 3.36 57.0721 3.8 56.6854 4.16C56.3121 4.50667 55.8321 4.68 55.2454 4.68ZM56.9454 5.84V17H53.5254V5.84H56.9454ZM76.8421 2.96L71.8621 17H67.5821L62.6021 2.96H66.2421L69.7221 13.56L73.2221 2.96H76.8421ZM77.5915 11.4C77.5915 10.2533 77.8048 9.24667 78.2315 8.38C78.6715 7.51333 79.2648 6.84667 80.0115 6.38C80.7582 5.91333 81.5915 5.68 82.5115 5.68C83.2982 5.68 83.9848 5.84 84.5715 6.16C85.1715 6.48 85.6315 6.9 85.9515 7.42V5.84H89.3715V17H85.9515V15.42C85.6182 15.94 85.1515 16.36 84.5515 16.68C83.9648 17 83.2782 17.16 82.4915 17.16C81.5848 17.16 80.7582 16.9267 80.0115 16.46C79.2648 15.98 78.6715 15.3067 78.2315 14.44C77.8048 13.56 77.5915 12.5467 77.5915 11.4ZM85.9515 11.42C85.9515 10.5667 85.7115 9.89333 85.2315 9.4C84.7648 8.90667 84.1915 8.66 83.5115 8.66C82.8315 8.66 82.2515 8.90667 81.7715 9.4C81.3048 9.88 81.0715 10.5467 81.0715 11.4C81.0715 12.2533 81.3048 12.9333 81.7715 13.44C82.2515 13.9333 82.8315 14.18 83.5115 14.18C84.1915 14.18 84.7648 13.9333 85.2315 13.44C85.7115 12.9467 85.9515 12.2733 85.9515 11.42ZM96.3857 17.16C95.4124 17.16 94.5457 16.9933 93.7857 16.66C93.0257 16.3267 92.4257 15.8733 91.9857 15.3C91.5457 14.7133 91.299 14.06 91.2457 13.34H94.6257C94.6657 13.7267 94.8457 14.04 95.1657 14.28C95.4857 14.52 95.879 14.64 96.3457 14.64C96.7724 14.64 97.099 14.56 97.3257 14.4C97.5657 14.2267 97.6857 14.0067 97.6857 13.74C97.6857 13.42 97.519 13.1867 97.1857 13.04C96.8524 12.88 96.3124 12.7067 95.5657 12.52C94.7657 12.3333 94.099 12.14 93.5657 11.94C93.0324 11.7267 92.5724 11.4 92.1857 10.96C91.799 10.5067 91.6057 9.9 91.6057 9.14C91.6057 8.5 91.779 7.92 92.1257 7.4C92.4857 6.86667 93.0057 6.44667 93.6857 6.14C94.379 5.83333 95.199 5.68 96.1457 5.68C97.5457 5.68 98.6457 6.02667 99.4457 6.72C100.259 7.41333 100.726 8.33333 100.846 9.48H97.6857C97.6324 9.09333 97.459 8.78667 97.1657 8.56C96.8857 8.33333 96.5124 8.22 96.0457 8.22C95.6457 8.22 95.339 8.3 95.1257 8.46C94.9124 8.60667 94.8057 8.81333 94.8057 9.08C94.8057 9.4 94.9724 9.64 95.3057 9.8C95.6524 9.96 96.1857 10.12 96.9057 10.28C97.7324 10.4933 98.4057 10.7067 98.9257 10.92C99.4457 11.12 99.899 11.4533 100.286 11.92C100.686 12.3733 100.892 12.9867 100.906 13.76C100.906 14.4133 100.719 15 100.346 15.52C99.9857 16.0267 99.459 16.4267 98.7657 16.72C98.0857 17.0133 97.2924 17.16 96.3857 17.16ZM114.018 5.84V17H110.598V15.48C110.251 15.9733 109.778 16.3733 109.178 16.68C108.591 16.9733 107.938 17.12 107.218 17.12C106.365 17.12 105.611 16.9333 104.958 16.56C104.305 16.1733 103.798 15.62 103.438 14.9C103.078 14.18 102.898 13.3333 102.898 12.36V5.84H106.298V11.9C106.298 12.6467 106.491 13.2267 106.878 13.64C107.265 14.0533 107.785 14.26 108.438 14.26C109.105 14.26 109.631 14.0533 110.018 13.64C110.405 13.2267 110.598 12.6467 110.598 11.9V5.84H114.018ZM115.795 11.4C115.795 10.2533 116.008 9.24667 116.435 8.38C116.875 7.51333 117.468 6.84667 118.215 6.38C118.961 5.91333 119.795 5.68 120.715 5.68C121.448 5.68 122.115 5.83333 122.715 6.14C123.328 6.44667 123.808 6.86 124.155 7.38V2.2H127.575V17H124.155V15.4C123.835 15.9333 123.375 16.36 122.775 16.68C122.188 17 121.501 17.16 120.715 17.16C119.795 17.16 118.961 16.9267 118.215 16.46C117.468 15.98 116.875 15.3067 116.435 14.44C116.008 13.56 115.795 12.5467 115.795 11.4ZM124.155 11.42C124.155 10.5667 123.915 9.89333 123.435 9.4C122.968 8.90667 122.395 8.66 121.715 8.66C121.035 8.66 120.455 8.90667 119.975 9.4C119.508 9.88 119.275 10.5467 119.275 11.4C119.275 12.2533 119.508 12.9333 119.975 13.44C120.455 13.9333 121.035 14.18 121.715 14.18C122.395 14.18 122.968 13.9333 123.435 13.44C123.915 12.9467 124.155 12.2733 124.155 11.42ZM140.569 11.24C140.569 11.56 140.549 11.8933 140.509 12.24H132.769C132.822 12.9333 133.042 13.4667 133.429 13.84C133.829 14.2 134.316 14.38 134.889 14.38C135.742 14.38 136.336 14.02 136.669 13.3H140.309C140.122 14.0333 139.782 14.6933 139.289 15.28C138.809 15.8667 138.202 16.3267 137.469 16.66C136.736 16.9933 135.916 17.16 135.009 17.16C133.916 17.16 132.942 16.9267 132.089 16.46C131.236 15.9933 130.569 15.3267 130.089 14.46C129.609 13.5933 129.369 12.58 129.369 11.42C129.369 10.26 129.602 9.24667 130.069 8.38C130.549 7.51333 131.216 6.84667 132.069 6.38C132.922 5.91333 133.902 5.68 135.009 5.68C136.089 5.68 137.049 5.90667 137.889 6.36C138.729 6.81333 139.382 7.46 139.849 8.3C140.329 9.14 140.569 10.12 140.569 11.24ZM137.069 10.34C137.069 9.75333 136.869 9.28667 136.469 8.94C136.069 8.59333 135.569 8.42 134.969 8.42C134.396 8.42 133.909 8.58667 133.509 8.92C133.122 9.25333 132.882 9.72667 132.789 10.34H137.069ZM147.393 13.8L149.813 5.84H153.453L149.493 17H145.273L141.313 5.84H144.973L147.393 13.8Z" fill="url(#paint0_linear)"/>
<defs>
<linearGradient id="paint0_linear" x1="84.7002" y1="-8.72222" x2="85.0303" y2="44.474" gradientUnits="userSpaceOnUse">
<stop stop-color="#FD749B"/>
<stop offset="1" stop-color="#281AC8"/>
</linearGradient>
</defs>
</svg>
