<svg width="92" height="11" viewBox="0 0 92 11" fill="none" xmlns="http://www.w3.org/2000/svg">
<path d="M7.72124 4.08884C7.54391 3.76217 7.28724 3.51484 6.95124 3.34684C6.62457 3.1695 6.23724 3.08084 5.78924 3.08084C5.01457 3.08084 4.39391 3.3375 3.92724 3.85084C3.46057 4.35484 3.22724 5.0315 3.22724 5.88084C3.22724 6.78617 3.46991 7.4955 3.95524 8.00884C4.44991 8.51284 5.12657 8.76484 5.98524 8.76484C6.57324 8.76484 7.06791 8.6155 7.46924 8.31684C7.87991 8.01817 8.17857 7.58884 8.36524 7.02884H5.32724V5.26484H10.5352V7.49084C10.3579 8.08817 10.0546 8.6435 9.62524 9.15684C9.20524 9.67017 8.66857 10.0855 8.01524 10.4028C7.36191 10.7202 6.62457 10.8788 5.80324 10.8788C4.83257 10.8788 3.96457 10.6688 3.19924 10.2488C2.44324 9.8195 1.85057 9.22684 1.42124 8.47084C1.00124 7.71484 0.791239 6.8515 0.791239 5.88084C0.791239 4.91017 1.00124 4.04684 1.42124 3.29084C1.85057 2.5255 2.44324 1.93284 3.19924 1.51284C3.95524 1.0835 4.81857 0.868837 5.78924 0.868837C6.96524 0.868837 7.95457 1.1535 8.75724 1.72284C9.56924 2.29217 10.1059 3.08084 10.3672 4.08884H7.72124ZM14.2553 2.89884V4.88684H17.4613V6.73484H14.2553V8.89084H17.8813V10.8088H11.8613V0.980838H17.8813V2.89884H14.2553ZM26.5055 0.980838V2.89884H23.9015V10.8088H21.5075V2.89884H18.9035V0.980838H26.5055ZM34.2298 10.9068C33.5111 10.9068 32.8671 10.7902 32.2978 10.5568C31.7285 10.3235 31.2711 9.97817 30.9258 9.52084C30.5898 9.0635 30.4125 8.51284 30.3938 7.86884H32.9418C32.9791 8.23284 33.1051 8.51284 33.3198 8.70884C33.5345 8.8955 33.8145 8.98884 34.1598 8.98884C34.5145 8.98884 34.7945 8.9095 34.9998 8.75084C35.2051 8.58284 35.3078 8.35417 35.3078 8.06484C35.3078 7.82217 35.2238 7.6215 35.0558 7.46284C34.8971 7.30417 34.6965 7.1735 34.4538 7.07084C34.2205 6.96817 33.8845 6.8515 33.4458 6.72084C32.8111 6.52484 32.2931 6.32884 31.8918 6.13284C31.4905 5.93684 31.1451 5.6475 30.8558 5.26484C30.5665 4.88217 30.4218 4.38284 30.4218 3.76684C30.4218 2.85217 30.7531 2.13817 31.4158 1.62484C32.0785 1.10217 32.9418 0.840838 34.0058 0.840838C35.0885 0.840838 35.9611 1.10217 36.6238 1.62484C37.2865 2.13817 37.6411 2.85684 37.6878 3.78084H35.0978C35.0791 3.4635 34.9625 3.21617 34.7478 3.03884C34.5331 2.85217 34.2578 2.75884 33.9218 2.75884C33.6325 2.75884 33.3991 2.83817 33.2218 2.99684C33.0445 3.14617 32.9558 3.3655 32.9558 3.65484C32.9558 3.97217 33.1051 4.2195 33.4038 4.39684C33.7025 4.57417 34.1691 4.7655 34.8038 4.97084C35.4385 5.1855 35.9518 5.39084 36.3438 5.58684C36.7451 5.78284 37.0905 6.0675 37.3798 6.44084C37.6691 6.81417 37.8138 7.29484 37.8138 7.88284C37.8138 8.44284 37.6691 8.9515 37.3798 9.40884C37.0998 9.86617 36.6891 10.2302 36.1478 10.5008C35.6065 10.7715 34.9671 10.9068 34.2298 10.9068ZM46.3571 0.980838V2.89884H43.7531V10.8088H41.3591V2.89884H38.7551V0.980838H46.3571ZM53.6766 9.07284H50.0086L49.4206 10.8088H46.9146L50.4706 0.980838H53.2426L56.7986 10.8088H54.2646L53.6766 9.07284ZM53.0606 7.22484L51.8426 3.62684L50.6386 7.22484H53.0606ZM62.8928 10.8088L60.8488 7.09884H60.2748V10.8088H57.8808V0.980838H61.8988C62.6735 0.980838 63.3315 1.11617 63.8728 1.38684C64.4235 1.6575 64.8342 2.03084 65.1048 2.50684C65.3755 2.9735 65.5108 3.49617 65.5108 4.07484C65.5108 4.72817 65.3242 5.3115 64.9508 5.82484C64.5868 6.33817 64.0455 6.70217 63.3268 6.91684L65.5948 10.8088H62.8928ZM60.2748 5.40484H61.7588C62.1975 5.40484 62.5242 5.2975 62.7388 5.08284C62.9628 4.86817 63.0748 4.56484 63.0748 4.17284C63.0748 3.7995 62.9628 3.5055 62.7388 3.29084C62.5242 3.07617 62.1975 2.96884 61.7588 2.96884H60.2748V5.40484ZM74.0836 0.980838V2.89884H71.4796V10.8088H69.0856V2.89884H66.4816V0.980838H74.0836ZM77.6791 2.89884V4.88684H80.8851V6.73484H77.6791V8.89084H81.3051V10.8088H75.2851V0.980838H81.3051V2.89884H77.6791ZM86.5413 0.980838C87.5773 0.980838 88.4827 1.18617 89.2573 1.59684C90.032 2.0075 90.6293 2.58617 91.0493 3.33284C91.4787 4.07017 91.6933 4.92417 91.6933 5.89484C91.6933 6.85617 91.4787 7.71017 91.0493 8.45684C90.6293 9.2035 90.0273 9.78217 89.2433 10.1928C88.4687 10.6035 87.568 10.8088 86.5413 10.8088H82.8593V0.980838H86.5413ZM86.3873 8.73684C87.2927 8.73684 87.9973 8.4895 88.5013 7.99484C89.0053 7.50017 89.2573 6.80017 89.2573 5.89484C89.2573 4.9895 89.0053 4.28484 88.5013 3.78084C87.9973 3.27684 87.2927 3.02484 86.3873 3.02484H85.2533V8.73684H86.3873Z" fill="url(#paint0_linear)"/>
<defs>
<linearGradient id="paint0_linear" x1="50.9556" y1="-7.36632" x2="51.1996" y2="28.4018" gradientUnits="userSpaceOnUse">
<stop stop-color="#FD749B"/>
<stop offset="1" stop-color="#281AC8"/>
</linearGradient>
</defs>
</svg>
