<svg width="566" height="31" viewBox="0 0 566 31" fill="none" xmlns="http://www.w3.org/2000/svg">
<path d="M13.532 3.344V7.18H5.524V11.324H11.516V15.048H5.524V23H0.736V3.344H13.532ZM18.4565 5.752C17.6165 5.752 16.9258 5.50933 16.3845 5.024C15.8618 4.52 15.6005 3.904 15.6005 3.176C15.6005 2.42933 15.8618 1.81333 16.3845 1.328C16.9258 0.823998 17.6165 0.571998 18.4565 0.571998C19.2778 0.571998 19.9498 0.823998 20.4725 1.328C21.0138 1.81333 21.2845 2.42933 21.2845 3.176C21.2845 3.904 21.0138 4.52 20.4725 5.024C19.9498 5.50933 19.2778 5.752 18.4565 5.752ZM20.8365 7.376V23H16.0485V7.376H20.8365ZM33.8263 7.208C35.6556 7.208 37.1116 7.80533 38.1943 9C39.2956 10.176 39.8463 11.8 39.8463 13.872V23H35.0863V14.516C35.0863 13.4707 34.8156 12.6587 34.2743 12.08C33.733 11.5013 33.005 11.212 32.0903 11.212C31.1756 11.212 30.4476 11.5013 29.9063 12.08C29.365 12.6587 29.0943 13.4707 29.0943 14.516V23H24.3063V7.376H29.0943V9.448C29.5796 8.75733 30.233 8.216 31.0543 7.824C31.8756 7.41333 32.7996 7.208 33.8263 7.208ZM42.2215 15.16C42.2215 13.5547 42.5202 12.1453 43.1175 10.932C43.7335 9.71867 44.5642 8.78533 45.6095 8.132C46.6548 7.47867 47.8215 7.152 49.1095 7.152C50.1362 7.152 51.0695 7.36667 51.9095 7.796C52.7682 8.22533 53.4402 8.804 53.9255 9.532V2.28H58.7135V23H53.9255V20.76C53.4775 21.5067 52.8335 22.104 51.9935 22.552C51.1722 23 50.2108 23.224 49.1095 23.224C47.8215 23.224 46.6548 22.8973 45.6095 22.244C44.5642 21.572 43.7335 20.6293 43.1175 19.416C42.5202 18.184 42.2215 16.7653 42.2215 15.16ZM53.9255 15.188C53.9255 13.9933 53.5895 13.0507 52.9175 12.36C52.2642 11.6693 51.4615 11.324 50.5095 11.324C49.5575 11.324 48.7455 11.6693 48.0735 12.36C47.4202 13.032 47.0935 13.9653 47.0935 15.16C47.0935 16.3547 47.4202 17.3067 48.0735 18.016C48.7455 18.7067 49.5575 19.052 50.5095 19.052C51.4615 19.052 52.2642 18.7067 52.9175 18.016C53.5895 17.3253 53.9255 16.3827 53.9255 15.188ZM74.467 23.224C73.1043 23.224 71.891 22.9907 70.827 22.524C69.763 22.0573 68.923 21.4227 68.307 20.62C67.691 19.7987 67.3457 18.884 67.271 17.876H72.003C72.059 18.4173 72.311 18.856 72.759 19.192C73.207 19.528 73.7577 19.696 74.411 19.696C75.0083 19.696 75.4657 19.584 75.783 19.36C76.119 19.1173 76.287 18.8093 76.287 18.436C76.287 17.988 76.0537 17.6613 75.587 17.456C75.1203 17.232 74.3643 16.9893 73.319 16.728C72.199 16.4667 71.2657 16.196 70.519 15.916C69.7723 15.6173 69.1283 15.16 68.587 14.544C68.0457 13.9093 67.775 13.06 67.775 11.996C67.775 11.1 68.0177 10.288 68.503 9.56C69.007 8.81333 69.735 8.22533 70.687 7.796C71.6577 7.36667 72.8057 7.152 74.131 7.152C76.091 7.152 77.631 7.63733 78.751 8.608C79.8897 9.57867 80.543 10.8667 80.711 12.472H76.287C76.2123 11.9307 75.9697 11.5013 75.559 11.184C75.167 10.8667 74.6443 10.708 73.991 10.708C73.431 10.708 73.0017 10.82 72.703 11.044C72.4043 11.2493 72.255 11.5387 72.255 11.912C72.255 12.36 72.4883 12.696 72.955 12.92C73.4403 13.144 74.187 13.368 75.195 13.592C76.3523 13.8907 77.295 14.1893 78.023 14.488C78.751 14.768 79.3857 15.2347 79.927 15.888C80.487 16.5227 80.7763 17.3813 80.795 18.464C80.795 19.3787 80.5337 20.2 80.011 20.928C79.507 21.6373 78.7697 22.1973 77.799 22.608C76.847 23.0187 75.7363 23.224 74.467 23.224ZM88.5123 9.588C88.9789 8.86 89.6229 8.272 90.4443 7.824C91.2656 7.376 92.2269 7.152 93.3283 7.152C94.6163 7.152 95.7829 7.47867 96.8283 8.132C97.8736 8.78533 98.6949 9.71867 99.2923 10.932C99.9083 12.1453 100.216 13.5547 100.216 15.16C100.216 16.7653 99.9083 18.184 99.2923 19.416C98.6949 20.6293 97.8736 21.572 96.8283 22.244C95.7829 22.8973 94.6163 23.224 93.3283 23.224C92.2456 23.224 91.2843 23 90.4443 22.552C89.6229 22.104 88.9789 21.5253 88.5123 20.816V30.448H83.7243V7.376H88.5123V9.588ZM95.3443 15.16C95.3443 13.9653 95.0083 13.032 94.3363 12.36C93.6829 11.6693 92.8709 11.324 91.9003 11.324C90.9483 11.324 90.1363 11.6693 89.4643 12.36C88.8109 13.0507 88.4843 13.9933 88.4843 15.188C88.4843 16.3827 88.8109 17.3253 89.4643 18.016C90.1363 18.7067 90.9483 19.052 91.9003 19.052C92.8523 19.052 93.6643 18.7067 94.3363 18.016C95.0083 17.3067 95.3443 16.3547 95.3443 15.16ZM117.456 14.936C117.456 15.384 117.428 15.8507 117.372 16.336H106.536C106.611 17.3067 106.919 18.0533 107.46 18.576C108.02 19.08 108.702 19.332 109.504 19.332C110.699 19.332 111.53 18.828 111.996 17.82H117.092C116.831 18.8467 116.355 19.7707 115.664 20.592C114.992 21.4133 114.143 22.0573 113.116 22.524C112.09 22.9907 110.942 23.224 109.672 23.224C108.142 23.224 106.779 22.8973 105.584 22.244C104.39 21.5907 103.456 20.6573 102.784 19.444C102.112 18.2307 101.776 16.812 101.776 15.188C101.776 13.564 102.103 12.1453 102.756 10.932C103.428 9.71867 104.362 8.78533 105.556 8.132C106.751 7.47867 108.123 7.152 109.672 7.152C111.184 7.152 112.528 7.46933 113.704 8.104C114.88 8.73867 115.795 9.644 116.448 10.82C117.12 11.996 117.456 13.368 117.456 14.936ZM112.556 13.676C112.556 12.8547 112.276 12.2013 111.716 11.716C111.156 11.2307 110.456 10.988 109.616 10.988C108.814 10.988 108.132 11.2213 107.572 11.688C107.031 12.1547 106.695 12.8173 106.564 13.676H112.556ZM119.03 15.16C119.03 13.5547 119.329 12.1453 119.926 10.932C120.542 9.71867 121.373 8.78533 122.418 8.132C123.463 7.47867 124.63 7.152 125.918 7.152C127.019 7.152 127.981 7.376 128.802 7.824C129.642 8.272 130.286 8.86 130.734 9.588V7.376H135.522V23H130.734V20.788C130.267 21.516 129.614 22.104 128.774 22.552C127.953 23 126.991 23.224 125.89 23.224C124.621 23.224 123.463 22.8973 122.418 22.244C121.373 21.572 120.542 20.6293 119.926 19.416C119.329 18.184 119.03 16.7653 119.03 15.16ZM130.734 15.188C130.734 13.9933 130.398 13.0507 129.726 12.36C129.073 11.6693 128.27 11.324 127.318 11.324C126.366 11.324 125.554 11.6693 124.882 12.36C124.229 13.032 123.902 13.9653 123.902 15.16C123.902 16.3547 124.229 17.3067 124.882 18.016C125.554 18.7067 126.366 19.052 127.318 19.052C128.27 19.052 129.073 18.7067 129.726 18.016C130.398 17.3253 130.734 16.3827 130.734 15.188ZM148.534 23L143.774 16.448V23H138.986V2.28H143.774V13.732L148.506 7.376H154.414L147.918 15.216L154.47 23H148.534ZM171.023 14.936C171.023 15.384 170.995 15.8507 170.939 16.336H160.103C160.177 17.3067 160.485 18.0533 161.027 18.576C161.587 19.08 162.268 19.332 163.071 19.332C164.265 19.332 165.096 18.828 165.563 17.82H170.659C170.397 18.8467 169.921 19.7707 169.231 20.592C168.559 21.4133 167.709 22.0573 166.683 22.524C165.656 22.9907 164.508 23.224 163.239 23.224C161.708 23.224 160.345 22.8973 159.151 22.244C157.956 21.5907 157.023 20.6573 156.351 19.444C155.679 18.2307 155.343 16.812 155.343 15.188C155.343 13.564 155.669 12.1453 156.323 10.932C156.995 9.71867 157.928 8.78533 159.123 8.132C160.317 7.47867 161.689 7.152 163.239 7.152C164.751 7.152 166.095 7.46933 167.271 8.104C168.447 8.73867 169.361 9.644 170.015 10.82C170.687 11.996 171.023 13.368 171.023 14.936ZM166.123 13.676C166.123 12.8547 165.843 12.2013 165.283 11.716C164.723 11.2307 164.023 10.988 163.183 10.988C162.38 10.988 161.699 11.2213 161.139 11.688C160.597 12.1547 160.261 12.8173 160.131 13.676H166.123ZM178.337 9.98C178.897 9.12133 179.597 8.44933 180.437 7.964C181.277 7.46 182.21 7.208 183.237 7.208V12.276H181.921C180.726 12.276 179.83 12.5373 179.233 13.06C178.635 13.564 178.337 14.46 178.337 15.748V23H173.549V7.376H178.337V9.98ZM191.881 23.224C190.518 23.224 189.305 22.9907 188.241 22.524C187.177 22.0573 186.337 21.4227 185.721 20.62C185.105 19.7987 184.76 18.884 184.685 17.876H189.417C189.473 18.4173 189.725 18.856 190.173 19.192C190.621 19.528 191.172 19.696 191.825 19.696C192.422 19.696 192.88 19.584 193.197 19.36C193.533 19.1173 193.701 18.8093 193.701 18.436C193.701 17.988 193.468 17.6613 193.001 17.456C192.534 17.232 191.778 16.9893 190.733 16.728C189.613 16.4667 188.68 16.196 187.933 15.916C187.186 15.6173 186.542 15.16 186.001 14.544C185.46 13.9093 185.189 13.06 185.189 11.996C185.189 11.1 185.432 10.288 185.917 9.56C186.421 8.81333 187.149 8.22533 188.101 7.796C189.072 7.36667 190.22 7.152 191.545 7.152C193.505 7.152 195.045 7.63733 196.165 8.608C197.304 9.57867 197.957 10.8667 198.125 12.472H193.701C193.626 11.9307 193.384 11.5013 192.973 11.184C192.581 10.8667 192.058 10.708 191.405 10.708C190.845 10.708 190.416 10.82 190.117 11.044C189.818 11.2493 189.669 11.5387 189.669 11.912C189.669 12.36 189.902 12.696 190.369 12.92C190.854 13.144 191.601 13.368 192.609 13.592C193.766 13.8907 194.709 14.1893 195.437 14.488C196.165 14.768 196.8 15.2347 197.341 15.888C197.901 16.5227 198.19 17.3813 198.209 18.464C198.209 19.3787 197.948 20.2 197.425 20.928C196.921 21.6373 196.184 22.1973 195.213 22.608C194.261 23.0187 193.15 23.224 191.881 23.224ZM214.912 11.352H212.336V23H207.548V11.352H205.812V7.376H207.548V6.928C207.548 5.00533 208.099 3.54933 209.2 2.56C210.301 1.552 211.916 1.048 214.044 1.048C214.399 1.048 214.66 1.05733 214.828 1.076V5.136C213.913 5.08 213.269 5.21067 212.896 5.528C212.523 5.84533 212.336 6.41467 212.336 7.236V7.376H214.912V11.352ZM221.95 9.98C222.51 9.12133 223.21 8.44933 224.05 7.964C224.89 7.46 225.823 7.208 226.85 7.208V12.276H225.534C224.339 12.276 223.443 12.5373 222.846 13.06C222.248 13.564 221.95 14.46 221.95 15.748V23H217.162V7.376H221.95V9.98ZM236.25 23.224C234.72 23.224 233.338 22.8973 232.106 22.244C230.893 21.5907 229.932 20.6573 229.222 19.444C228.532 18.2307 228.186 16.812 228.186 15.188C228.186 13.5827 228.541 12.1733 229.25 10.96C229.96 9.728 230.93 8.78533 232.162 8.132C233.394 7.47867 234.776 7.152 236.306 7.152C237.837 7.152 239.218 7.47867 240.45 8.132C241.682 8.78533 242.653 9.728 243.362 10.96C244.072 12.1733 244.426 13.5827 244.426 15.188C244.426 16.7933 244.062 18.212 243.334 19.444C242.625 20.6573 241.645 21.5907 240.394 22.244C239.162 22.8973 237.781 23.224 236.25 23.224ZM236.25 19.08C237.165 19.08 237.94 18.744 238.574 18.072C239.228 17.4 239.554 16.4387 239.554 15.188C239.554 13.9373 239.237 12.976 238.602 12.304C237.986 11.632 237.221 11.296 236.306 11.296C235.373 11.296 234.598 11.632 233.982 12.304C233.366 12.9573 233.058 13.9187 233.058 15.188C233.058 16.4387 233.357 17.4 233.954 18.072C234.57 18.744 235.336 19.08 236.25 19.08ZM266.902 7.208C268.844 7.208 270.384 7.796 271.522 8.972C272.68 10.148 273.258 11.7813 273.258 13.872V23H268.498V14.516C268.498 13.508 268.228 12.7333 267.686 12.192C267.164 11.632 266.436 11.352 265.502 11.352C264.569 11.352 263.832 11.632 263.29 12.192C262.768 12.7333 262.506 13.508 262.506 14.516V23H257.746V14.516C257.746 13.508 257.476 12.7333 256.934 12.192C256.412 11.632 255.684 11.352 254.75 11.352C253.817 11.352 253.08 11.632 252.538 12.192C252.016 12.7333 251.754 13.508 251.754 14.516V23H246.966V7.376H251.754V9.336C252.24 8.68267 252.874 8.16933 253.658 7.796C254.442 7.404 255.329 7.208 256.318 7.208C257.494 7.208 258.54 7.46 259.454 7.964C260.388 8.468 261.116 9.18667 261.638 10.12C262.18 9.26133 262.917 8.56133 263.85 8.02C264.784 7.47867 265.801 7.208 266.902 7.208ZM291.249 18.94V23H288.813C287.077 23 285.723 22.58 284.753 21.74C283.782 20.8813 283.297 19.4907 283.297 17.568V11.352H281.393V7.376H283.297V3.568H288.085V7.376H291.221V11.352H288.085V17.624C288.085 18.0907 288.197 18.4267 288.421 18.632C288.645 18.8373 289.018 18.94 289.541 18.94H291.249ZM303.52 7.208C305.312 7.208 306.749 7.80533 307.832 9C308.914 10.176 309.456 11.8 309.456 13.872V23H304.696V14.516C304.696 13.4707 304.425 12.6587 303.884 12.08C303.342 11.5013 302.614 11.212 301.7 11.212C300.785 11.212 300.057 11.5013 299.516 12.08C298.974 12.6587 298.704 13.4707 298.704 14.516V23H293.916V2.28H298.704V9.476C299.189 8.78533 299.852 8.23467 300.692 7.824C301.532 7.41333 302.474 7.208 303.52 7.208ZM327.511 14.936C327.511 15.384 327.483 15.8507 327.427 16.336H316.591C316.666 17.3067 316.974 18.0533 317.515 18.576C318.075 19.08 318.756 19.332 319.559 19.332C320.754 19.332 321.584 18.828 322.051 17.82H327.147C326.886 18.8467 326.41 19.7707 325.719 20.592C325.047 21.4133 324.198 22.0573 323.171 22.524C322.144 22.9907 320.996 23.224 319.727 23.224C318.196 23.224 316.834 22.8973 315.639 22.244C314.444 21.5907 313.511 20.6573 312.839 19.444C312.167 18.2307 311.831 16.812 311.831 15.188C311.831 13.564 312.158 12.1453 312.811 10.932C313.483 9.71867 314.416 8.78533 315.611 8.132C316.806 7.47867 318.178 7.152 319.727 7.152C321.239 7.152 322.583 7.46933 323.759 8.104C324.935 8.73867 325.85 9.644 326.503 10.82C327.175 11.996 327.511 13.368 327.511 14.936ZM322.611 13.676C322.611 12.8547 322.331 12.2013 321.771 11.716C321.211 11.2307 320.511 10.988 319.671 10.988C318.868 10.988 318.187 11.2213 317.627 11.688C317.086 12.1547 316.75 12.8173 316.619 13.676H322.611ZM336.393 23.224C335.03 23.224 333.817 22.9907 332.753 22.524C331.689 22.0573 330.849 21.4227 330.233 20.62C329.617 19.7987 329.271 18.884 329.197 17.876H333.929C333.985 18.4173 334.237 18.856 334.685 19.192C335.133 19.528 335.683 19.696 336.337 19.696C336.934 19.696 337.391 19.584 337.709 19.36C338.045 19.1173 338.213 18.8093 338.213 18.436C338.213 17.988 337.979 17.6613 337.513 17.456C337.046 17.232 336.29 16.9893 335.245 16.728C334.125 16.4667 333.191 16.196 332.445 15.916C331.698 15.6173 331.054 15.16 330.513 14.544C329.971 13.9093 329.701 13.06 329.701 11.996C329.701 11.1 329.943 10.288 330.429 9.56C330.933 8.81333 331.661 8.22533 332.613 7.796C333.583 7.36667 334.731 7.152 336.057 7.152C338.017 7.152 339.557 7.63733 340.677 8.608C341.815 9.57867 342.469 10.8667 342.637 12.472H338.213C338.138 11.9307 337.895 11.5013 337.485 11.184C337.093 10.8667 336.57 10.708 335.917 10.708C335.357 10.708 334.927 10.82 334.629 11.044C334.33 11.2493 334.181 11.5387 334.181 11.912C334.181 12.36 334.414 12.696 334.881 12.92C335.366 13.144 336.113 13.368 337.121 13.592C338.278 13.8907 339.221 14.1893 339.949 14.488C340.677 14.768 341.311 15.2347 341.853 15.888C342.413 16.5227 342.702 17.3813 342.721 18.464C342.721 19.3787 342.459 20.2 341.937 20.928C341.433 21.6373 340.695 22.1973 339.725 22.608C338.773 23.0187 337.662 23.224 336.393 23.224ZM360.378 14.936C360.378 15.384 360.35 15.8507 360.294 16.336H349.458C349.533 17.3067 349.841 18.0533 350.382 18.576C350.942 19.08 351.623 19.332 352.426 19.332C353.621 19.332 354.451 18.828 354.918 17.82H360.014C359.753 18.8467 359.277 19.7707 358.586 20.592C357.914 21.4133 357.065 22.0573 356.038 22.524C355.011 22.9907 353.863 23.224 352.594 23.224C351.063 23.224 349.701 22.8973 348.506 22.244C347.311 21.5907 346.378 20.6573 345.706 19.444C345.034 18.2307 344.698 16.812 344.698 15.188C344.698 13.564 345.025 12.1453 345.678 10.932C346.35 9.71867 347.283 8.78533 348.478 8.132C349.673 7.47867 351.045 7.152 352.594 7.152C354.106 7.152 355.45 7.46933 356.626 8.104C357.802 8.73867 358.717 9.644 359.37 10.82C360.042 11.996 360.378 13.368 360.378 14.936ZM355.478 13.676C355.478 12.8547 355.198 12.2013 354.638 11.716C354.078 11.2307 353.378 10.988 352.538 10.988C351.735 10.988 351.054 11.2213 350.494 11.688C349.953 12.1547 349.617 12.8173 349.486 13.676H355.478ZM375.95 23.224C374.419 23.224 373.038 22.8973 371.806 22.244C370.592 21.5907 369.631 20.6573 368.922 19.444C368.231 18.2307 367.886 16.812 367.886 15.188C367.886 13.5827 368.24 12.1733 368.95 10.96C369.659 9.728 370.63 8.78533 371.862 8.132C373.094 7.47867 374.475 7.152 376.006 7.152C377.536 7.152 378.918 7.47867 380.15 8.132C381.382 8.78533 382.352 9.728 383.062 10.96C383.771 12.1733 384.126 13.5827 384.126 15.188C384.126 16.7933 383.762 18.212 383.034 19.444C382.324 20.6573 381.344 21.5907 380.094 22.244C378.862 22.8973 377.48 23.224 375.95 23.224ZM375.95 19.08C376.864 19.08 377.639 18.744 378.274 18.072C378.927 17.4 379.254 16.4387 379.254 15.188C379.254 13.9373 378.936 12.976 378.302 12.304C377.686 11.632 376.92 11.296 376.006 11.296C375.072 11.296 374.298 11.632 373.682 12.304C373.066 12.9573 372.758 13.9187 372.758 15.188C372.758 16.4387 373.056 17.4 373.654 18.072C374.27 18.744 375.035 19.08 375.95 19.08ZM391.454 9.98C392.014 9.12133 392.714 8.44933 393.554 7.964C394.394 7.46 395.327 7.208 396.354 7.208V12.276H395.038C393.843 12.276 392.947 12.5373 392.35 13.06C391.752 13.564 391.454 14.46 391.454 15.748V23H386.666V7.376H391.454V9.98ZM404.578 7.152C405.68 7.152 406.641 7.376 407.462 7.824C408.302 8.272 408.946 8.86 409.394 9.588V7.376H414.182V22.972C414.182 24.4093 413.893 25.7067 413.314 26.864C412.754 28.04 411.886 28.9733 410.71 29.664C409.553 30.3547 408.106 30.7 406.37 30.7C404.056 30.7 402.18 30.1493 400.742 29.048C399.305 27.9653 398.484 26.4907 398.278 24.624H403.01C403.16 25.2213 403.514 25.688 404.074 26.024C404.634 26.3787 405.325 26.556 406.146 26.556C407.136 26.556 407.92 26.2667 408.498 25.688C409.096 25.128 409.394 24.2227 409.394 22.972V20.76C408.928 21.488 408.284 22.0853 407.462 22.552C406.641 23 405.68 23.224 404.578 23.224C403.29 23.224 402.124 22.8973 401.078 22.244C400.033 21.572 399.202 20.6293 398.586 19.416C397.989 18.184 397.69 16.7653 397.69 15.16C397.69 13.5547 397.989 12.1453 398.586 10.932C399.202 9.71867 400.033 8.78533 401.078 8.132C402.124 7.47867 403.29 7.152 404.578 7.152ZM409.394 15.188C409.394 13.9933 409.058 13.0507 408.386 12.36C407.733 11.6693 406.93 11.324 405.978 11.324C405.026 11.324 404.214 11.6693 403.542 12.36C402.889 13.032 402.562 13.9653 402.562 15.16C402.562 16.3547 402.889 17.3067 403.542 18.016C404.214 18.7067 405.026 19.052 405.978 19.052C406.93 19.052 407.733 18.7067 408.386 18.016C409.058 17.3253 409.394 16.3827 409.394 15.188ZM416.694 15.16C416.694 13.5547 416.993 12.1453 417.59 10.932C418.206 9.71867 419.037 8.78533 420.082 8.132C421.127 7.47867 422.294 7.152 423.582 7.152C424.683 7.152 425.645 7.376 426.466 7.824C427.306 8.272 427.95 8.86 428.398 9.588V7.376H433.186V23H428.398V20.788C427.931 21.516 427.278 22.104 426.438 22.552C425.617 23 424.655 23.224 423.554 23.224C422.285 23.224 421.127 22.8973 420.082 22.244C419.037 21.572 418.206 20.6293 417.59 19.416C416.993 18.184 416.694 16.7653 416.694 15.16ZM428.398 15.188C428.398 13.9933 428.062 13.0507 427.39 12.36C426.737 11.6693 425.934 11.324 424.982 11.324C424.03 11.324 423.218 11.6693 422.546 12.36C421.893 13.032 421.566 13.9653 421.566 15.16C421.566 16.3547 421.893 17.3067 422.546 18.016C423.218 18.7067 424.03 19.052 424.982 19.052C425.934 19.052 426.737 18.7067 427.39 18.016C428.062 17.3253 428.398 16.3827 428.398 15.188ZM446.17 7.208C447.999 7.208 449.455 7.80533 450.538 9C451.639 10.176 452.19 11.8 452.19 13.872V23H447.43V14.516C447.43 13.4707 447.159 12.6587 446.618 12.08C446.077 11.5013 445.349 11.212 444.434 11.212C443.519 11.212 442.791 11.5013 442.25 12.08C441.709 12.6587 441.438 13.4707 441.438 14.516V23H436.65V7.376H441.438V9.448C441.923 8.75733 442.577 8.216 443.398 7.824C444.219 7.41333 445.143 7.208 446.17 7.208ZM457.925 5.752C457.085 5.752 456.395 5.50933 455.853 5.024C455.331 4.52 455.069 3.904 455.069 3.176C455.069 2.42933 455.331 1.81333 455.853 1.328C456.395 0.823998 457.085 0.571998 457.925 0.571998C458.747 0.571998 459.419 0.823998 459.941 1.328C460.483 1.81333 460.753 2.42933 460.753 3.176C460.753 3.904 460.483 4.52 459.941 5.024C459.419 5.50933 458.747 5.752 457.925 5.752ZM460.305 7.376V23H455.517V7.376H460.305ZM468.255 19.052H475.031V23H462.907V19.192L469.403 11.324H462.963V7.376H474.891V11.184L468.255 19.052ZM476.714 15.16C476.714 13.5547 477.012 12.1453 477.61 10.932C478.226 9.71867 479.056 8.78533 480.102 8.132C481.147 7.47867 482.314 7.152 483.602 7.152C484.703 7.152 485.664 7.376 486.486 7.824C487.326 8.272 487.97 8.86 488.418 9.588V7.376H493.206V23H488.418V20.788C487.951 21.516 487.298 22.104 486.458 22.552C485.636 23 484.675 23.224 483.574 23.224C482.304 23.224 481.147 22.8973 480.102 22.244C479.056 21.572 478.226 20.6293 477.61 19.416C477.012 18.184 476.714 16.7653 476.714 15.16ZM488.418 15.188C488.418 13.9933 488.082 13.0507 487.41 12.36C486.756 11.6693 485.954 11.324 485.002 11.324C484.05 11.324 483.238 11.6693 482.566 12.36C481.912 13.032 481.586 13.9653 481.586 15.16C481.586 16.3547 481.912 17.3067 482.566 18.016C483.238 18.7067 484.05 19.052 485.002 19.052C485.954 19.052 486.756 18.7067 487.41 18.016C488.082 17.3253 488.418 16.3827 488.418 15.188ZM505.378 18.94V23H502.942C501.206 23 499.852 22.58 498.882 21.74C497.911 20.8813 497.426 19.4907 497.426 17.568V11.352H495.522V7.376H497.426V3.568H502.214V7.376H505.35V11.352H502.214V17.624C502.214 18.0907 502.326 18.4267 502.55 18.632C502.774 18.8373 503.147 18.94 503.67 18.94H505.378ZM510.453 5.752C509.613 5.752 508.922 5.50933 508.381 5.024C507.858 4.52 507.597 3.904 507.597 3.176C507.597 2.42933 507.858 1.81333 508.381 1.328C508.922 0.823998 509.613 0.571998 510.453 0.571998C511.274 0.571998 511.946 0.823998 512.469 1.328C513.01 1.81333 513.281 2.42933 513.281 3.176C513.281 3.904 513.01 4.52 512.469 5.024C511.946 5.50933 511.274 5.752 510.453 5.752ZM512.833 7.376V23H508.045V7.376H512.833ZM523.414 23.224C521.884 23.224 520.502 22.8973 519.27 22.244C518.057 21.5907 517.096 20.6573 516.386 19.444C515.696 18.2307 515.35 16.812 515.35 15.188C515.35 13.5827 515.705 12.1733 516.414 10.96C517.124 9.728 518.094 8.78533 519.326 8.132C520.558 7.47867 521.94 7.152 523.47 7.152C525.001 7.152 526.382 7.47867 527.614 8.132C528.846 8.78533 529.817 9.728 530.526 10.96C531.236 12.1733 531.59 13.5827 531.59 15.188C531.59 16.7933 531.226 18.212 530.498 19.444C529.789 20.6573 528.809 21.5907 527.558 22.244C526.326 22.8973 524.945 23.224 523.414 23.224ZM523.414 19.08C524.329 19.08 525.104 18.744 525.738 18.072C526.392 17.4 526.718 16.4387 526.718 15.188C526.718 13.9373 526.401 12.976 525.766 12.304C525.15 11.632 524.385 11.296 523.47 11.296C522.537 11.296 521.762 11.632 521.146 12.304C520.53 12.9573 520.222 13.9187 520.222 15.188C520.222 16.4387 520.521 17.4 521.118 18.072C521.734 18.744 522.5 19.08 523.414 19.08ZM543.651 7.208C545.48 7.208 546.936 7.80533 548.019 9C549.12 10.176 549.671 11.8 549.671 13.872V23H544.911V14.516C544.911 13.4707 544.64 12.6587 544.099 12.08C543.557 11.5013 542.829 11.212 541.915 11.212C541 11.212 540.272 11.5013 539.731 12.08C539.189 12.6587 538.919 13.4707 538.919 14.516V23H534.131V7.376H538.919V9.448C539.404 8.75733 540.057 8.216 540.879 7.824C541.7 7.41333 542.624 7.208 543.651 7.208ZM559.354 23.224C557.991 23.224 556.778 22.9907 555.714 22.524C554.65 22.0573 553.81 21.4227 553.194 20.62C552.578 19.7987 552.232 18.884 552.158 17.876H556.89C556.946 18.4173 557.198 18.856 557.646 19.192C558.094 19.528 558.644 19.696 559.298 19.696C559.895 19.696 560.352 19.584 560.67 19.36C561.006 19.1173 561.174 18.8093 561.174 18.436C561.174 17.988 560.94 17.6613 560.474 17.456C560.007 17.232 559.251 16.9893 558.206 16.728C557.086 16.4667 556.152 16.196 555.406 15.916C554.659 15.6173 554.015 15.16 553.474 14.544C552.932 13.9093 552.662 13.06 552.662 11.996C552.662 11.1 552.904 10.288 553.39 9.56C553.894 8.81333 554.622 8.22533 555.574 7.796C556.544 7.36667 557.692 7.152 559.018 7.152C560.978 7.152 562.518 7.63733 563.638 8.608C564.776 9.57867 565.43 10.8667 565.598 12.472H561.174C561.099 11.9307 560.856 11.5013 560.446 11.184C560.054 10.8667 559.531 10.708 558.878 10.708C558.318 10.708 557.888 10.82 557.59 11.044C557.291 11.2493 557.142 11.5387 557.142 11.912C557.142 12.36 557.375 12.696 557.842 12.92C558.327 13.144 559.074 13.368 560.082 13.592C561.239 13.8907 562.182 14.1893 562.91 14.488C563.638 14.768 564.272 15.2347 564.814 15.888C565.374 16.5227 565.663 17.3813 565.682 18.464C565.682 19.3787 565.42 20.2 564.898 20.928C564.394 21.6373 563.656 22.1973 562.686 22.608C561.734 23.0187 560.623 23.224 559.354 23.224Z" fill="url(#paint0_linear)"/>
<defs>
<linearGradient id="paint0_linear" x1="311.4" y1="-29.2315" x2="311.82" y2="86.0299" gradientUnits="userSpaceOnUse">
<stop stop-color="#FD749B"/>
<stop offset="1" stop-color="#281AC8"/>
</linearGradient>
</defs>
</svg>
