<svg width="11" height="11" viewBox="0 0 11 11" fill="none" xmlns="http://www.w3.org/2000/svg">
<mask id="mask0" mask-type="alpha" maskUnits="userSpaceOnUse" x="0" y="0" width="11" height="11">
<path d="M5.35265 11C8.24021 11 10.581 8.66632 10.581 5.78756C10.581 2.90879 8.24021 0.575043 5.35265 0.575043C2.46509 0.575043 0.124268 2.90879 0.124268 5.78756C0.124268 8.66632 2.46509 11 5.35265 11Z" fill="url(#paint0_linear)"/>
</mask>
<g mask="url(#mask0)">
<path d="M5.35265 11C8.24021 11 10.581 8.66632 10.581 5.78756C10.581 2.90879 8.24021 0.575043 5.35265 0.575043C2.46509 0.575043 0.124268 2.90879 0.124268 5.78756C0.124268 8.66632 2.46509 11 5.35265 11Z" fill="url(#paint1_linear)"/>
</g>
<defs>
<linearGradient id="paint0_linear" x1="3.04399" y1="0.0159506" x2="-68.3576" y2="-181.788" gradientUnits="userSpaceOnUse">
<stop/>
<stop offset="1" stop-color="white"/>
</linearGradient>
<linearGradient id="paint1_linear" x1="3.04399" y1="0.0159506" x2="-68.3576" y2="-181.788" gradientUnits="userSpaceOnUse">
<stop stop-color="#97C3F9"/>
<stop offset="1" stop-color="#93C1F9"/>
</linearGradient>
</defs>
</svg>
