<svg width="11" height="11" viewBox="0 0 11 11" fill="none" xmlns="http://www.w3.org/2000/svg">
<mask id="mask0" mask-type="alpha" maskUnits="userSpaceOnUse" x="0" y="0" width="11" height="11">
<path d="M5.5094 10.5958C8.39695 10.5958 10.7378 8.26214 10.7378 5.38339C10.7378 2.50464 8.39695 0.170959 5.5094 0.170959C2.62184 0.170959 0.281006 2.50464 0.281006 5.38339C0.281006 8.26214 2.62184 10.5958 5.5094 10.5958Z" fill="url(#paint0_linear)"/>
</mask>
<g mask="url(#mask0)">
<path d="M5.5094 10.5958C8.39695 10.5958 10.7378 8.26214 10.7378 5.38339C10.7378 2.50464 8.39695 0.170959 5.5094 0.170959C2.62184 0.170959 0.281006 2.50464 0.281006 5.38339C0.281006 8.26214 2.62184 10.5958 5.5094 10.5958Z" fill="url(#paint1_linear)"/>
</g>
<defs>
<linearGradient id="paint0_linear" x1="55.2771" y1="131.303" x2="-16.1233" y2="-50.4991" gradientUnits="userSpaceOnUse">
<stop stop-color="white"/>
<stop offset="1" stop-color="white"/>
</linearGradient>
<linearGradient id="paint1_linear" x1="55.2771" y1="131.303" x2="-16.1233" y2="-50.4991" gradientUnits="userSpaceOnUse">
<stop stop-color="white"/>
<stop offset="1" stop-color="white"/>
</linearGradient>
</defs>
</svg>
