<svg width="11" height="11" viewBox="0 0 11 11" fill="none" xmlns="http://www.w3.org/2000/svg">
<mask id="mask0" mask-type="alpha" maskUnits="userSpaceOnUse" x="0" y="0" width="11" height="11">
<path d="M5.35265 11C8.24021 11 10.581 8.66629 10.581 5.78752C10.581 2.90876 8.24021 0.575012 5.35265 0.575012C2.46509 0.575012 0.124268 2.90876 0.124268 5.78752C0.124268 8.66629 2.46509 11 5.35265 11Z" fill="url(#paint0_linear)"/>
</mask>
<g mask="url(#mask0)">
<path d="M5.35265 11C8.24021 11 10.581 8.66629 10.581 5.78752C10.581 2.90876 8.24021 0.575012 5.35265 0.575012C2.46509 0.575012 0.124268 2.90876 0.124268 5.78752C0.124268 8.66629 2.46509 11 5.35265 11Z" fill="url(#paint1_linear)"/>
</g>
<defs>
<linearGradient id="paint0_linear" x1="55.1203" y1="131.709" x2="-16.2813" y2="-50.095" gradientUnits="userSpaceOnUse">
<stop stop-color="white"/>
<stop offset="1" stop-color="white"/>
</linearGradient>
<linearGradient id="paint1_linear" x1="55.1203" y1="131.709" x2="-16.2813" y2="-50.095" gradientUnits="userSpaceOnUse">
<stop stop-color="white"/>
<stop offset="1" stop-color="white"/>
</linearGradient>
</defs>
</svg>
