<svg width="12" height="11" viewBox="0 0 12 11" fill="none" xmlns="http://www.w3.org/2000/svg">
<mask id="mask0" mask-type="alpha" maskUnits="userSpaceOnUse" x="0" y="0" width="12" height="11">
<path d="M6.07166 10.7125C8.95922 10.7125 11.3 8.37877 11.3 5.49999C11.3 2.62121 8.95922 0.287506 6.07166 0.287506C3.1841 0.287506 0.843262 2.62121 0.843262 5.49999C0.843262 8.37877 3.1841 10.7125 6.07166 10.7125Z" fill="url(#paint0_linear)"/>
</mask>
<g mask="url(#mask0)">
<path d="M6.07166 10.7125C8.95922 10.7125 11.3 8.37877 11.3 5.49999C11.3 2.62121 8.95922 0.287506 6.07166 0.287506C3.1841 0.287506 0.843262 2.62121 0.843262 5.49999C0.843262 8.37877 3.1841 10.7125 6.07166 10.7125Z" fill="url(#paint1_linear)"/>
</g>
<defs>
<linearGradient id="paint0_linear" x1="25.7244" y1="55.2833" x2="-45.6772" y2="-126.52" gradientUnits="userSpaceOnUse">
<stop/>
<stop offset="1" stop-color="white"/>
</linearGradient>
<linearGradient id="paint1_linear" x1="25.7244" y1="55.2833" x2="-45.6772" y2="-126.52" gradientUnits="userSpaceOnUse">
<stop stop-color="#97C3F9"/>
<stop offset="1" stop-color="#93C1F9"/>
</linearGradient>
</defs>
</svg>
