<svg width="11" height="11" viewBox="0 0 11 11" fill="none" xmlns="http://www.w3.org/2000/svg">
<mask id="mask0" mask-type="alpha" maskUnits="userSpaceOnUse" x="0" y="0" width="11" height="11">
<path d="M5.22838 11C8.11594 11 10.4568 8.66632 10.4568 5.78756C10.4568 2.90879 8.11594 0.575043 5.22838 0.575043C2.34082 0.575043 0 2.90879 0 5.78756C0 8.66632 2.34082 11 5.22838 11Z" fill="url(#paint0_linear)"/>
</mask>
<g mask="url(#mask0)">
<path d="M5.22838 11C8.11594 11 10.4568 8.66632 10.4568 5.78756C10.4568 2.90879 8.11594 0.575043 5.22838 0.575043C2.34082 0.575043 0 2.90879 0 5.78756C0 8.66632 2.34082 11 5.22838 11Z" fill="url(#paint1_linear)"/>
</g>
<defs>
<linearGradient id="paint0_linear" x1="19.2266" y1="41.1818" x2="-52.1751" y2="-140.622" gradientUnits="userSpaceOnUse">
<stop/>
<stop offset="1" stop-color="white"/>
</linearGradient>
<linearGradient id="paint1_linear" x1="19.2266" y1="41.1818" x2="-52.1751" y2="-140.622" gradientUnits="userSpaceOnUse">
<stop stop-color="#97C3F9"/>
<stop offset="1" stop-color="#93C1F9"/>
</linearGradient>
</defs>
</svg>
