<svg width="11" height="11" viewBox="0 0 11 11" fill="none" xmlns="http://www.w3.org/2000/svg">
<mask id="mask0" mask-type="alpha" maskUnits="userSpaceOnUse" x="0" y="0" width="11" height="11">
<path d="M5.35265 10.7125C8.24021 10.7125 10.581 8.37877 10.581 5.49999C10.581 2.62121 8.24021 0.287506 5.35265 0.287506C2.46509 0.287506 0.124268 2.62121 0.124268 5.49999C0.124268 8.37877 2.46509 10.7125 5.35265 10.7125Z" fill="url(#paint0_linear)"/>
</mask>
<g mask="url(#mask0)">
<path d="M5.35265 10.7125C8.24021 10.7125 10.581 8.37877 10.581 5.49999C10.581 2.62121 8.24021 0.287506 5.35265 0.287506C2.46509 0.287506 0.124268 2.62121 0.124268 5.49999C0.124268 8.37877 2.46509 10.7125 5.35265 10.7125Z" fill="url(#paint1_linear)"/>
</g>
<defs>
<linearGradient id="paint0_linear" x1="20.9287" y1="44.9919" x2="-50.4729" y2="-136.812" gradientUnits="userSpaceOnUse">
<stop/>
<stop offset="1" stop-color="white"/>
</linearGradient>
<linearGradient id="paint1_linear" x1="20.9287" y1="44.9919" x2="-50.4729" y2="-136.812" gradientUnits="userSpaceOnUse">
<stop stop-color="#97C3F9"/>
<stop offset="1" stop-color="#93C1F9"/>
</linearGradient>
</defs>
</svg>
