<svg width="11" height="11" viewBox="0 0 11 11" fill="none" xmlns="http://www.w3.org/2000/svg">
<mask id="mask0" mask-type="alpha" maskUnits="userSpaceOnUse" x="0" y="0" width="11" height="11">
<path d="M5.22838 10.7125C8.11594 10.7125 10.4568 8.37877 10.4568 5.49999C10.4568 2.62121 8.11594 0.287506 5.22838 0.287506C2.34082 0.287506 0 2.62121 0 5.49999C0 8.37877 2.34082 10.7125 5.22838 10.7125Z" fill="url(#paint0_linear)"/>
</mask>
<g mask="url(#mask0)">
<path d="M5.22838 10.7125C8.11594 10.7125 10.4568 8.37877 10.4568 5.49999C10.4568 2.62121 8.11594 0.287506 5.22838 0.287506C2.34082 0.287506 0 2.62121 0 5.49999C0 8.37877 2.34082 10.7125 5.22838 10.7125Z" fill="url(#paint1_linear)"/>
</g>
<defs>
<linearGradient id="paint0_linear" x1="37.1113" y1="86.158" x2="-34.2903" y2="-95.6458" gradientUnits="userSpaceOnUse">
<stop/>
<stop offset="1" stop-color="white"/>
</linearGradient>
<linearGradient id="paint1_linear" x1="37.1113" y1="86.158" x2="-34.2903" y2="-95.6458" gradientUnits="userSpaceOnUse">
<stop stop-color="#97C3F9"/>
<stop offset="1" stop-color="#93C1F9"/>
</linearGradient>
</defs>
</svg>
