<svg width="12" height="11" viewBox="0 0 12 11" fill="none" xmlns="http://www.w3.org/2000/svg">
<mask id="mask0" mask-type="alpha" maskUnits="userSpaceOnUse" x="0" y="0" width="12" height="11">
<path d="M5.7904 10.8834C8.67796 10.8834 11.0188 8.54964 11.0188 5.67088C11.0188 2.79212 8.67796 0.458435 5.7904 0.458435C2.90284 0.458435 0.562012 2.79212 0.562012 5.67088C0.562012 8.54964 2.90284 10.8834 5.7904 10.8834Z" fill="url(#paint0_linear)"/>
</mask>
<g mask="url(#mask0)">
<path d="M5.7904 10.8834C8.67796 10.8834 11.0188 8.54964 11.0188 5.67088C11.0188 2.79212 8.67796 0.458435 5.7904 0.458435C2.90284 0.458435 0.562012 2.79212 0.562012 5.67088C0.562012 8.54964 2.90284 10.8834 5.7904 10.8834Z" fill="url(#paint1_linear)"/>
</g>
<defs>
<linearGradient id="paint0_linear" x1="55.5581" y1="131.592" x2="-15.8435" y2="-50.2116" gradientUnits="userSpaceOnUse">
<stop stop-color="white"/>
<stop offset="1" stop-color="white"/>
</linearGradient>
<linearGradient id="paint1_linear" x1="55.5581" y1="131.592" x2="-15.8435" y2="-50.2116" gradientUnits="userSpaceOnUse">
<stop stop-color="white"/>
<stop offset="1" stop-color="white"/>
</linearGradient>
</defs>
</svg>
