<svg width="12" height="11" viewBox="0 0 12 11" fill="none" xmlns="http://www.w3.org/2000/svg">
<mask id="mask0" mask-type="alpha" maskUnits="userSpaceOnUse" x="0" y="0" width="12" height="11">
<path d="M6.07166 11C8.95922 11 11.3 8.66629 11.3 5.78752C11.3 2.90876 8.95922 0.575012 6.07166 0.575012C3.1841 0.575012 0.843262 2.90876 0.843262 5.78752C0.843262 8.66629 3.1841 11 6.07166 11Z" fill="url(#paint0_linear)"/>
</mask>
<g mask="url(#mask0)">
<path d="M6.07166 11C8.95922 11 11.3 8.66629 11.3 5.78752C11.3 2.90876 8.95922 0.575012 6.07166 0.575012C3.1841 0.575012 0.843262 2.90876 0.843262 5.78752C0.843262 8.66629 3.1841 11 6.07166 11Z" fill="url(#paint1_linear)"/>
</g>
<defs>
<linearGradient id="paint0_linear" x1="55.8393" y1="131.709" x2="-15.5623" y2="-50.095" gradientUnits="userSpaceOnUse">
<stop stop-color="white"/>
<stop offset="1" stop-color="white"/>
</linearGradient>
<linearGradient id="paint1_linear" x1="55.8393" y1="131.709" x2="-15.5623" y2="-50.095" gradientUnits="userSpaceOnUse">
<stop stop-color="white"/>
<stop offset="1" stop-color="white"/>
</linearGradient>
</defs>
</svg>
