<svg width="12" height="11" viewBox="0 0 12 11" fill="none" xmlns="http://www.w3.org/2000/svg">
<mask id="mask0" mask-type="alpha" maskUnits="userSpaceOnUse" x="0" y="0" width="12" height="11">
<path d="M6.07166 10.5958C8.95922 10.5958 11.3 8.26214 11.3 5.38339C11.3 2.50464 8.95922 0.170959 6.07166 0.170959C3.1841 0.170959 0.843262 2.50464 0.843262 5.38339C0.843262 8.26214 3.1841 10.5958 6.07166 10.5958Z" fill="url(#paint0_linear)"/>
</mask>
<g mask="url(#mask0)">
<path d="M6.07166 10.5958C8.95922 10.5958 11.3 8.26214 11.3 5.38339C11.3 2.50464 8.95922 0.170959 6.07166 0.170959C3.1841 0.170959 0.843262 2.50464 0.843262 5.38339C0.843262 8.26214 3.1841 10.5958 6.07166 10.5958Z" fill="url(#paint1_linear)"/>
</g>
<defs>
<linearGradient id="paint0_linear" x1="34.6668" y1="77.7708" x2="-36.7336" y2="-104.032" gradientUnits="userSpaceOnUse">
<stop/>
<stop offset="1" stop-color="white"/>
</linearGradient>
<linearGradient id="paint1_linear" x1="34.6668" y1="77.7708" x2="-36.7336" y2="-104.032" gradientUnits="userSpaceOnUse">
<stop stop-color="#97C3F9"/>
<stop offset="1" stop-color="#93C1F9"/>
</linearGradient>
</defs>
</svg>
