<svg width="11" height="11" viewBox="0 0 11 11" fill="none" xmlns="http://www.w3.org/2000/svg">
<mask id="mask0" mask-type="alpha" maskUnits="userSpaceOnUse" x="0" y="0" width="11" height="11">
<path d="M5.35265 10.5958C8.24021 10.5958 10.581 8.26214 10.581 5.38339C10.581 2.50464 8.24021 0.170959 5.35265 0.170959C2.46509 0.170959 0.124268 2.50464 0.124268 5.38339C0.124268 8.26214 2.46509 10.5958 5.35265 10.5958Z" fill="url(#paint0_linear)"/>
</mask>
<g mask="url(#mask0)">
<path d="M5.35265 10.5958C8.24021 10.5958 10.581 8.26214 10.581 5.38339C10.581 2.50464 8.24021 0.170959 5.35265 0.170959C2.46509 0.170959 0.124268 2.50464 0.124268 5.38339C0.124268 8.26214 2.46509 10.5958 5.35265 10.5958Z" fill="url(#paint1_linear)"/>
</g>
<defs>
<linearGradient id="paint0_linear" x1="29.8711" y1="67.4794" x2="-41.5293" y2="-114.323" gradientUnits="userSpaceOnUse">
<stop/>
<stop offset="1" stop-color="white"/>
</linearGradient>
<linearGradient id="paint1_linear" x1="29.8711" y1="67.4794" x2="-41.5293" y2="-114.323" gradientUnits="userSpaceOnUse">
<stop stop-color="#97C3F9"/>
<stop offset="1" stop-color="#93C1F9"/>
</linearGradient>
</defs>
</svg>
