<svg width="11" height="11" viewBox="0 0 11 11" fill="none" xmlns="http://www.w3.org/2000/svg">
<mask id="mask0" mask-type="alpha" maskUnits="userSpaceOnUse" x="0" y="0" width="11" height="11">
<path d="M5.5094 11C8.39695 11 10.7378 8.66629 10.7378 5.78752C10.7378 2.90876 8.39695 0.575012 5.5094 0.575012C2.62184 0.575012 0.281006 2.90876 0.281006 5.78752C0.281006 8.66629 2.62184 11 5.5094 11Z" fill="url(#paint0_linear)"/>
</mask>
<g mask="url(#mask0)">
<path d="M5.5094 11C8.39695 11 10.7378 8.66629 10.7378 5.78752C10.7378 2.90876 8.39695 0.575012 5.5094 0.575012C2.62184 0.575012 0.281006 2.90876 0.281006 5.78752C0.281006 8.66629 2.62184 11 5.5094 11Z" fill="url(#paint1_linear)"/>
</g>
<defs>
<linearGradient id="paint0_linear" x1="55.2771" y1="131.709" x2="-16.1246" y2="-50.095" gradientUnits="userSpaceOnUse">
<stop stop-color="white"/>
<stop offset="1" stop-color="white"/>
</linearGradient>
<linearGradient id="paint1_linear" x1="55.2771" y1="131.709" x2="-16.1246" y2="-50.095" gradientUnits="userSpaceOnUse">
<stop stop-color="white"/>
<stop offset="1" stop-color="white"/>
</linearGradient>
</defs>
</svg>
