<svg width="12" height="11" viewBox="0 0 12 11" fill="none" xmlns="http://www.w3.org/2000/svg">
<mask id="mask0" mask-type="alpha" maskUnits="userSpaceOnUse" x="0" y="0" width="12" height="11">
<path d="M6.07166 10.8834C8.95922 10.8834 11.3 8.54964 11.3 5.67088C11.3 2.79212 8.95922 0.458435 6.07166 0.458435C3.1841 0.458435 0.843262 2.79212 0.843262 5.67088C0.843262 8.54964 3.1841 10.8834 6.07166 10.8834Z" fill="url(#paint0_linear)"/>
</mask>
<g mask="url(#mask0)">
<path d="M6.07166 10.8834C8.95922 10.8834 11.3 8.54964 11.3 5.67088C11.3 2.79212 8.95922 0.458435 6.07166 0.458435C3.1841 0.458435 0.843262 2.79212 0.843262 5.67088C0.843262 8.54964 3.1841 10.8834 6.07166 10.8834Z" fill="url(#paint1_linear)"/>
</g>
<defs>
<linearGradient id="paint0_linear" x1="55.8393" y1="131.592" x2="-15.5623" y2="-50.2116" gradientUnits="userSpaceOnUse">
<stop stop-color="white"/>
<stop offset="1" stop-color="white"/>
</linearGradient>
<linearGradient id="paint1_linear" x1="55.8393" y1="131.592" x2="-15.5623" y2="-50.2116" gradientUnits="userSpaceOnUse">
<stop stop-color="white"/>
<stop offset="1" stop-color="white"/>
</linearGradient>
</defs>
</svg>
