<svg width="12" height="11" viewBox="0 0 12 11" fill="none" xmlns="http://www.w3.org/2000/svg">
<mask id="mask0" mask-type="alpha" maskUnits="userSpaceOnUse" x="0" y="0" width="12" height="11">
<path d="M5.7904 10.7125C8.67796 10.7125 11.0188 8.3788 11.0188 5.50002C11.0188 2.62124 8.67796 0.287537 5.7904 0.287537C2.90284 0.287537 0.562012 2.62124 0.562012 5.50002C0.562012 8.3788 2.90284 10.7125 5.7904 10.7125Z" fill="url(#paint0_linear)"/>
</mask>
<g mask="url(#mask0)">
<path d="M5.7904 10.7125C8.67796 10.7125 11.0188 8.3788 11.0188 5.50002C11.0188 2.62124 8.67796 0.287537 5.7904 0.287537C2.90284 0.287537 0.562012 2.62124 0.562012 5.50002C0.562012 8.3788 2.90284 10.7125 5.7904 10.7125Z" fill="url(#paint1_linear)"/>
</g>
<defs>
<linearGradient id="paint0_linear" x1="55.5581" y1="131.421" x2="-15.8435" y2="-50.3825" gradientUnits="userSpaceOnUse">
<stop stop-color="white"/>
<stop offset="1" stop-color="white"/>
</linearGradient>
<linearGradient id="paint1_linear" x1="55.5581" y1="131.421" x2="-15.8435" y2="-50.3825" gradientUnits="userSpaceOnUse">
<stop stop-color="white"/>
<stop offset="1" stop-color="white"/>
</linearGradient>
</defs>
</svg>
