<svg width="11" height="11" viewBox="0 0 11 11" fill="none" xmlns="http://www.w3.org/2000/svg">
<mask id="mask0" mask-type="alpha" maskUnits="userSpaceOnUse" x="0" y="0" width="11" height="11">
<path d="M5.5094 10.7125C8.39695 10.7125 10.7378 8.37877 10.7378 5.49999C10.7378 2.62121 8.39695 0.287506 5.5094 0.287506C2.62184 0.287506 0.281006 2.62121 0.281006 5.49999C0.281006 8.37877 2.62184 10.7125 5.5094 10.7125Z" fill="url(#paint0_linear)"/>
</mask>
<g mask="url(#mask0)">
<path d="M5.5094 10.7125C8.39695 10.7125 10.7378 8.37877 10.7378 5.49999C10.7378 2.62121 8.39695 0.287506 5.5094 0.287506C2.62184 0.287506 0.281006 2.62121 0.281006 5.49999C0.281006 8.37877 2.62184 10.7125 5.5094 10.7125Z" fill="url(#paint1_linear)"/>
</g>
<defs>
<linearGradient id="paint0_linear" x1="33.3157" y1="75.8664" x2="-38.086" y2="-105.937" gradientUnits="userSpaceOnUse">
<stop/>
<stop offset="1" stop-color="white"/>
</linearGradient>
<linearGradient id="paint1_linear" x1="33.3157" y1="75.8664" x2="-38.086" y2="-105.937" gradientUnits="userSpaceOnUse">
<stop stop-color="#97C3F9"/>
<stop offset="1" stop-color="#93C1F9"/>
</linearGradient>
</defs>
</svg>
