<svg width="12" height="11" viewBox="0 0 12 11" fill="none" xmlns="http://www.w3.org/2000/svg">
<mask id="mask0" mask-type="alpha" maskUnits="userSpaceOnUse" x="0" y="0" width="12" height="11">
<path d="M5.7904 10.5958C8.67796 10.5958 11.0188 8.26214 11.0188 5.38339C11.0188 2.50464 8.67796 0.170959 5.7904 0.170959C2.90284 0.170959 0.562012 2.50464 0.562012 5.38339C0.562012 8.26214 2.90284 10.5958 5.7904 10.5958Z" fill="url(#paint0_linear)"/>
</mask>
<g mask="url(#mask0)">
<path d="M5.7904 10.5958C8.67796 10.5958 11.0188 8.26214 11.0188 5.38339C11.0188 2.50464 8.67796 0.170959 5.7904 0.170959C2.90284 0.170959 0.562012 2.50464 0.562012 5.38339C0.562012 8.26214 2.90284 10.5958 5.7904 10.5958Z" fill="url(#paint1_linear)"/>
</g>
<defs>
<linearGradient id="paint0_linear" x1="55.5581" y1="131.303" x2="-15.8423" y2="-50.4991" gradientUnits="userSpaceOnUse">
<stop stop-color="white"/>
<stop offset="1" stop-color="white"/>
</linearGradient>
<linearGradient id="paint1_linear" x1="55.5581" y1="131.303" x2="-15.8423" y2="-50.4991" gradientUnits="userSpaceOnUse">
<stop stop-color="white"/>
<stop offset="1" stop-color="white"/>
</linearGradient>
</defs>
</svg>
