<svg width="12" height="11" viewBox="0 0 12 11" fill="none" xmlns="http://www.w3.org/2000/svg">
<mask id="mask0" mask-type="alpha" maskUnits="userSpaceOnUse" x="0" y="0" width="12" height="11">
<path d="M5.79052 11C8.67808 11 11.0189 8.66632 11.0189 5.78756C11.0189 2.90879 8.67808 0.575043 5.79052 0.575043C2.90297 0.575043 0.562134 2.90879 0.562134 5.78756C0.562134 8.66632 2.90297 11 5.79052 11Z" fill="url(#paint0_linear)"/>
</mask>
<g mask="url(#mask0)">
<path d="M5.79052 11C8.67808 11 11.0189 8.66632 11.0189 5.78756C11.0189 2.90879 8.67808 0.575043 5.79052 0.575043C2.90297 0.575043 0.562134 2.90879 0.562134 5.78756C0.562134 8.66632 2.90297 11 5.79052 11Z" fill="url(#paint1_linear)"/>
</g>
<defs>
<linearGradient id="paint0_linear" x1="11.6353" y1="20.5989" x2="-59.7663" y2="-161.205" gradientUnits="userSpaceOnUse">
<stop/>
<stop offset="1" stop-color="white"/>
</linearGradient>
<linearGradient id="paint1_linear" x1="11.6353" y1="20.5989" x2="-59.7663" y2="-161.205" gradientUnits="userSpaceOnUse">
<stop stop-color="#97C3F9"/>
<stop offset="1" stop-color="#93C1F9"/>
</linearGradient>
</defs>
</svg>
