<svg width="11" height="11" viewBox="0 0 11 11" fill="none" xmlns="http://www.w3.org/2000/svg">
<mask id="mask0" mask-type="alpha" maskUnits="userSpaceOnUse" x="0" y="0" width="11" height="11">
<path d="M5.22838 10.8834C8.11594 10.8834 10.4568 8.54964 10.4568 5.67088C10.4568 2.79212 8.11594 0.458435 5.22838 0.458435C2.34082 0.458435 0 2.79212 0 5.67088C0 8.54964 2.34082 10.8834 5.22838 10.8834Z" fill="url(#paint0_linear)"/>
</mask>
<g mask="url(#mask0)">
<path d="M5.22838 10.8834C8.11594 10.8834 10.4568 8.54964 10.4568 5.67088C10.4568 2.79212 8.11594 0.458435 5.22838 0.458435C2.34082 0.458435 0 2.79212 0 5.67088C0 8.54964 2.34082 10.8834 5.22838 10.8834Z" fill="url(#paint1_linear)"/>
</g>
<defs>
<linearGradient id="paint0_linear" x1="28.169" y1="63.67" x2="-43.2327" y2="-118.134" gradientUnits="userSpaceOnUse">
<stop/>
<stop offset="1" stop-color="white"/>
</linearGradient>
<linearGradient id="paint1_linear" x1="28.169" y1="63.67" x2="-43.2327" y2="-118.134" gradientUnits="userSpaceOnUse">
<stop stop-color="#97C3F9"/>
<stop offset="1" stop-color="#93C1F9"/>
</linearGradient>
</defs>
</svg>
