<svg width="12" height="11" viewBox="0 0 12 11" fill="none" xmlns="http://www.w3.org/2000/svg">
<mask id="mask0" mask-type="alpha" maskUnits="userSpaceOnUse" x="0" y="0" width="12" height="11">
<path d="M5.79052 10.7125C8.67808 10.7125 11.0189 8.37877 11.0189 5.49999C11.0189 2.62121 8.67808 0.287506 5.79052 0.287506C2.90297 0.287506 0.562134 2.62121 0.562134 5.49999C0.562134 8.37877 2.90297 10.7125 5.79052 10.7125Z" fill="url(#paint0_linear)"/>
</mask>
<g mask="url(#mask0)">
<path d="M5.79052 10.7125C8.67808 10.7125 11.0189 8.37877 11.0189 5.49999C11.0189 2.62121 8.67808 0.287506 5.79052 0.287506C2.90297 0.287506 0.562134 2.62121 0.562134 5.49999C0.562134 8.37877 2.90297 10.7125 5.79052 10.7125Z" fill="url(#paint1_linear)"/>
</g>
<defs>
<linearGradient id="paint0_linear" x1="29.5201" y1="65.5749" x2="-41.8815" y2="-116.229" gradientUnits="userSpaceOnUse">
<stop/>
<stop offset="1" stop-color="white"/>
</linearGradient>
<linearGradient id="paint1_linear" x1="29.5201" y1="65.5749" x2="-41.8815" y2="-116.229" gradientUnits="userSpaceOnUse">
<stop stop-color="#97C3F9"/>
<stop offset="1" stop-color="#93C1F9"/>
</linearGradient>
</defs>
</svg>
