<svg width="11" height="11" viewBox="0 0 11 11" fill="none" xmlns="http://www.w3.org/2000/svg">
<mask id="mask0" mask-type="alpha" maskUnits="userSpaceOnUse" x="0" y="0" width="11" height="11">
<path d="M5.35265 10.7125C8.24021 10.7125 10.581 8.3788 10.581 5.50002C10.581 2.62124 8.24021 0.287537 5.35265 0.287537C2.46509 0.287537 0.124268 2.62124 0.124268 5.50002C0.124268 8.3788 2.46509 10.7125 5.35265 10.7125Z" fill="url(#paint0_linear)"/>
</mask>
<g mask="url(#mask0)">
<path d="M5.35265 10.7125C8.24021 10.7125 10.581 8.3788 10.581 5.50002C10.581 2.62124 8.24021 0.287537 5.35265 0.287537C2.46509 0.287537 0.124268 2.62124 0.124268 5.50002C0.124268 8.3788 2.46509 10.7125 5.35265 10.7125Z" fill="url(#paint1_linear)"/>
</g>
<defs>
<linearGradient id="paint0_linear" x1="55.1203" y1="131.421" x2="-16.2813" y2="-50.3825" gradientUnits="userSpaceOnUse">
<stop stop-color="white"/>
<stop offset="1" stop-color="white"/>
</linearGradient>
<linearGradient id="paint1_linear" x1="55.1203" y1="131.421" x2="-16.2813" y2="-50.3825" gradientUnits="userSpaceOnUse">
<stop stop-color="white"/>
<stop offset="1" stop-color="white"/>
</linearGradient>
</defs>
</svg>
