<svg width="11" height="11" viewBox="0 0 11 11" fill="none" xmlns="http://www.w3.org/2000/svg">
<mask id="mask0" mask-type="alpha" maskUnits="userSpaceOnUse" x="0" y="0" width="11" height="11">
<path d="M5.5094 10.7125C8.39695 10.7125 10.7378 8.3788 10.7378 5.50002C10.7378 2.62124 8.39695 0.287537 5.5094 0.287537C2.62184 0.287537 0.281006 2.62124 0.281006 5.50002C0.281006 8.3788 2.62184 10.7125 5.5094 10.7125Z" fill="url(#paint0_linear)"/>
</mask>
<g mask="url(#mask0)">
<path d="M5.5094 10.7125C8.39695 10.7125 10.7378 8.3788 10.7378 5.50002C10.7378 2.62124 8.39695 0.287537 5.5094 0.287537C2.62184 0.287537 0.281006 2.62124 0.281006 5.50002C0.281006 8.3788 2.62184 10.7125 5.5094 10.7125Z" fill="url(#paint1_linear)"/>
</g>
<defs>
<linearGradient id="paint0_linear" x1="55.2771" y1="131.421" x2="-16.1246" y2="-50.3825" gradientUnits="userSpaceOnUse">
<stop stop-color="white"/>
<stop offset="1" stop-color="white"/>
</linearGradient>
<linearGradient id="paint1_linear" x1="55.2771" y1="131.421" x2="-16.1246" y2="-50.3825" gradientUnits="userSpaceOnUse">
<stop stop-color="white"/>
<stop offset="1" stop-color="white"/>
</linearGradient>
</defs>
</svg>
