<svg width="12" height="11" viewBox="0 0 12 11" fill="none" xmlns="http://www.w3.org/2000/svg">
<mask id="mask0" mask-type="alpha" maskUnits="userSpaceOnUse" x="0" y="0" width="12" height="11">
<path d="M5.7904 10.425C8.67796 10.425 11.0188 8.09121 11.0188 5.21245C11.0188 2.33368 8.67796 0 5.7904 0C2.90284 0 0.562012 2.33368 0.562012 5.21245C0.562012 8.09121 2.90284 10.425 5.7904 10.425Z" fill="url(#paint0_linear)"/>
</mask>
<g mask="url(#mask0)">
<path d="M5.7904 10.425C8.67796 10.425 11.0188 8.09121 11.0188 5.21245C11.0188 2.33368 8.67796 0 5.7904 0C2.90284 0 0.562012 2.33368 0.562012 5.21245C0.562012 8.09121 2.90284 10.425 5.7904 10.425Z" fill="url(#paint1_linear)"/>
</g>
<defs>
<linearGradient id="paint0_linear" x1="55.5581" y1="131.134" x2="-15.8435" y2="-50.67" gradientUnits="userSpaceOnUse">
<stop stop-color="white"/>
<stop offset="1" stop-color="white"/>
</linearGradient>
<linearGradient id="paint1_linear" x1="55.5581" y1="131.134" x2="-15.8435" y2="-50.67" gradientUnits="userSpaceOnUse">
<stop stop-color="white"/>
<stop offset="1" stop-color="white"/>
</linearGradient>
</defs>
</svg>
