<svg width="12" height="11" viewBox="0 0 12 11" fill="none" xmlns="http://www.w3.org/2000/svg">
<mask id="mask0" mask-type="alpha" maskUnits="userSpaceOnUse" x="0" y="0" width="12" height="11">
<path d="M5.79052 10.425C8.67808 10.425 11.0189 8.09121 11.0189 5.21245C11.0189 2.33368 8.67808 0 5.79052 0C2.90297 0 0.562134 2.33368 0.562134 5.21245C0.562134 8.09121 2.90297 10.425 5.79052 10.425Z" fill="url(#paint0_linear)"/>
</mask>
<g mask="url(#mask0)">
<path d="M5.79052 10.425C8.67808 10.425 11.0189 8.09121 11.0189 5.21245C11.0189 2.33368 8.67808 0 5.79052 0C2.90297 0 0.562134 2.33368 0.562134 5.21245C0.562134 8.09121 2.90297 10.425 5.79052 10.425Z" fill="url(#paint1_linear)"/>
</g>
<defs>
<linearGradient id="paint0_linear" x1="47.4049" y1="110.551" x2="-23.9967" y2="-71.2526" gradientUnits="userSpaceOnUse">
<stop/>
<stop offset="1" stop-color="white"/>
</linearGradient>
<linearGradient id="paint1_linear" x1="47.4049" y1="110.551" x2="-23.9967" y2="-71.2526" gradientUnits="userSpaceOnUse">
<stop stop-color="#97C3F9"/>
<stop offset="1" stop-color="#93C1F9"/>
</linearGradient>
</defs>
</svg>
