<svg width="11" height="11" viewBox="0 0 11 11" fill="none" xmlns="http://www.w3.org/2000/svg">
<mask id="mask0" mask-type="alpha" maskUnits="userSpaceOnUse" x="0" y="0" width="11" height="11">
<path d="M5.22838 11C8.11594 11 10.4568 8.66629 10.4568 5.78752C10.4568 2.90876 8.11594 0.575012 5.22838 0.575012C2.34082 0.575012 0 2.90876 0 5.78752C0 8.66629 2.34082 11 5.22838 11Z" fill="url(#paint0_linear)"/>
</mask>
<g mask="url(#mask0)">
<path d="M5.22838 11C8.11594 11 10.4568 8.66629 10.4568 5.78752C10.4568 2.90876 8.11594 0.575012 5.22838 0.575012C2.34082 0.575012 0 2.90876 0 5.78752C0 8.66629 2.34082 11 5.22838 11Z" fill="url(#paint1_linear)"/>
</g>
<defs>
<linearGradient id="paint0_linear" x1="54.996" y1="131.709" x2="-16.4057" y2="-50.095" gradientUnits="userSpaceOnUse">
<stop stop-color="white"/>
<stop offset="1" stop-color="white"/>
</linearGradient>
<linearGradient id="paint1_linear" x1="54.996" y1="131.709" x2="-16.4057" y2="-50.095" gradientUnits="userSpaceOnUse">
<stop stop-color="white"/>
<stop offset="1" stop-color="white"/>
</linearGradient>
</defs>
</svg>
