<svg width="11" height="11" viewBox="0 0 11 11" fill="none" xmlns="http://www.w3.org/2000/svg">
<mask id="mask0" mask-type="alpha" maskUnits="userSpaceOnUse" x="0" y="0" width="11" height="11">
<path d="M5.5094 10.8834C8.39695 10.8834 10.7378 8.54964 10.7378 5.67088C10.7378 2.79212 8.39695 0.458435 5.5094 0.458435C2.62184 0.458435 0.281006 2.79212 0.281006 5.67088C0.281006 8.54964 2.62184 10.8834 5.5094 10.8834Z" fill="url(#paint0_linear)"/>
</mask>
<g mask="url(#mask0)">
<path d="M5.5094 10.8834C8.39695 10.8834 10.7378 8.54964 10.7378 5.67088C10.7378 2.79212 8.39695 0.458435 5.5094 0.458435C2.62184 0.458435 0.281006 2.79212 0.281006 5.67088C0.281006 8.54964 2.62184 10.8834 5.5094 10.8834Z" fill="url(#paint1_linear)"/>
</g>
<defs>
<linearGradient id="paint0_linear" x1="24.3733" y1="53.3785" x2="-47.0284" y2="-128.425" gradientUnits="userSpaceOnUse">
<stop/>
<stop offset="1" stop-color="white"/>
</linearGradient>
<linearGradient id="paint1_linear" x1="24.3733" y1="53.3785" x2="-47.0284" y2="-128.425" gradientUnits="userSpaceOnUse">
<stop stop-color="#97C3F9"/>
<stop offset="1" stop-color="#93C1F9"/>
</linearGradient>
</defs>
</svg>
