<svg width="13" height="12" viewBox="0 0 13 12" fill="none" xmlns="http://www.w3.org/2000/svg">
<path d="M6.37905 10.9408L4.17905 11.8408C3.67905 12.0408 3.07905 11.8408 2.87905 11.3408C2.77905 11.1408 2.77905 11.0408 2.77905 10.8408L2.97905 8.44082C2.97905 8.14082 2.87905 7.94082 2.77905 7.74082L1.17905 5.94082C0.879054 5.54082 0.879054 4.84082 1.27905 4.54082C1.47905 4.44082 1.57905 4.34082 1.77905 4.34082L4.07905 3.84082C4.37905 3.74082 4.57905 3.64082 4.67905 3.34082L5.87905 1.34082C6.17905 0.84082 6.77905 0.74082 7.27905 1.04082C7.37905 1.14082 7.57905 1.24082 7.57905 1.34082L8.77905 3.34082C8.87905 3.54082 9.17905 3.74082 9.37905 3.84082L11.7791 4.34082C12.2791 4.44082 12.6791 5.04082 12.4791 5.54082C12.4791 5.74082 12.3791 5.84082 12.2791 5.94082L10.7791 7.74082C10.5791 7.94082 10.4791 8.24082 10.5791 8.44082L10.7791 10.8408C10.7791 11.4408 10.3791 11.8408 9.87905 11.9408C9.67905 11.9408 9.57905 11.9408 9.37905 11.8408L7.17905 10.9408C6.87905 10.8408 6.67905 10.8408 6.37905 10.9408Z" fill="url(#paint0_linear)"/>
<defs>
<linearGradient id="paint0_linear" x1="7.32675" y1="-0.870233" x2="7.92441" y2="18.7395" gradientUnits="userSpaceOnUse">
<stop stop-color="#FD749B"/>
<stop offset="1" stop-color="#281AC8"/>
</linearGradient>
</defs>
</svg>
