<svg width="13" height="12" viewBox="0 0 13 12" fill="none" xmlns="http://www.w3.org/2000/svg">
<path d="M6.06265 10.9408L3.86265 11.8408C3.36265 12.0408 2.76265 11.8408 2.56265 11.3408C2.46265 11.1408 2.46265 11.0408 2.46265 10.8408L2.66265 8.44082C2.66265 8.14082 2.56265 7.94082 2.46265 7.74082L0.862648 5.94082C0.562648 5.54082 0.562648 4.84082 0.962648 4.54082C1.16265 4.44082 1.26265 4.34082 1.46265 4.34082L3.76265 3.84082C4.06265 3.74082 4.26265 3.64082 4.36265 3.34082L5.56265 1.34082C5.86265 0.84082 6.46265 0.74082 6.96265 1.04082C7.06265 1.14082 7.26265 1.24082 7.26265 1.34082L8.46265 3.34082C8.56265 3.54082 8.86265 3.74082 9.06265 3.84082L11.4626 4.34082C11.9626 4.44082 12.3626 5.04082 12.1626 5.54082C12.1626 5.74082 12.0626 5.84082 11.9626 5.94082L10.4626 7.74082C10.2626 7.94082 10.1626 8.24082 10.2626 8.44082L10.4626 10.8408C10.4626 11.4408 10.0626 11.8408 9.56265 11.9408C9.36265 11.9408 9.26265 11.9408 9.06265 11.8408L6.86265 10.9408C6.56265 10.8408 6.36265 10.8408 6.06265 10.9408Z" fill="url(#paint0_linear)"/>
<defs>
<linearGradient id="paint0_linear" x1="7.01035" y1="-0.870233" x2="7.60801" y2="18.7395" gradientUnits="userSpaceOnUse">
<stop stop-color="#FD749B"/>
<stop offset="1" stop-color="#281AC8"/>
</linearGradient>
</defs>
</svg>
