<svg width="12" height="12" viewBox="0 0 12 12" fill="none" xmlns="http://www.w3.org/2000/svg">
<path d="M5.74624 10.9408L3.54624 11.8408C3.04624 12.0408 2.44624 11.8408 2.24624 11.3408C2.14624 11.1408 2.14624 11.0408 2.14624 10.8408L2.34624 8.44082C2.34624 8.14082 2.24624 7.94082 2.14624 7.74082L0.546241 5.94082C0.246241 5.54082 0.246241 4.84082 0.646241 4.54082C0.846241 4.44082 0.946241 4.34082 1.14624 4.34082L3.44624 3.84082C3.74624 3.74082 3.94624 3.64082 4.04624 3.34082L5.24624 1.34082C5.54624 0.84082 6.14624 0.74082 6.64624 1.04082C6.74624 1.14082 6.94624 1.24082 6.94624 1.34082L8.14624 3.34082C8.24624 3.54082 8.54624 3.74082 8.74624 3.84082L11.1462 4.34082C11.6462 4.44082 12.0462 5.04082 11.8462 5.54082C11.8462 5.74082 11.7462 5.84082 11.6462 5.94082L10.1462 7.74082C9.94624 7.94082 9.84624 8.24082 9.94624 8.44082L10.1462 10.8408C10.1462 11.4408 9.74624 11.8408 9.24624 11.9408C9.04624 11.9408 8.94624 11.9408 8.74624 11.8408L6.54624 10.9408C6.24624 10.8408 6.04624 10.8408 5.74624 10.9408Z" fill="url(#paint0_linear)"/>
<defs>
<linearGradient id="paint0_linear" x1="6.69394" y1="-0.870233" x2="7.2916" y2="18.7395" gradientUnits="userSpaceOnUse">
<stop stop-color="#FD749B"/>
<stop offset="1" stop-color="#281AC8"/>
</linearGradient>
</defs>
</svg>
