<svg width="13" height="12" viewBox="0 0 13 12" fill="none" xmlns="http://www.w3.org/2000/svg">
<path d="M6.01187 10.9408L3.81187 11.8408C3.31187 12.0408 2.71187 11.8408 2.51187 11.3408C2.41187 11.1408 2.41187 11.0408 2.41187 10.8408L2.61187 8.44082C2.61187 8.14082 2.51187 7.94082 2.41187 7.74082L0.811866 5.94082C0.511866 5.54082 0.511866 4.84082 0.911866 4.54082C1.11187 4.44082 1.21187 4.34082 1.41187 4.34082L3.71187 3.84082C4.01187 3.74082 4.21187 3.64082 4.31187 3.34082L5.51187 1.34082C5.81187 0.84082 6.41187 0.74082 6.91187 1.04082C7.01187 1.14082 7.21187 1.24082 7.21187 1.34082L8.41187 3.34082C8.51187 3.54082 8.81187 3.74082 9.01187 3.84082L11.4119 4.34082C11.9119 4.44082 12.3119 5.04082 12.1119 5.54082C12.1119 5.74082 12.0119 5.84082 11.9119 5.94082L10.4119 7.74082C10.2119 7.94082 10.1119 8.24082 10.2119 8.44082L10.4119 10.8408C10.4119 11.4408 10.0119 11.8408 9.51187 11.9408C9.31187 11.9408 9.21187 11.9408 9.01187 11.8408L6.81187 10.9408C6.51187 10.8408 6.31187 10.8408 6.01187 10.9408Z" fill="url(#paint0_linear)"/>
<defs>
<linearGradient id="paint0_linear" x1="6.95957" y1="-0.870233" x2="7.55723" y2="18.7395" gradientUnits="userSpaceOnUse">
<stop stop-color="#FD749B"/>
<stop offset="1" stop-color="#281AC8"/>
</linearGradient>
</defs>
</svg>
