<svg width="12" height="12" viewBox="0 0 12 12" fill="none" xmlns="http://www.w3.org/2000/svg">
<path d="M5.69546 10.9408L3.49546 11.8408C2.99546 12.0408 2.39546 11.8408 2.19546 11.3408C2.09546 11.1408 2.09546 11.0408 2.09546 10.8408L2.29546 8.44082C2.29546 8.14082 2.19546 7.94082 2.09546 7.74082L0.49546 5.94082C0.19546 5.54082 0.19546 4.84082 0.59546 4.54082C0.79546 4.44082 0.89546 4.34082 1.09546 4.34082L3.39546 3.84082C3.69546 3.74082 3.89546 3.64082 3.99546 3.34082L5.19546 1.34082C5.49546 0.84082 6.09546 0.74082 6.59546 1.04082C6.69546 1.14082 6.89546 1.24082 6.89546 1.34082L8.09546 3.34082C8.19546 3.54082 8.49546 3.74082 8.69546 3.84082L11.0955 4.34082C11.5955 4.44082 11.9955 5.04082 11.7955 5.54082C11.7955 5.74082 11.6955 5.84082 11.5955 5.94082L10.0955 7.74082C9.89546 7.94082 9.79546 8.24082 9.89546 8.44082L10.0955 10.8408C10.0955 11.4408 9.69546 11.8408 9.19546 11.9408C8.99546 11.9408 8.89546 11.9408 8.69546 11.8408L6.49546 10.9408C6.19546 10.8408 5.99546 10.8408 5.69546 10.9408Z" fill="url(#paint0_linear)"/>
<defs>
<linearGradient id="paint0_linear" x1="6.64316" y1="-0.870233" x2="7.24082" y2="18.7395" gradientUnits="userSpaceOnUse">
<stop stop-color="#FD749B"/>
<stop offset="1" stop-color="#281AC8"/>
</linearGradient>
</defs>
</svg>
