<svg width="216" height="29" viewBox="0 0 216 29" fill="none" xmlns="http://www.w3.org/2000/svg">
<path d="M13.973 17.528H6.63698L5.46098 21H0.448977L7.56098 1.344H13.105L20.217 21H15.149L13.973 17.528ZM12.741 13.832L10.305 6.636L7.89698 13.832H12.741ZM27.1695 7.588C27.6175 6.86 28.2615 6.272 29.1015 5.824C29.9415 5.376 30.9028 5.152 31.9855 5.152C33.2735 5.152 34.4402 5.47867 35.4855 6.132C36.5308 6.78533 37.3522 7.71867 37.9495 8.932C38.5655 10.1453 38.8735 11.5547 38.8735 13.16C38.8735 14.7653 38.5655 16.184 37.9495 17.416C37.3522 18.6293 36.5308 19.572 35.4855 20.244C34.4402 20.8973 33.2735 21.224 31.9855 21.224C30.8842 21.224 29.9228 21.0093 29.1015 20.58C28.2802 20.132 27.6362 19.544 27.1695 18.816V21H22.3815V0.28H27.1695V7.588ZM34.0015 13.16C34.0015 11.9653 33.6655 11.032 32.9935 10.36C32.3402 9.66933 31.5282 9.324 30.5575 9.324C29.6055 9.324 28.7935 9.66933 28.1215 10.36C27.4682 11.0507 27.1415 11.9933 27.1415 13.188C27.1415 14.3827 27.4682 15.3253 28.1215 16.016C28.7935 16.7067 29.6055 17.052 30.5575 17.052C31.5095 17.052 32.3215 16.7067 32.9935 16.016C33.6655 15.3067 34.0015 14.3547 34.0015 13.16ZM48.4974 21.224C46.9667 21.224 45.5854 20.8973 44.3534 20.244C43.1401 19.5907 42.1787 18.6573 41.4694 17.444C40.7787 16.2307 40.4334 14.812 40.4334 13.188C40.4334 11.5827 40.7881 10.1733 41.4974 8.96C42.2067 7.728 43.1774 6.78533 44.4094 6.132C45.6414 5.47867 47.0227 5.152 48.5534 5.152C50.0841 5.152 51.4654 5.47867 52.6974 6.132C53.9294 6.78533 54.9001 7.728 55.6094 8.96C56.3187 10.1733 56.6734 11.5827 56.6734 13.188C56.6734 14.7933 56.3094 16.212 55.5814 17.444C54.8721 18.6573 53.8921 19.5907 52.6414 20.244C51.4094 20.8973 50.0281 21.224 48.4974 21.224ZM48.4974 17.08C49.4121 17.08 50.1867 16.744 50.8214 16.072C51.4747 15.4 51.8014 14.4387 51.8014 13.188C51.8014 11.9373 51.4841 10.976 50.8494 10.304C50.2334 9.632 49.4681 9.296 48.5534 9.296C47.6201 9.296 46.8454 9.632 46.2294 10.304C45.6134 10.9573 45.3054 11.9187 45.3054 13.188C45.3054 14.4387 45.6041 15.4 46.2014 16.072C46.8174 16.744 47.5827 17.08 48.4974 17.08ZM74.6415 5.376V21H69.8535V18.872C69.3682 19.5627 68.7055 20.1227 67.8655 20.552C67.0442 20.9627 66.1295 21.168 65.1215 21.168C63.9269 21.168 62.8722 20.9067 61.9575 20.384C61.0429 19.8427 60.3335 19.068 59.8295 18.06C59.3255 17.052 59.0735 15.8667 59.0735 14.504V5.376H63.8335V13.86C63.8335 14.9053 64.1042 15.7173 64.6455 16.296C65.1869 16.8747 65.9149 17.164 66.8295 17.164C67.7629 17.164 68.5002 16.8747 69.0415 16.296C69.5829 15.7173 69.8535 14.9053 69.8535 13.86V5.376H74.6415ZM86.7887 16.94V21H84.3527C82.6167 21 81.2634 20.58 80.2927 19.74C79.3221 18.8813 78.8367 17.4907 78.8367 15.568V9.352H76.9327V5.376H78.8367V1.568H83.6247V5.376H86.7607V9.352H83.6247V15.624C83.6247 16.0907 83.7367 16.4267 83.9607 16.632C84.1847 16.8373 84.5581 16.94 85.0807 16.94H86.7887ZM102.501 21.196C101.064 21.196 99.776 20.9627 98.6373 20.496C97.4987 20.0293 96.584 19.3387 95.8933 18.424C95.2213 17.5093 94.8667 16.408 94.8293 15.12H99.9253C100 15.848 100.252 16.408 100.681 16.8C101.111 17.1733 101.671 17.36 102.361 17.36C103.071 17.36 103.631 17.2013 104.041 16.884C104.452 16.548 104.657 16.0907 104.657 15.512C104.657 15.0267 104.489 14.6253 104.153 14.308C103.836 13.9907 103.435 13.7293 102.949 13.524C102.483 13.3187 101.811 13.0853 100.933 12.824C99.664 12.432 98.628 12.04 97.8253 11.648C97.0227 11.256 96.332 10.6773 95.7533 9.912C95.1747 9.14667 94.8853 8.148 94.8853 6.916C94.8853 5.08667 95.548 3.65867 96.8733 2.632C98.1987 1.58667 99.9253 1.064 102.053 1.064C104.219 1.064 105.964 1.58667 107.289 2.632C108.615 3.65867 109.324 5.096 109.417 6.944H104.237C104.2 6.30933 103.967 5.81467 103.537 5.46C103.108 5.08667 102.557 4.9 101.885 4.9C101.307 4.9 100.84 5.05867 100.485 5.376C100.131 5.67467 99.9533 6.11333 99.9533 6.692C99.9533 7.32667 100.252 7.82133 100.849 8.176C101.447 8.53067 102.38 8.91333 103.649 9.324C104.919 9.75333 105.945 10.164 106.729 10.556C107.532 10.948 108.223 11.5173 108.801 12.264C109.38 13.0107 109.669 13.972 109.669 15.148C109.669 16.268 109.38 17.2853 108.801 18.2C108.241 19.1147 107.42 19.8427 106.337 20.384C105.255 20.9253 103.976 21.196 102.501 21.196ZM117.404 7.588C117.871 6.86 118.515 6.272 119.336 5.824C120.157 5.376 121.119 5.152 122.22 5.152C123.508 5.152 124.675 5.47867 125.72 6.132C126.765 6.78533 127.587 7.71867 128.184 8.932C128.8 10.1453 129.108 11.5547 129.108 13.16C129.108 14.7653 128.8 16.184 128.184 17.416C127.587 18.6293 126.765 19.572 125.72 20.244C124.675 20.8973 123.508 21.224 122.22 21.224C121.137 21.224 120.176 21 119.336 20.552C118.515 20.104 117.871 19.5253 117.404 18.816V28.448H112.616V5.376H117.404V7.588ZM124.236 13.16C124.236 11.9653 123.9 11.032 123.228 10.36C122.575 9.66933 121.763 9.324 120.792 9.324C119.84 9.324 119.028 9.66933 118.356 10.36C117.703 11.0507 117.376 11.9933 117.376 13.188C117.376 14.3827 117.703 15.3253 118.356 16.016C119.028 16.7067 119.84 17.052 120.792 17.052C121.744 17.052 122.556 16.7067 123.228 16.016C123.9 15.3067 124.236 14.3547 124.236 13.16ZM146.348 12.936C146.348 13.384 146.32 13.8507 146.264 14.336H135.428C135.502 15.3067 135.81 16.0533 136.352 16.576C136.912 17.08 137.593 17.332 138.396 17.332C139.59 17.332 140.421 16.828 140.888 15.82H145.984C145.722 16.8467 145.246 17.7707 144.556 18.592C143.884 19.4133 143.034 20.0573 142.008 20.524C140.981 20.9907 139.833 21.224 138.564 21.224C137.033 21.224 135.67 20.8973 134.476 20.244C133.281 19.5907 132.348 18.6573 131.676 17.444C131.004 16.2307 130.668 14.812 130.668 13.188C130.668 11.564 130.994 10.1453 131.648 8.932C132.32 7.71867 133.253 6.78533 134.448 6.132C135.642 5.47867 137.014 5.152 138.564 5.152C140.076 5.152 141.42 5.46933 142.596 6.104C143.772 6.73867 144.686 7.644 145.34 8.82C146.012 9.996 146.348 11.368 146.348 12.936ZM141.448 11.676C141.448 10.8547 141.168 10.2013 140.608 9.716C140.048 9.23067 139.348 8.988 138.508 8.988C137.705 8.988 137.024 9.22133 136.464 9.688C135.922 10.1547 135.586 10.8173 135.456 11.676H141.448ZM147.922 13.16C147.922 11.5547 148.22 10.1453 148.818 8.932C149.434 7.71867 150.264 6.78533 151.31 6.132C152.355 5.47867 153.522 5.152 154.81 5.152C155.911 5.152 156.872 5.376 157.694 5.824C158.534 6.272 159.178 6.86 159.626 7.588V5.376H164.414V21H159.626V18.788C159.159 19.516 158.506 20.104 157.666 20.552C156.844 21 155.883 21.224 154.782 21.224C153.512 21.224 152.355 20.8973 151.31 20.244C150.264 19.572 149.434 18.6293 148.818 17.416C148.22 16.184 147.922 14.7653 147.922 13.16ZM159.626 13.188C159.626 11.9933 159.29 11.0507 158.618 10.36C157.964 9.66933 157.162 9.324 156.21 9.324C155.258 9.324 154.446 9.66933 153.774 10.36C153.12 11.032 152.794 11.9653 152.794 13.16C152.794 14.3547 153.12 15.3067 153.774 16.016C154.446 16.7067 155.258 17.052 156.21 17.052C157.162 17.052 157.964 16.7067 158.618 16.016C159.29 15.3253 159.626 14.3827 159.626 13.188ZM177.426 21L172.666 14.448V21H167.878V0.28H172.666V11.732L177.398 5.376H183.306L176.81 13.216L183.362 21H177.426ZM189.974 5.18V9.156H196.386V12.852H189.974V17.164H197.226V21H185.186V1.344H197.226V5.18H189.974ZM199.383 13.16C199.383 11.5547 199.681 10.1453 200.279 8.932C200.895 7.71867 201.725 6.78533 202.771 6.132C203.816 5.47867 204.983 5.152 206.271 5.152C207.297 5.152 208.231 5.36667 209.071 5.796C209.929 6.22533 210.601 6.804 211.087 7.532V0.28H215.875V21H211.087V18.76C210.639 19.5067 209.995 20.104 209.155 20.552C208.333 21 207.372 21.224 206.271 21.224C204.983 21.224 203.816 20.8973 202.771 20.244C201.725 19.572 200.895 18.6293 200.279 17.416C199.681 16.184 199.383 14.7653 199.383 13.16ZM211.087 13.188C211.087 11.9933 210.751 11.0507 210.079 10.36C209.425 9.66933 208.623 9.324 207.671 9.324C206.719 9.324 205.907 9.66933 205.235 10.36C204.581 11.032 204.255 11.9653 204.255 13.16C204.255 14.3547 204.581 15.3067 205.235 16.016C205.907 16.7067 206.719 17.052 207.671 17.052C208.623 17.052 209.425 16.7067 210.079 16.016C210.751 15.3253 211.087 14.3827 211.087 13.188Z" fill="url(#paint0_linear)"/>
<defs>
<linearGradient id="paint0_linear" x1="119.901" y1="-18.2315" x2="120.995" y2="97.021" gradientUnits="userSpaceOnUse">
<stop stop-color="#FD749B"/>
<stop offset="1" stop-color="#281AC8"/>
</linearGradient>
</defs>
</svg>
