<svg width="357" height="24" viewBox="0 0 357 24" fill="none" xmlns="http://www.w3.org/2000/svg">
<path d="M7.67222 23.196C6.23489 23.196 4.94689 22.9627 3.80822 22.496C2.66955 22.0293 1.75489 21.3387 1.06422 20.424C0.392219 19.5093 0.0375522 18.408 0.000218838 17.12H5.09622C5.17089 17.848 5.42289 18.408 5.85222 18.8C6.28155 19.1733 6.84155 19.36 7.53222 19.36C8.24155 19.36 8.80155 19.2013 9.21222 18.884C9.62289 18.548 9.82822 18.0907 9.82822 17.512C9.82822 17.0267 9.66022 16.6253 9.32422 16.308C9.00689 15.9907 8.60555 15.7293 8.12022 15.524C7.65355 15.3187 6.98155 15.0853 6.10422 14.824C4.83489 14.432 3.79889 14.04 2.99622 13.648C2.19355 13.256 1.50289 12.6773 0.924219 11.912C0.345552 11.1467 0.0562188 10.148 0.0562188 8.916C0.0562188 7.08667 0.718886 5.65867 2.04422 4.632C3.36955 3.58667 5.09622 3.064 7.22422 3.064C9.38955 3.064 11.1349 3.58667 12.4602 4.632C13.7856 5.65867 14.4949 7.096 14.5882 8.944H9.40822C9.37089 8.30933 9.13755 7.81467 8.70822 7.46C8.27889 7.08667 7.72822 6.9 7.05622 6.9C6.47755 6.9 6.01089 7.05867 5.65622 7.376C5.30155 7.67467 5.12422 8.11333 5.12422 8.692C5.12422 9.32667 5.42289 9.82133 6.02022 10.176C6.61755 10.5307 7.55089 10.9133 8.82022 11.324C10.0896 11.7533 11.1162 12.164 11.9002 12.556C12.7029 12.948 13.3936 13.5173 13.9722 14.264C14.5509 15.0107 14.8402 15.972 14.8402 17.148C14.8402 18.268 14.5509 19.2853 13.9722 20.2C13.4122 21.1147 12.5909 21.8427 11.5082 22.384C10.4256 22.9253 9.14689 23.196 7.67222 23.196ZM33.2148 7.376V23H28.4268V20.872C27.9414 21.5627 27.2788 22.1227 26.4388 22.552C25.6174 22.9627 24.7028 23.168 23.6948 23.168C22.5001 23.168 21.4454 22.9067 20.5308 22.384C19.6161 21.8427 18.9068 21.068 18.4028 20.06C17.8988 19.052 17.6468 17.8667 17.6468 16.504V7.376H22.4068V15.86C22.4068 16.9053 22.6774 17.7173 23.2188 18.296C23.7601 18.8747 24.4881 19.164 25.4028 19.164C26.3361 19.164 27.0734 18.8747 27.6148 18.296C28.1561 17.7173 28.4268 16.9053 28.4268 15.86V7.376H33.2148ZM41.442 9.588C41.89 8.86 42.534 8.272 43.374 7.824C44.214 7.376 45.1753 7.152 46.258 7.152C47.546 7.152 48.7126 7.47867 49.758 8.132C50.8033 8.78533 51.6246 9.71867 52.222 10.932C52.838 12.1453 53.146 13.5547 53.146 15.16C53.146 16.7653 52.838 18.184 52.222 19.416C51.6246 20.6293 50.8033 21.572 49.758 22.244C48.7126 22.8973 47.546 23.224 46.258 23.224C45.1566 23.224 44.1953 23.0093 43.374 22.58C42.5526 22.132 41.9086 21.544 41.442 20.816V23H36.654V2.28H41.442V9.588ZM48.274 15.16C48.274 13.9653 47.938 13.032 47.266 12.36C46.6126 11.6693 45.8006 11.324 44.83 11.324C43.878 11.324 43.066 11.6693 42.394 12.36C41.7406 13.0507 41.414 13.9933 41.414 15.188C41.414 16.3827 41.7406 17.3253 42.394 18.016C43.066 18.7067 43.878 19.052 44.83 19.052C45.782 19.052 46.594 18.7067 47.266 18.016C47.938 17.3067 48.274 16.3547 48.274 15.16ZM62.0139 23.224C60.6512 23.224 59.4379 22.9907 58.3739 22.524C57.3099 22.0573 56.4699 21.4227 55.8539 20.62C55.2379 19.7987 54.8925 18.884 54.8179 17.876H59.5499C59.6059 18.4173 59.8579 18.856 60.3059 19.192C60.7539 19.528 61.3045 19.696 61.9579 19.696C62.5552 19.696 63.0125 19.584 63.3299 19.36C63.6659 19.1173 63.8339 18.8093 63.8339 18.436C63.8339 17.988 63.6005 17.6613 63.1339 17.456C62.6672 17.232 61.9112 16.9893 60.8659 16.728C59.7459 16.4667 58.8125 16.196 58.0659 15.916C57.3192 15.6173 56.6752 15.16 56.1339 14.544C55.5925 13.9093 55.3219 13.06 55.3219 11.996C55.3219 11.1 55.5645 10.288 56.0499 9.56C56.5539 8.81333 57.2819 8.22533 58.2339 7.796C59.2045 7.36667 60.3525 7.152 61.6779 7.152C63.6379 7.152 65.1779 7.63733 66.2979 8.608C67.4365 9.57867 68.0899 10.8667 68.2579 12.472H63.8339C63.7592 11.9307 63.5165 11.5013 63.1059 11.184C62.7139 10.8667 62.1912 10.708 61.5379 10.708C60.9779 10.708 60.5485 10.82 60.2499 11.044C59.9512 11.2493 59.8019 11.5387 59.8019 11.912C59.8019 12.36 60.0352 12.696 60.5019 12.92C60.9872 13.144 61.7339 13.368 62.7419 13.592C63.8992 13.8907 64.8419 14.1893 65.5699 14.488C66.2979 14.768 66.9325 15.2347 67.4739 15.888C68.0339 16.5227 68.3232 17.3813 68.3419 18.464C68.3419 19.3787 68.0805 20.2 67.5579 20.928C67.0539 21.6373 66.3165 22.1973 65.3459 22.608C64.3939 23.0187 63.2832 23.224 62.0139 23.224ZM70.3192 15.188C70.3192 13.564 70.6458 12.1453 71.2992 10.932C71.9712 9.71867 72.8952 8.78533 74.0712 8.132C75.2658 7.47867 76.6285 7.152 78.1592 7.152C80.1192 7.152 81.7525 7.66533 83.0592 8.692C84.3845 9.71867 85.2525 11.1653 85.6632 13.032H80.5672C80.1378 11.8373 79.3072 11.24 78.0752 11.24C77.1978 11.24 76.4978 11.5853 75.9752 12.276C75.4525 12.948 75.1912 13.9187 75.1912 15.188C75.1912 16.4573 75.4525 17.4373 75.9752 18.128C76.4978 18.8 77.1978 19.136 78.0752 19.136C79.3072 19.136 80.1378 18.5387 80.5672 17.344H85.6632C85.2525 19.1733 84.3845 20.6107 83.0592 21.656C81.7338 22.7013 80.1005 23.224 78.1592 23.224C76.6285 23.224 75.2658 22.8973 74.0712 22.244C72.8952 21.5907 71.9712 20.6573 71.2992 19.444C70.6458 18.2307 70.3192 16.812 70.3192 15.188ZM93.0123 9.98C93.5723 9.12133 94.2723 8.44933 95.1123 7.964C95.9523 7.46 96.8856 7.208 97.9123 7.208V12.276H96.5963C95.4016 12.276 94.5056 12.5373 93.9083 13.06C93.3109 13.564 93.0123 14.46 93.0123 15.748V23H88.2243V7.376H93.0123V9.98ZM102.609 5.752C101.769 5.752 101.078 5.50933 100.537 5.024C100.014 4.52 99.7528 3.904 99.7528 3.176C99.7528 2.42933 100.014 1.81333 100.537 1.328C101.078 0.823998 101.769 0.571998 102.609 0.571998C103.43 0.571998 104.102 0.823998 104.625 1.328C105.166 1.81333 105.437 2.42933 105.437 3.176C105.437 3.904 105.166 4.52 104.625 5.024C104.102 5.50933 103.43 5.752 102.609 5.752ZM104.989 7.376V23H100.201V7.376H104.989ZM113.247 9.588C113.695 8.86 114.339 8.272 115.179 7.824C116.019 7.376 116.98 7.152 118.063 7.152C119.351 7.152 120.517 7.47867 121.563 8.132C122.608 8.78533 123.429 9.71867 124.027 10.932C124.643 12.1453 124.951 13.5547 124.951 15.16C124.951 16.7653 124.643 18.184 124.027 19.416C123.429 20.6293 122.608 21.572 121.563 22.244C120.517 22.8973 119.351 23.224 118.063 23.224C116.961 23.224 116 23.0093 115.179 22.58C114.357 22.132 113.713 21.544 113.247 20.816V23H108.459V2.28H113.247V9.588ZM120.079 15.16C120.079 13.9653 119.743 13.032 119.071 12.36C118.417 11.6693 117.605 11.324 116.635 11.324C115.683 11.324 114.871 11.6693 114.199 12.36C113.545 13.0507 113.219 13.9933 113.219 15.188C113.219 16.3827 113.545 17.3253 114.199 18.016C114.871 18.7067 115.683 19.052 116.635 19.052C117.587 19.052 118.399 18.7067 119.071 18.016C119.743 17.3067 120.079 16.3547 120.079 15.16ZM142.191 14.936C142.191 15.384 142.163 15.8507 142.107 16.336H131.271C131.345 17.3067 131.653 18.0533 132.195 18.576C132.755 19.08 133.436 19.332 134.239 19.332C135.433 19.332 136.264 18.828 136.731 17.82H141.827C141.565 18.8467 141.089 19.7707 140.399 20.592C139.727 21.4133 138.877 22.0573 137.851 22.524C136.824 22.9907 135.676 23.224 134.407 23.224C132.876 23.224 131.513 22.8973 130.319 22.244C129.124 21.5907 128.191 20.6573 127.519 19.444C126.847 18.2307 126.511 16.812 126.511 15.188C126.511 13.564 126.837 12.1453 127.491 10.932C128.163 9.71867 129.096 8.78533 130.291 8.132C131.485 7.47867 132.857 7.152 134.407 7.152C135.919 7.152 137.263 7.46933 138.439 8.104C139.615 8.73867 140.529 9.644 141.183 10.82C141.855 11.996 142.191 13.368 142.191 14.936ZM137.291 13.676C137.291 12.8547 137.011 12.2013 136.451 11.716C135.891 11.2307 135.191 10.988 134.351 10.988C133.548 10.988 132.867 11.2213 132.307 11.688C131.765 12.1547 131.429 12.8173 131.299 13.676H137.291ZM157.762 23.224C156.231 23.224 154.85 22.8973 153.618 22.244C152.405 21.5907 151.443 20.6573 150.734 19.444C150.043 18.2307 149.698 16.812 149.698 15.188C149.698 13.5827 150.053 12.1733 150.762 10.96C151.471 9.728 152.442 8.78533 153.674 8.132C154.906 7.47867 156.287 7.152 157.818 7.152C159.349 7.152 160.73 7.47867 161.962 8.132C163.194 8.78533 164.165 9.728 164.874 10.96C165.583 12.1733 165.938 13.5827 165.938 15.188C165.938 16.7933 165.574 18.212 164.846 19.444C164.137 20.6573 163.157 21.5907 161.906 22.244C160.674 22.8973 159.293 23.224 157.762 23.224ZM157.762 19.08C158.677 19.08 159.451 18.744 160.086 18.072C160.739 17.4 161.066 16.4387 161.066 15.188C161.066 13.9373 160.749 12.976 160.114 12.304C159.498 11.632 158.733 11.296 157.818 11.296C156.885 11.296 156.11 11.632 155.494 12.304C154.878 12.9573 154.57 13.9187 154.57 15.188C154.57 16.4387 154.869 17.4 155.466 18.072C156.082 18.744 156.847 19.08 157.762 19.08ZM183.906 7.376V23H179.118V20.872C178.633 21.5627 177.97 22.1227 177.13 22.552C176.309 22.9627 175.394 23.168 174.386 23.168C173.192 23.168 172.137 22.9067 171.222 22.384C170.308 21.8427 169.598 21.068 169.094 20.06C168.59 19.052 168.338 17.8667 168.338 16.504V7.376H173.098V15.86C173.098 16.9053 173.369 17.7173 173.91 18.296C174.452 18.8747 175.18 19.164 176.094 19.164C177.028 19.164 177.765 18.8747 178.306 18.296C178.848 17.7173 179.118 16.9053 179.118 15.86V7.376H183.906ZM192.133 9.98C192.693 9.12133 193.393 8.44933 194.233 7.964C195.073 7.46 196.007 7.208 197.033 7.208V12.276H195.717C194.523 12.276 193.627 12.5373 193.029 13.06C192.432 13.564 192.133 14.46 192.133 15.748V23H187.345V7.376H192.133V9.98ZM214.776 7.208C216.605 7.208 218.061 7.80533 219.144 9C220.245 10.176 220.796 11.8 220.796 13.872V23H216.036V14.516C216.036 13.4707 215.765 12.6587 215.224 12.08C214.682 11.5013 213.954 11.212 213.04 11.212C212.125 11.212 211.397 11.5013 210.856 12.08C210.314 12.6587 210.044 13.4707 210.044 14.516V23H205.256V7.376H210.044V9.448C210.529 8.75733 211.182 8.216 212.004 7.824C212.825 7.41333 213.749 7.208 214.776 7.208ZM238.851 14.936C238.851 15.384 238.823 15.8507 238.767 16.336H227.931C228.005 17.3067 228.313 18.0533 228.855 18.576C229.415 19.08 230.096 19.332 230.899 19.332C232.093 19.332 232.924 18.828 233.391 17.82H238.487C238.225 18.8467 237.749 19.7707 237.059 20.592C236.387 21.4133 235.537 22.0573 234.511 22.524C233.484 22.9907 232.336 23.224 231.067 23.224C229.536 23.224 228.173 22.8973 226.979 22.244C225.784 21.5907 224.851 20.6573 224.179 19.444C223.507 18.2307 223.171 16.812 223.171 15.188C223.171 13.564 223.497 12.1453 224.151 10.932C224.823 9.71867 225.756 8.78533 226.951 8.132C228.145 7.47867 229.517 7.152 231.067 7.152C232.579 7.152 233.923 7.46933 235.099 8.104C236.275 8.73867 237.189 9.644 237.843 10.82C238.515 11.996 238.851 13.368 238.851 14.936ZM233.951 13.676C233.951 12.8547 233.671 12.2013 233.111 11.716C232.551 11.2307 231.851 10.988 231.011 10.988C230.208 10.988 229.527 11.2213 228.967 11.688C228.425 12.1547 228.089 12.8173 227.959 13.676H233.951ZM263.805 7.376L259.577 23H254.285L251.821 12.864L249.273 23H244.009L239.753 7.376H244.541L246.753 18.548L249.385 7.376H254.453L257.113 18.492L259.297 7.376H263.805ZM271.987 23.224C270.624 23.224 269.411 22.9907 268.347 22.524C267.283 22.0573 266.443 21.4227 265.827 20.62C265.211 19.7987 264.865 18.884 264.791 17.876H269.523C269.579 18.4173 269.831 18.856 270.279 19.192C270.727 19.528 271.277 19.696 271.931 19.696C272.528 19.696 272.985 19.584 273.303 19.36C273.639 19.1173 273.807 18.8093 273.807 18.436C273.807 17.988 273.573 17.6613 273.107 17.456C272.64 17.232 271.884 16.9893 270.839 16.728C269.719 16.4667 268.785 16.196 268.039 15.916C267.292 15.6173 266.648 15.16 266.107 14.544C265.565 13.9093 265.295 13.06 265.295 11.996C265.295 11.1 265.537 10.288 266.023 9.56C266.527 8.81333 267.255 8.22533 268.207 7.796C269.177 7.36667 270.325 7.152 271.651 7.152C273.611 7.152 275.151 7.63733 276.271 8.608C277.409 9.57867 278.063 10.8667 278.231 12.472H273.807C273.732 11.9307 273.489 11.5013 273.079 11.184C272.687 10.8667 272.164 10.708 271.511 10.708C270.951 10.708 270.521 10.82 270.223 11.044C269.924 11.2493 269.775 11.5387 269.775 11.912C269.775 12.36 270.008 12.696 270.475 12.92C270.96 13.144 271.707 13.368 272.715 13.592C273.872 13.8907 274.815 14.1893 275.543 14.488C276.271 14.768 276.905 15.2347 277.447 15.888C278.007 16.5227 278.296 17.3813 278.315 18.464C278.315 19.3787 278.053 20.2 277.531 20.928C277.027 21.6373 276.289 22.1973 275.319 22.608C274.367 23.0187 273.256 23.224 271.987 23.224ZM286.032 2.28V23H281.244V2.28H286.032ZM304.23 14.936C304.23 15.384 304.202 15.8507 304.146 16.336H293.31C293.384 17.3067 293.692 18.0533 294.234 18.576C294.794 19.08 295.475 19.332 296.278 19.332C297.472 19.332 298.303 18.828 298.77 17.82H303.866C303.604 18.8467 303.128 19.7707 302.438 20.592C301.766 21.4133 300.916 22.0573 299.89 22.524C298.863 22.9907 297.715 23.224 296.446 23.224C294.915 23.224 293.552 22.8973 292.358 22.244C291.163 21.5907 290.23 20.6573 289.558 19.444C288.886 18.2307 288.55 16.812 288.55 15.188C288.55 13.564 288.876 12.1453 289.53 10.932C290.202 9.71867 291.135 8.78533 292.33 8.132C293.524 7.47867 294.896 7.152 296.446 7.152C297.958 7.152 299.302 7.46933 300.478 8.104C301.654 8.73867 302.568 9.644 303.222 10.82C303.894 11.996 304.23 13.368 304.23 14.936ZM299.33 13.676C299.33 12.8547 299.05 12.2013 298.49 11.716C297.93 11.2307 297.23 10.988 296.39 10.988C295.587 10.988 294.906 11.2213 294.346 11.688C293.804 12.1547 293.468 12.8173 293.338 13.676H299.33ZM315.464 18.94V23H313.028C311.292 23 309.938 22.58 308.968 21.74C307.997 20.8813 307.512 19.4907 307.512 17.568V11.352H305.608V7.376H307.512V3.568H312.3V7.376H315.436V11.352H312.3V17.624C312.3 18.0907 312.412 18.4267 312.636 18.632C312.86 18.8373 313.233 18.94 313.756 18.94H315.464ZM326.839 18.94V23H324.403C322.667 23 321.313 22.58 320.343 21.74C319.372 20.8813 318.887 19.4907 318.887 17.568V11.352H316.983V7.376H318.887V3.568H323.675V7.376H326.811V11.352H323.675V17.624C323.675 18.0907 323.787 18.4267 324.011 18.632C324.235 18.8373 324.608 18.94 325.131 18.94H326.839ZM344.234 14.936C344.234 15.384 344.206 15.8507 344.15 16.336H333.314C333.388 17.3067 333.696 18.0533 334.238 18.576C334.798 19.08 335.479 19.332 336.282 19.332C337.476 19.332 338.307 18.828 338.774 17.82H343.87C343.608 18.8467 343.132 19.7707 342.442 20.592C341.77 21.4133 340.92 22.0573 339.894 22.524C338.867 22.9907 337.719 23.224 336.45 23.224C334.919 23.224 333.556 22.8973 332.362 22.244C331.167 21.5907 330.234 20.6573 329.562 19.444C328.89 18.2307 328.554 16.812 328.554 15.188C328.554 13.564 328.88 12.1453 329.534 10.932C330.206 9.71867 331.139 8.78533 332.334 8.132C333.528 7.47867 334.9 7.152 336.45 7.152C337.962 7.152 339.306 7.46933 340.482 8.104C341.658 8.73867 342.572 9.644 343.226 10.82C343.898 11.996 344.234 13.368 344.234 14.936ZM339.334 13.676C339.334 12.8547 339.054 12.2013 338.494 11.716C337.934 11.2307 337.234 10.988 336.394 10.988C335.591 10.988 334.91 11.2213 334.35 11.688C333.808 12.1547 333.472 12.8173 333.342 13.676H339.334ZM351.547 9.98C352.107 9.12133 352.807 8.44933 353.647 7.964C354.487 7.46 355.421 7.208 356.447 7.208V12.276H355.131C353.937 12.276 353.041 12.5373 352.443 13.06C351.846 13.564 351.547 14.46 351.547 15.748V23H346.759V7.376H351.547V9.98Z" fill="url(#paint0_linear)"/>
<defs>
<linearGradient id="paint0_linear" x1="195.45" y1="-16.2315" x2="196.115" y2="99.0276" gradientUnits="userSpaceOnUse">
<stop stop-color="#FD749B"/>
<stop offset="1" stop-color="#281AC8"/>
</linearGradient>
</defs>
</svg>
