<svg width="269" height="29" viewBox="0 0 269 29" fill="none" xmlns="http://www.w3.org/2000/svg">
<path d="M13.2217 1.344V5.18H5.2137V9.324H11.2057V13.048H5.2137V21H0.425697V1.344H13.2217ZM30.4662 12.936C30.4662 13.384 30.4382 13.8507 30.3822 14.336H19.5462C19.6209 15.3067 19.9289 16.0533 20.4702 16.576C21.0302 17.08 21.7115 17.332 22.5142 17.332C23.7089 17.332 24.5395 16.828 25.0062 15.82H30.1022C29.8409 16.8467 29.3649 17.7707 28.6742 18.592C28.0022 19.4133 27.1529 20.0573 26.1262 20.524C25.0995 20.9907 23.9515 21.224 22.6822 21.224C21.1515 21.224 19.7889 20.8973 18.5942 20.244C17.3995 19.5907 16.4662 18.6573 15.7942 17.444C15.1222 16.2307 14.7862 14.812 14.7862 13.188C14.7862 11.564 15.1129 10.1453 15.7662 8.932C16.4382 7.71867 17.3715 6.78533 18.5662 6.132C19.7609 5.47867 21.1329 5.152 22.6822 5.152C24.1942 5.152 25.5382 5.46933 26.7142 6.104C27.8902 6.73867 28.8049 7.644 29.4582 8.82C30.1302 9.996 30.4662 11.368 30.4662 12.936ZM25.5662 11.676C25.5662 10.8547 25.2862 10.2013 24.7262 9.716C24.1662 9.23067 23.4662 8.988 22.6262 8.988C21.8235 8.988 21.1422 9.22133 20.5822 9.688C20.0409 10.1547 19.7049 10.8173 19.5742 11.676H25.5662ZM32.0401 13.16C32.0401 11.5547 32.3388 10.1453 32.9361 8.932C33.5521 7.71867 34.3828 6.78533 35.4281 6.132C36.4734 5.47867 37.6401 5.152 38.9281 5.152C40.0294 5.152 40.9908 5.376 41.8121 5.824C42.6521 6.272 43.2961 6.86 43.7441 7.588V5.376H48.5321V21H43.7441V18.788C43.2774 19.516 42.6241 20.104 41.7841 20.552C40.9628 21 40.0014 21.224 38.9001 21.224C37.6308 21.224 36.4734 20.8973 35.4281 20.244C34.3828 19.572 33.5521 18.6293 32.9361 17.416C32.3388 16.184 32.0401 14.7653 32.0401 13.16ZM43.7441 13.188C43.7441 11.9933 43.4081 11.0507 42.7361 10.36C42.0828 9.66933 41.2801 9.324 40.3281 9.324C39.3761 9.324 38.5641 9.66933 37.8921 10.36C37.2388 11.032 36.9121 11.9653 36.9121 13.16C36.9121 14.3547 37.2388 15.3067 37.8921 16.016C38.5641 16.7067 39.3761 17.052 40.3281 17.052C41.2801 17.052 42.0828 16.7067 42.7361 16.016C43.4081 15.3253 43.7441 14.3827 43.7441 13.188ZM60.704 16.94V21H58.268C56.532 21 55.1787 20.58 54.208 19.74C53.2373 18.8813 52.752 17.4907 52.752 15.568V9.352H50.848V5.376H52.752V1.568H57.54V5.376H60.676V9.352H57.54V15.624C57.54 16.0907 57.652 16.4267 57.876 16.632C58.1 16.8373 58.4733 16.94 58.996 16.94H60.704ZM78.799 5.376V21H74.011V18.872C73.5257 19.5627 72.863 20.1227 72.023 20.552C71.2017 20.9627 70.287 21.168 69.279 21.168C68.0843 21.168 67.0297 20.9067 66.115 20.384C65.2003 19.8427 64.491 19.068 63.987 18.06C63.483 17.052 63.231 15.8667 63.231 14.504V5.376H67.991V13.86C67.991 14.9053 68.2617 15.7173 68.803 16.296C69.3443 16.8747 70.0723 17.164 70.987 17.164C71.9203 17.164 72.6577 16.8747 73.199 16.296C73.7403 15.7173 74.011 14.9053 74.011 13.86V5.376H78.799ZM87.0262 7.98C87.5862 7.12133 88.2862 6.44933 89.1262 5.964C89.9662 5.46 90.8995 5.208 91.9262 5.208V10.276H90.6102C89.4155 10.276 88.5195 10.5373 87.9222 11.06C87.3249 11.564 87.0262 12.46 87.0262 13.748V21H82.2382V5.376H87.0262V7.98ZM108.943 12.936C108.943 13.384 108.915 13.8507 108.859 14.336H98.0228C98.0974 15.3067 98.4054 16.0533 98.9468 16.576C99.5068 17.08 100.188 17.332 100.991 17.332C102.185 17.332 103.016 16.828 103.483 15.82H108.579C108.317 16.8467 107.841 17.7707 107.151 18.592C106.479 19.4133 105.629 20.0573 104.603 20.524C103.576 20.9907 102.428 21.224 101.159 21.224C99.6281 21.224 98.2654 20.8973 97.0708 20.244C95.8761 19.5907 94.9428 18.6573 94.2708 17.444C93.5988 16.2307 93.2628 14.812 93.2628 13.188C93.2628 11.564 93.5894 10.1453 94.2428 8.932C94.9148 7.71867 95.8481 6.78533 97.0428 6.132C98.2374 5.47867 99.6094 5.152 101.159 5.152C102.671 5.152 104.015 5.46933 105.191 6.104C106.367 6.73867 107.281 7.644 107.935 8.82C108.607 9.996 108.943 11.368 108.943 12.936ZM104.043 11.676C104.043 10.8547 103.763 10.2013 103.203 9.716C102.643 9.23067 101.943 8.988 101.103 8.988C100.3 8.988 99.6188 9.22133 99.0588 9.688C98.5174 10.1547 98.1814 10.8173 98.0508 11.676H104.043ZM110.517 13.16C110.517 11.5547 110.815 10.1453 111.413 8.932C112.029 7.71867 112.859 6.78533 113.905 6.132C114.95 5.47867 116.117 5.152 117.405 5.152C118.431 5.152 119.365 5.36667 120.205 5.796C121.063 6.22533 121.735 6.804 122.221 7.532V0.28H127.009V21H122.221V18.76C121.773 19.5067 121.129 20.104 120.289 20.552C119.467 21 118.506 21.224 117.405 21.224C116.117 21.224 114.95 20.8973 113.905 20.244C112.859 19.572 112.029 18.6293 111.413 17.416C110.815 16.184 110.517 14.7653 110.517 13.16ZM122.221 13.188C122.221 11.9933 121.885 11.0507 121.213 10.36C120.559 9.66933 119.757 9.324 118.805 9.324C117.853 9.324 117.041 9.66933 116.369 10.36C115.715 11.032 115.389 11.9653 115.389 13.16C115.389 14.3547 115.715 15.3067 116.369 16.016C117.041 16.7067 117.853 17.052 118.805 17.052C119.757 17.052 120.559 16.7067 121.213 16.016C121.885 15.3253 122.221 14.3827 122.221 13.188ZM143.518 21.196C142.081 21.196 140.793 20.9627 139.654 20.496C138.515 20.0293 137.601 19.3387 136.91 18.424C136.238 17.5093 135.883 16.408 135.846 15.12H140.942C141.017 15.848 141.269 16.408 141.698 16.8C142.127 17.1733 142.687 17.36 143.378 17.36C144.087 17.36 144.647 17.2013 145.058 16.884C145.469 16.548 145.674 16.0907 145.674 15.512C145.674 15.0267 145.506 14.6253 145.17 14.308C144.853 13.9907 144.451 13.7293 143.966 13.524C143.499 13.3187 142.827 13.0853 141.95 12.824C140.681 12.432 139.645 12.04 138.842 11.648C138.039 11.256 137.349 10.6773 136.77 9.912C136.191 9.14667 135.902 8.148 135.902 6.916C135.902 5.08667 136.565 3.65867 137.89 2.632C139.215 1.58667 140.942 1.064 143.07 1.064C145.235 1.064 146.981 1.58667 148.306 2.632C149.632 3.65867 150.341 5.096 150.434 6.944H145.254C145.217 6.30933 144.983 5.81467 144.554 5.46C144.125 5.08667 143.574 4.9 142.902 4.9C142.323 4.9 141.857 5.05867 141.502 5.376C141.147 5.67467 140.97 6.11333 140.97 6.692C140.97 7.32667 141.269 7.82133 141.866 8.176C142.463 8.53067 143.397 8.91333 144.666 9.324C145.935 9.75333 146.962 10.164 147.746 10.556C148.549 10.948 149.24 11.5173 149.818 12.264C150.397 13.0107 150.686 13.972 150.686 15.148C150.686 16.268 150.397 17.2853 149.818 18.2C149.258 19.1147 148.437 19.8427 147.354 20.384C146.271 20.9253 144.993 21.196 143.518 21.196ZM158.421 7.588C158.887 6.86 159.531 6.272 160.353 5.824C161.174 5.376 162.135 5.152 163.237 5.152C164.525 5.152 165.691 5.47867 166.737 6.132C167.782 6.78533 168.603 7.71867 169.201 8.932C169.817 10.1453 170.125 11.5547 170.125 13.16C170.125 14.7653 169.817 16.184 169.201 17.416C168.603 18.6293 167.782 19.572 166.737 20.244C165.691 20.8973 164.525 21.224 163.237 21.224C162.154 21.224 161.193 21 160.353 20.552C159.531 20.104 158.887 19.5253 158.421 18.816V28.448H153.633V5.376H158.421V7.588ZM165.253 13.16C165.253 11.9653 164.917 11.032 164.245 10.36C163.591 9.66933 162.779 9.324 161.809 9.324C160.857 9.324 160.045 9.66933 159.373 10.36C158.719 11.0507 158.393 11.9933 158.393 13.188C158.393 14.3827 158.719 15.3253 159.373 16.016C160.045 16.7067 160.857 17.052 161.809 17.052C162.761 17.052 163.573 16.7067 164.245 16.016C164.917 15.3067 165.253 14.3547 165.253 13.16ZM187.365 12.936C187.365 13.384 187.337 13.8507 187.281 14.336H176.445C176.519 15.3067 176.827 16.0533 177.369 16.576C177.929 17.08 178.61 17.332 179.413 17.332C180.607 17.332 181.438 16.828 181.905 15.82H187.001C186.739 16.8467 186.263 17.7707 185.573 18.592C184.901 19.4133 184.051 20.0573 183.025 20.524C181.998 20.9907 180.85 21.224 179.581 21.224C178.05 21.224 176.687 20.8973 175.493 20.244C174.298 19.5907 173.365 18.6573 172.693 17.444C172.021 16.2307 171.685 14.812 171.685 13.188C171.685 11.564 172.011 10.1453 172.665 8.932C173.337 7.71867 174.27 6.78533 175.465 6.132C176.659 5.47867 178.031 5.152 179.581 5.152C181.093 5.152 182.437 5.46933 183.613 6.104C184.789 6.73867 185.703 7.644 186.357 8.82C187.029 9.996 187.365 11.368 187.365 12.936ZM182.465 11.676C182.465 10.8547 182.185 10.2013 181.625 9.716C181.065 9.23067 180.365 8.988 179.525 8.988C178.722 8.988 178.041 9.22133 177.481 9.688C176.939 10.1547 176.603 10.8173 176.473 11.676H182.465ZM188.939 13.16C188.939 11.5547 189.237 10.1453 189.835 8.932C190.451 7.71867 191.281 6.78533 192.327 6.132C193.372 5.47867 194.539 5.152 195.827 5.152C196.928 5.152 197.889 5.376 198.711 5.824C199.551 6.272 200.195 6.86 200.643 7.588V5.376H205.431V21H200.643V18.788C200.176 19.516 199.523 20.104 198.683 20.552C197.861 21 196.9 21.224 195.799 21.224C194.529 21.224 193.372 20.8973 192.327 20.244C191.281 19.572 190.451 18.6293 189.835 17.416C189.237 16.184 188.939 14.7653 188.939 13.16ZM200.643 13.188C200.643 11.9933 200.307 11.0507 199.635 10.36C198.981 9.66933 198.179 9.324 197.227 9.324C196.275 9.324 195.463 9.66933 194.791 10.36C194.137 11.032 193.811 11.9653 193.811 13.16C193.811 14.3547 194.137 15.3067 194.791 16.016C195.463 16.7067 196.275 17.052 197.227 17.052C198.179 17.052 198.981 16.7067 199.635 16.016C200.307 15.3253 200.643 14.3827 200.643 13.188ZM218.442 21L213.682 14.448V21H208.894V0.28H213.682V11.732L218.414 5.376H224.322L217.826 13.216L224.378 21H218.442ZM240.931 12.936C240.931 13.384 240.903 13.8507 240.847 14.336H230.011C230.086 15.3067 230.394 16.0533 230.935 16.576C231.495 17.08 232.176 17.332 232.979 17.332C234.174 17.332 235.004 16.828 235.471 15.82H240.567C240.306 16.8467 239.83 17.7707 239.139 18.592C238.467 19.4133 237.618 20.0573 236.591 20.524C235.564 20.9907 234.416 21.224 233.147 21.224C231.616 21.224 230.254 20.8973 229.059 20.244C227.864 19.5907 226.931 18.6573 226.259 17.444C225.587 16.2307 225.251 14.812 225.251 13.188C225.251 11.564 225.578 10.1453 226.231 8.932C226.903 7.71867 227.836 6.78533 229.031 6.132C230.226 5.47867 231.598 5.152 233.147 5.152C234.659 5.152 236.003 5.46933 237.179 6.104C238.355 6.73867 239.27 7.644 239.923 8.82C240.595 9.996 240.931 11.368 240.931 12.936ZM236.031 11.676C236.031 10.8547 235.751 10.2013 235.191 9.716C234.631 9.23067 233.931 8.988 233.091 8.988C232.288 8.988 231.607 9.22133 231.047 9.688C230.506 10.1547 230.17 10.8173 230.039 11.676H236.031ZM248.245 7.98C248.805 7.12133 249.505 6.44933 250.345 5.964C251.185 5.46 252.118 5.208 253.145 5.208V10.276H251.829C250.634 10.276 249.738 10.5373 249.141 11.06C248.544 11.564 248.245 12.46 248.245 13.748V21H243.457V5.376H248.245V7.98ZM261.79 21.224C260.427 21.224 259.214 20.9907 258.15 20.524C257.086 20.0573 256.246 19.4227 255.63 18.62C255.014 17.7987 254.668 16.884 254.594 15.876H259.326C259.382 16.4173 259.634 16.856 260.082 17.192C260.53 17.528 261.08 17.696 261.734 17.696C262.331 17.696 262.788 17.584 263.106 17.36C263.442 17.1173 263.61 16.8093 263.61 16.436C263.61 15.988 263.376 15.6613 262.91 15.456C262.443 15.232 261.687 14.9893 260.642 14.728C259.522 14.4667 258.588 14.196 257.842 13.916C257.095 13.6173 256.451 13.16 255.91 12.544C255.368 11.9093 255.098 11.06 255.098 9.996C255.098 9.1 255.34 8.288 255.826 7.56C256.33 6.81333 257.058 6.22533 258.01 5.796C258.98 5.36667 260.128 5.152 261.454 5.152C263.414 5.152 264.954 5.63733 266.074 6.608C267.212 7.57867 267.866 8.86667 268.034 10.472H263.61C263.535 9.93067 263.292 9.50133 262.882 9.184C262.49 8.86667 261.967 8.708 261.314 8.708C260.754 8.708 260.324 8.82 260.026 9.044C259.727 9.24933 259.578 9.53867 259.578 9.912C259.578 10.36 259.811 10.696 260.278 10.92C260.763 11.144 261.51 11.368 262.518 11.592C263.675 11.8907 264.618 12.1893 265.346 12.488C266.074 12.768 266.708 13.2347 267.25 13.888C267.81 14.5227 268.099 15.3813 268.118 16.464C268.118 17.3787 267.856 18.2 267.334 18.928C266.83 19.6373 266.092 20.1973 265.122 20.608C264.17 21.0187 263.059 21.224 261.79 21.224Z" fill="url(#paint0_linear)"/>
<defs>
<linearGradient id="paint0_linear" x1="149.9" y1="-14.6111" x2="150.214" y2="59.8651" gradientUnits="userSpaceOnUse">
<stop stop-color="#FD749B"/>
<stop offset="1" stop-color="#281AC8"/>
</linearGradient>
</defs>
</svg>
