<svg width="520" height="95" viewBox="0 0 520 95" fill="none" xmlns="http://www.w3.org/2000/svg">
<path d="M30.6062 31.3469H25.5281L20.6843 14.3157C20.476 13.5735 20.2156 12.5058 19.9031 11.1125C19.5906 9.7063 19.4018 8.72974 19.3367 8.18286C19.2065 9.01619 18.9916 10.0969 18.6921 11.425C18.4057 12.7532 18.1648 13.7428 17.9695 14.3938L13.2429 31.3469H8.16479L4.47339 17.05L0.723389 2.79224H5.48901L9.57104 19.4329C10.2091 22.1021 10.6648 24.4589 10.9382 26.5032C11.0815 25.3964 11.2963 24.1594 11.5828 22.7922C11.8692 21.425 12.1296 20.3183 12.364 19.4719L17.0125 2.79224H21.6414L26.407 19.55C26.8627 21.0995 27.3445 23.4172 27.8523 26.5032C28.0476 24.6412 28.5164 22.2714 29.2585 19.3938L33.321 2.79224H38.0476L30.6062 31.3469ZM51.0554 31.7375C47.696 31.7375 45.0658 30.761 43.1648 28.8079C41.2768 26.8417 40.3328 24.1399 40.3328 20.7024C40.3328 17.1737 41.2117 14.4003 42.9695 12.3821C44.7273 10.3639 47.1427 9.35474 50.2156 9.35474C53.0671 9.35474 55.3197 10.2206 56.9734 11.9524C58.627 13.6842 59.4539 16.067 59.4539 19.1008V21.5813H45.0593C45.1244 23.6777 45.6908 25.2922 46.7585 26.425C47.8263 27.5448 49.3302 28.1047 51.2703 28.1047C52.5463 28.1047 53.7312 27.9875 54.825 27.7532C55.9317 27.5058 57.1166 27.1021 58.3796 26.5422V30.2727C57.2598 30.8066 56.127 31.1842 54.9812 31.4055C53.8354 31.6269 52.5268 31.7375 51.0554 31.7375ZM50.2156 12.8313C48.7572 12.8313 47.5854 13.2935 46.7 14.218C45.8276 15.1425 45.3067 16.4902 45.1375 18.261H54.9421C54.9161 16.4771 54.4864 15.1295 53.6531 14.218C52.8197 13.2935 51.6739 12.8313 50.2156 12.8313ZM69.2585 31.3469H64.6687V0.956299H69.2585V31.3469ZM84.5515 31.7375C81.2833 31.7375 78.7963 30.787 77.0906 28.886C75.3979 26.9719 74.5515 24.231 74.5515 20.6633C74.5515 17.0305 75.4369 14.2375 77.2078 12.2844C78.9916 10.3313 81.5632 9.35474 84.9226 9.35474C87.2013 9.35474 89.252 9.77791 91.075 10.6243L89.6882 14.3157C87.7481 13.5605 86.1466 13.1829 84.8835 13.1829C81.1466 13.1829 79.2781 15.6633 79.2781 20.6243C79.2781 23.0461 79.7403 24.8691 80.6648 26.093C81.6023 27.304 82.9695 27.9094 84.7664 27.9094C86.8106 27.9094 88.7442 27.4016 90.5671 26.386V30.3899C89.7468 30.8717 88.8679 31.2167 87.9304 31.425C87.0059 31.6334 85.8796 31.7375 84.5515 31.7375ZM114.805 20.5071C114.805 24.0357 113.9 26.7896 112.091 28.7688C110.281 30.748 107.761 31.7375 104.532 31.7375C102.514 31.7375 100.73 31.2818 99.1804 30.3704C97.6309 29.4589 96.4395 28.1503 95.6062 26.4446C94.7729 24.7389 94.3562 22.7597 94.3562 20.5071C94.3562 17.0045 95.2546 14.2701 97.0515 12.304C98.8484 10.3378 101.381 9.35474 104.649 9.35474C107.774 9.35474 110.248 10.3639 112.071 12.3821C113.894 14.3873 114.805 17.0956 114.805 20.5071ZM99.0828 20.5071C99.0828 25.4941 100.925 27.9875 104.61 27.9875C108.256 27.9875 110.079 25.4941 110.079 20.5071C110.079 15.5722 108.243 13.1047 104.571 13.1047C102.644 13.1047 101.244 13.7428 100.372 15.0188C99.5125 16.2948 99.0828 18.1243 99.0828 20.5071ZM138.302 31.3469H133.692V18.0266C133.692 16.373 133.38 15.1425 132.755 14.3352C132.13 13.5149 131.153 13.1047 129.825 13.1047C128.054 13.1047 126.752 13.6842 125.919 14.843C125.098 15.9889 124.688 17.9029 124.688 20.5852V31.3469H120.098V9.74536H123.692L124.337 12.5774H124.571C125.17 11.5487 126.036 10.7545 127.169 10.1946C128.315 9.63468 129.571 9.35474 130.938 9.35474C134.259 9.35474 136.459 10.4875 137.54 12.7532H137.852C138.49 11.6855 139.389 10.8521 140.548 10.2532C141.706 9.65422 143.035 9.35474 144.532 9.35474C147.11 9.35474 148.985 10.0058 150.157 11.3079C151.342 12.6099 151.934 14.5956 151.934 17.2649V31.3469H147.344V18.0266C147.344 16.373 147.025 15.1425 146.387 14.3352C145.762 13.5149 144.786 13.1047 143.458 13.1047C141.674 13.1047 140.365 13.6646 139.532 14.7844C138.712 15.8912 138.302 17.5969 138.302 19.9016V31.3469ZM167.774 31.7375C164.415 31.7375 161.785 30.761 159.884 28.8079C157.996 26.8417 157.052 24.1399 157.052 20.7024C157.052 17.1737 157.93 14.4003 159.688 12.3821C161.446 10.3639 163.861 9.35474 166.934 9.35474C169.786 9.35474 172.038 10.2206 173.692 11.9524C175.346 13.6842 176.173 16.067 176.173 19.1008V21.5813H161.778C161.843 23.6777 162.41 25.2922 163.477 26.425C164.545 27.5448 166.049 28.1047 167.989 28.1047C169.265 28.1047 170.45 27.9875 171.544 27.7532C172.65 27.5058 173.835 27.1021 175.098 26.5422V30.2727C173.979 30.8066 172.846 31.1842 171.7 31.4055C170.554 31.6269 169.246 31.7375 167.774 31.7375ZM166.934 12.8313C165.476 12.8313 164.304 13.2935 163.419 14.218C162.546 15.1425 162.025 16.4902 161.856 18.261H171.661C171.635 16.4771 171.205 15.1295 170.372 14.218C169.538 13.2935 168.393 12.8313 166.934 12.8313ZM199.825 28.0266C200.945 28.0266 202.065 27.8508 203.184 27.4993V30.9563C202.677 31.1777 202.019 31.3599 201.212 31.5032C200.417 31.6594 199.591 31.7375 198.731 31.7375C194.382 31.7375 192.208 29.4459 192.208 24.8625V13.2219H189.259V11.1907L192.423 9.51099L193.985 4.94067H196.817V9.74536H202.969V13.2219H196.817V24.7844C196.817 25.8912 197.091 26.7115 197.637 27.2454C198.197 27.7662 198.927 28.0266 199.825 28.0266ZM226.68 20.5071C226.68 24.0357 225.775 26.7896 223.966 28.7688C222.156 30.748 219.636 31.7375 216.407 31.7375C214.389 31.7375 212.605 31.2818 211.055 30.3704C209.506 29.4589 208.315 28.1503 207.481 26.4446C206.648 24.7389 206.231 22.7597 206.231 20.5071C206.231 17.0045 207.13 14.2701 208.927 12.304C210.723 10.3378 213.256 9.35474 216.524 9.35474C219.649 9.35474 222.123 10.3639 223.946 12.3821C225.769 14.3873 226.68 17.0956 226.68 20.5071ZM210.958 20.5071C210.958 25.4941 212.8 27.9875 216.485 27.9875C220.131 27.9875 221.954 25.4941 221.954 20.5071C221.954 15.5722 220.118 13.1047 216.446 13.1047C214.519 13.1047 213.119 13.7428 212.247 15.0188C211.387 16.2948 210.958 18.1243 210.958 20.5071ZM197.54 67.2219H192.266V85.3469H187.657V67.2219H184.102V65.0735L187.657 63.6672V62.261C187.657 59.7089 188.256 57.8209 189.454 56.5969C190.652 55.3599 192.481 54.7415 194.942 54.7415C196.557 54.7415 198.145 55.0084 199.708 55.5422L198.497 59.0188C197.364 58.6542 196.283 58.4719 195.255 58.4719C194.213 58.4719 193.451 58.7974 192.969 59.4485C192.501 60.0865 192.266 61.05 192.266 62.3391V63.7454H197.54V67.2219ZM220.391 74.5071C220.391 78.0357 219.486 80.7896 217.677 82.7688C215.867 84.748 213.347 85.7375 210.118 85.7375C208.1 85.7375 206.316 85.2818 204.766 84.3704C203.217 83.4589 202.025 82.1503 201.192 80.4446C200.359 78.7389 199.942 76.7597 199.942 74.5071C199.942 71.0045 200.841 68.2701 202.637 66.304C204.434 64.3378 206.967 63.3547 210.235 63.3547C213.36 63.3547 215.834 64.3639 217.657 66.3821C219.48 68.3873 220.391 71.0956 220.391 74.5071ZM204.669 74.5071C204.669 79.4941 206.511 81.9875 210.196 81.9875C213.842 81.9875 215.665 79.4941 215.665 74.5071C215.665 69.5722 213.829 67.1047 210.157 67.1047C208.23 67.1047 206.83 67.7428 205.958 69.0188C205.098 70.2948 204.669 72.1243 204.669 74.5071ZM236.641 63.3547C237.566 63.3547 238.328 63.4198 238.927 63.55L238.477 67.8274C237.826 67.6711 237.149 67.593 236.446 67.593C234.61 67.593 233.119 68.192 231.973 69.3899C230.841 70.5878 230.274 72.1438 230.274 74.0579V85.3469H225.684V63.7454H229.278L229.884 67.554H230.118C230.834 66.2649 231.765 65.2428 232.911 64.4875C234.07 63.7323 235.313 63.3547 236.641 63.3547ZM253.829 56.7922H262.305C266.238 56.7922 269.076 57.3652 270.821 58.511C272.579 59.6568 273.458 61.4667 273.458 63.9407C273.458 65.6073 273.028 66.9941 272.169 68.1008C271.309 69.2076 270.072 69.9042 268.458 70.1907V70.386C270.463 70.7636 271.934 71.5123 272.872 72.6321C273.822 73.7389 274.298 75.2428 274.298 77.1438C274.298 79.7089 273.399 81.7206 271.602 83.179C269.818 84.6243 267.331 85.3469 264.141 85.3469H253.829V56.7922ZM258.497 68.5891H262.989C264.942 68.5891 266.368 68.2831 267.266 67.6711C268.165 67.0461 268.614 65.9915 268.614 64.5071C268.614 63.1659 268.126 62.1959 267.149 61.5969C266.186 60.998 264.649 60.6985 262.54 60.6985H258.497V68.5891ZM258.497 72.3782V81.4211H263.458C265.411 81.4211 266.882 81.05 267.872 80.3079C268.874 79.5527 269.376 78.3678 269.376 76.7532C269.376 75.2688 268.868 74.1685 267.852 73.4524C266.837 72.7362 265.294 72.3782 263.223 72.3782H258.497ZM289.18 85.7375C285.821 85.7375 283.191 84.761 281.29 82.8079C279.402 80.8417 278.458 78.1399 278.458 74.7024C278.458 71.1737 279.337 68.4003 281.094 66.3821C282.852 64.3639 285.268 63.3547 288.341 63.3547C291.192 63.3547 293.445 64.2206 295.098 65.9524C296.752 67.6842 297.579 70.067 297.579 73.1008V75.5813H283.184C283.249 77.6777 283.816 79.2922 284.884 80.425C285.951 81.5448 287.455 82.1047 289.395 82.1047C290.671 82.1047 291.856 81.9875 292.95 81.7532C294.057 81.5058 295.242 81.1021 296.505 80.5422V84.2727C295.385 84.8066 294.252 85.1842 293.106 85.4055C291.96 85.6269 290.652 85.7375 289.18 85.7375ZM288.341 66.8313C286.882 66.8313 285.71 67.2935 284.825 68.218C283.953 69.1425 283.432 70.4902 283.262 72.261H293.067C293.041 70.4771 292.611 69.1295 291.778 68.218C290.945 67.2935 289.799 66.8313 288.341 66.8313ZM317.305 79.1946C317.305 81.304 316.537 82.925 315.001 84.0579C313.464 85.1777 311.264 85.7375 308.399 85.7375C305.522 85.7375 303.21 85.3014 301.466 84.429V80.4641C304.005 81.636 306.368 82.2219 308.555 82.2219C311.381 82.2219 312.794 81.3691 312.794 79.6633C312.794 79.1165 312.637 78.6607 312.325 78.2961C312.012 77.9316 311.498 77.554 310.782 77.1633C310.066 76.7727 309.07 76.33 307.794 75.8352C305.307 74.8717 303.621 73.9081 302.735 72.9446C301.863 71.981 301.427 70.731 301.427 69.1946C301.427 67.3456 302.169 65.9133 303.653 64.8977C305.15 63.8691 307.182 63.3547 309.747 63.3547C312.286 63.3547 314.688 63.8691 316.954 64.8977L315.469 68.3547C313.139 67.3912 311.179 66.9094 309.591 66.9094C307.169 66.9094 305.958 67.5995 305.958 68.9797C305.958 69.6568 306.27 70.2297 306.895 70.6985C307.533 71.1672 308.913 71.8118 311.036 72.6321C312.82 73.3222 314.115 73.9537 314.923 74.5266C315.73 75.0995 316.329 75.7636 316.719 76.5188C317.11 77.261 317.305 78.1529 317.305 79.1946ZM330.333 82.0266C331.453 82.0266 332.572 81.8508 333.692 81.4993V84.9563C333.184 85.1777 332.527 85.3599 331.719 85.5032C330.925 85.6594 330.098 85.7375 329.239 85.7375C324.89 85.7375 322.716 83.4459 322.716 78.8625V67.2219H319.766V65.1907L322.93 63.511L324.493 58.9407H327.325V63.7454H333.477V67.2219H327.325V78.7844C327.325 79.8912 327.598 80.7115 328.145 81.2454C328.705 81.7662 329.434 82.0266 330.333 82.0266ZM365.372 77.593C365.372 80.1321 364.454 82.1243 362.618 83.5696C360.782 85.0149 358.249 85.7375 355.02 85.7375C351.791 85.7375 349.148 85.2362 347.091 84.2336V79.8196C348.393 80.4316 349.773 80.9133 351.231 81.2649C352.703 81.6165 354.07 81.7922 355.333 81.7922C357.182 81.7922 358.542 81.4407 359.415 80.7375C360.3 80.0344 360.743 79.0904 360.743 77.9055C360.743 76.8378 360.339 75.9329 359.532 75.1907C358.725 74.4485 357.058 73.5696 354.532 72.554C351.928 71.4993 350.092 70.2948 349.024 68.9407C347.956 67.5865 347.423 65.9589 347.423 64.0579C347.423 61.675 348.269 59.8 349.962 58.4329C351.654 57.0657 353.927 56.3821 356.778 56.3821C359.512 56.3821 362.234 56.981 364.942 58.179L363.458 61.9875C360.919 60.9198 358.653 60.386 356.661 60.386C355.15 60.386 354.005 60.718 353.223 61.3821C352.442 62.0331 352.052 62.899 352.052 63.9797C352.052 64.7219 352.208 65.3599 352.52 65.8938C352.833 66.4146 353.347 66.9094 354.063 67.3782C354.779 67.8469 356.068 68.4654 357.93 69.2336C360.027 70.106 361.563 70.9198 362.54 71.675C363.516 72.4303 364.233 73.2831 364.688 74.2336C365.144 75.1842 365.372 76.304 365.372 77.593ZM381.368 85.7375C378.634 85.7375 376.511 84.7545 375.001 82.7883H374.727C374.91 84.6112 375.001 85.718 375.001 86.1086V94.9563H370.411V63.7454H374.122C374.226 64.149 374.441 65.1125 374.766 66.636H375.001C376.433 64.4485 378.581 63.3547 381.446 63.3547C384.141 63.3547 386.238 64.3313 387.735 66.2844C389.246 68.2375 390.001 70.9784 390.001 74.5071C390.001 78.0357 389.233 80.7896 387.696 82.7688C386.173 84.748 384.063 85.7375 381.368 85.7375ZM380.255 67.1047C378.432 67.1047 377.097 67.6386 376.251 68.7063C375.417 69.774 375.001 71.4797 375.001 73.8235V74.5071C375.001 77.1373 375.417 79.0448 376.251 80.2297C377.084 81.4016 378.445 81.9875 380.333 81.9875C381.921 81.9875 383.145 81.3365 384.005 80.0344C384.864 78.7323 385.294 76.8769 385.294 74.468C385.294 72.0461 384.864 70.2167 384.005 68.9797C383.158 67.7297 381.908 67.1047 380.255 67.1047ZM404.766 85.7375C401.407 85.7375 398.777 84.761 396.876 82.8079C394.988 80.8417 394.044 78.1399 394.044 74.7024C394.044 71.1737 394.923 68.4003 396.68 66.3821C398.438 64.3639 400.854 63.3547 403.927 63.3547C406.778 63.3547 409.031 64.2206 410.684 65.9524C412.338 67.6842 413.165 70.067 413.165 73.1008V75.5813H398.77C398.835 77.6777 399.402 79.2922 400.469 80.425C401.537 81.5448 403.041 82.1047 404.981 82.1047C406.257 82.1047 407.442 81.9875 408.536 81.7532C409.643 81.5058 410.828 81.1021 412.091 80.5422V84.2727C410.971 84.8066 409.838 85.1842 408.692 85.4055C407.546 85.6269 406.238 85.7375 404.766 85.7375ZM403.927 66.8313C402.468 66.8313 401.296 67.2935 400.411 68.218C399.538 69.1425 399.018 70.4902 398.848 72.261H408.653C408.627 70.4771 408.197 69.1295 407.364 68.218C406.531 67.2935 405.385 66.8313 403.927 66.8313ZM431.895 85.3469L430.977 82.3391H430.821C429.779 83.6542 428.731 84.5527 427.677 85.0344C426.622 85.5032 425.268 85.7375 423.614 85.7375C421.492 85.7375 419.831 85.1646 418.634 84.0188C417.449 82.873 416.856 81.2519 416.856 79.1555C416.856 76.929 417.683 75.2493 419.337 74.1165C420.99 72.9836 423.51 72.3652 426.895 72.261L430.626 72.1438V70.9915C430.626 69.6112 430.3 68.5826 429.649 67.9055C429.011 67.2154 428.015 66.8704 426.661 66.8704C425.554 66.8704 424.493 67.0331 423.477 67.3586C422.462 67.6842 421.485 68.0683 420.548 68.511L419.063 65.2297C420.235 64.6178 421.518 64.1555 422.911 63.843C424.304 63.5175 425.619 63.3547 426.856 63.3547C429.604 63.3547 431.674 63.9537 433.067 65.1516C434.473 66.3495 435.177 68.231 435.177 70.7961V85.3469H431.895ZM425.059 82.2219C426.726 82.2219 428.061 81.7597 429.063 80.8352C430.079 79.8977 430.587 78.5891 430.587 76.9094V75.0344L427.813 75.1516C425.652 75.2297 424.076 75.5943 423.087 76.2454C422.11 76.8834 421.622 77.8665 421.622 79.1946C421.622 80.1581 421.908 80.9068 422.481 81.4407C423.054 81.9615 423.913 82.2219 425.059 82.2219ZM446.016 73.9407L448.614 70.6985L455.137 63.7454H460.43L451.739 73.0227L460.977 85.3469H455.587L448.653 75.8743L446.134 77.9446V85.3469H441.583V54.9563H446.134V69.7805L445.899 73.9407H446.016ZM473.907 85.7375C470.548 85.7375 467.917 84.761 466.016 82.8079C464.128 80.8417 463.184 78.1399 463.184 74.7024C463.184 71.1737 464.063 68.4003 465.821 66.3821C467.579 64.3639 469.994 63.3547 473.067 63.3547C475.919 63.3547 478.171 64.2206 479.825 65.9524C481.479 67.6842 482.305 70.067 482.305 73.1008V75.5813H467.911C467.976 77.6777 468.542 79.2922 469.61 80.425C470.678 81.5448 472.182 82.1047 474.122 82.1047C475.398 82.1047 476.583 81.9875 477.677 81.7532C478.783 81.5058 479.968 81.1021 481.231 80.5422V84.2727C480.111 84.8066 478.979 85.1842 477.833 85.4055C476.687 85.6269 475.378 85.7375 473.907 85.7375ZM473.067 66.8313C471.609 66.8313 470.437 67.2935 469.552 68.218C468.679 69.1425 468.158 70.4902 467.989 72.261H477.794C477.768 70.4771 477.338 69.1295 476.505 68.218C475.671 67.2935 474.525 66.8313 473.067 66.8313ZM498.477 63.3547C499.402 63.3547 500.163 63.4198 500.762 63.55L500.313 67.8274C499.662 67.6711 498.985 67.593 498.282 67.593C496.446 67.593 494.955 68.192 493.809 69.3899C492.677 70.5878 492.11 72.1438 492.11 74.0579V85.3469H487.52V63.7454H491.114L491.719 67.554H491.954C492.67 66.2649 493.601 65.2428 494.747 64.4875C495.906 63.7323 497.149 63.3547 498.477 63.3547ZM519.298 79.1946C519.298 81.304 518.529 82.925 516.993 84.0579C515.456 85.1777 513.256 85.7375 510.391 85.7375C507.514 85.7375 505.203 85.3014 503.458 84.429V80.4641C505.997 81.636 508.36 82.2219 510.548 82.2219C513.373 82.2219 514.786 81.3691 514.786 79.6633C514.786 79.1165 514.63 78.6607 514.317 78.2961C514.005 77.9316 513.49 77.554 512.774 77.1633C512.058 76.7727 511.062 76.33 509.786 75.8352C507.299 74.8717 505.613 73.9081 504.727 72.9446C503.855 71.981 503.419 70.731 503.419 69.1946C503.419 67.3456 504.161 65.9133 505.645 64.8977C507.143 63.8691 509.174 63.3547 511.739 63.3547C514.278 63.3547 516.68 63.8691 518.946 64.8977L517.462 68.3547C515.131 67.3912 513.171 66.9094 511.583 66.9094C509.161 66.9094 507.95 67.5995 507.95 68.9797C507.95 69.6568 508.262 70.2297 508.887 70.6985C509.525 71.1672 510.906 71.8118 513.028 72.6321C514.812 73.3222 516.108 73.9537 516.915 74.5266C517.722 75.0995 518.321 75.7636 518.712 76.5188C519.102 77.261 519.298 78.1529 519.298 79.1946Z" fill="white"/>
<path d="M30.6062 31.3469H25.5281L20.6843 14.3157C20.476 13.5735 20.2156 12.5058 19.9031 11.1125C19.5906 9.7063 19.4018 8.72974 19.3367 8.18286C19.2065 9.01619 18.9916 10.0969 18.6921 11.425C18.4057 12.7532 18.1648 13.7428 17.9695 14.3938L13.2429 31.3469H8.16479L4.47339 17.05L0.723389 2.79224H5.48901L9.57104 19.4329C10.2091 22.1021 10.6648 24.4589 10.9382 26.5032C11.0815 25.3964 11.2963 24.1594 11.5828 22.7922C11.8692 21.425 12.1296 20.3183 12.364 19.4719L17.0125 2.79224H21.6414L26.407 19.55C26.8627 21.0995 27.3445 23.4172 27.8523 26.5032C28.0476 24.6412 28.5164 22.2714 29.2585 19.3938L33.321 2.79224H38.0476L30.6062 31.3469ZM51.0554 31.7375C47.696 31.7375 45.0658 30.761 43.1648 28.8079C41.2768 26.8417 40.3328 24.1399 40.3328 20.7024C40.3328 17.1737 41.2117 14.4003 42.9695 12.3821C44.7273 10.3639 47.1427 9.35474 50.2156 9.35474C53.0671 9.35474 55.3197 10.2206 56.9734 11.9524C58.627 13.6842 59.4539 16.067 59.4539 19.1008V21.5813H45.0593C45.1244 23.6777 45.6908 25.2922 46.7585 26.425C47.8263 27.5448 49.3302 28.1047 51.2703 28.1047C52.5463 28.1047 53.7312 27.9875 54.825 27.7532C55.9317 27.5058 57.1166 27.1021 58.3796 26.5422V30.2727C57.2598 30.8066 56.127 31.1842 54.9812 31.4055C53.8354 31.6269 52.5268 31.7375 51.0554 31.7375ZM50.2156 12.8313C48.7572 12.8313 47.5854 13.2935 46.7 14.218C45.8276 15.1425 45.3067 16.4902 45.1375 18.261H54.9421C54.9161 16.4771 54.4864 15.1295 53.6531 14.218C52.8197 13.2935 51.6739 12.8313 50.2156 12.8313ZM69.2585 31.3469H64.6687V0.956299H69.2585V31.3469ZM84.5515 31.7375C81.2833 31.7375 78.7963 30.787 77.0906 28.886C75.3979 26.9719 74.5515 24.231 74.5515 20.6633C74.5515 17.0305 75.4369 14.2375 77.2078 12.2844C78.9916 10.3313 81.5632 9.35474 84.9226 9.35474C87.2013 9.35474 89.252 9.77791 91.075 10.6243L89.6882 14.3157C87.7481 13.5605 86.1466 13.1829 84.8835 13.1829C81.1466 13.1829 79.2781 15.6633 79.2781 20.6243C79.2781 23.0461 79.7403 24.8691 80.6648 26.093C81.6023 27.304 82.9695 27.9094 84.7664 27.9094C86.8106 27.9094 88.7442 27.4016 90.5671 26.386V30.3899C89.7468 30.8717 88.8679 31.2167 87.9304 31.425C87.0059 31.6334 85.8796 31.7375 84.5515 31.7375ZM114.805 20.5071C114.805 24.0357 113.9 26.7896 112.091 28.7688C110.281 30.748 107.761 31.7375 104.532 31.7375C102.514 31.7375 100.73 31.2818 99.1804 30.3704C97.6309 29.4589 96.4395 28.1503 95.6062 26.4446C94.7729 24.7389 94.3562 22.7597 94.3562 20.5071C94.3562 17.0045 95.2546 14.2701 97.0515 12.304C98.8484 10.3378 101.381 9.35474 104.649 9.35474C107.774 9.35474 110.248 10.3639 112.071 12.3821C113.894 14.3873 114.805 17.0956 114.805 20.5071ZM99.0828 20.5071C99.0828 25.4941 100.925 27.9875 104.61 27.9875C108.256 27.9875 110.079 25.4941 110.079 20.5071C110.079 15.5722 108.243 13.1047 104.571 13.1047C102.644 13.1047 101.244 13.7428 100.372 15.0188C99.5125 16.2948 99.0828 18.1243 99.0828 20.5071ZM138.302 31.3469H133.692V18.0266C133.692 16.373 133.38 15.1425 132.755 14.3352C132.13 13.5149 131.153 13.1047 129.825 13.1047C128.054 13.1047 126.752 13.6842 125.919 14.843C125.098 15.9889 124.688 17.9029 124.688 20.5852V31.3469H120.098V9.74536H123.692L124.337 12.5774H124.571C125.17 11.5487 126.036 10.7545 127.169 10.1946C128.315 9.63468 129.571 9.35474 130.938 9.35474C134.259 9.35474 136.459 10.4875 137.54 12.7532H137.852C138.49 11.6855 139.389 10.8521 140.548 10.2532C141.706 9.65422 143.035 9.35474 144.532 9.35474C147.11 9.35474 148.985 10.0058 150.157 11.3079C151.342 12.6099 151.934 14.5956 151.934 17.2649V31.3469H147.344V18.0266C147.344 16.373 147.025 15.1425 146.387 14.3352C145.762 13.5149 144.786 13.1047 143.458 13.1047C141.674 13.1047 140.365 13.6646 139.532 14.7844C138.712 15.8912 138.302 17.5969 138.302 19.9016V31.3469ZM167.774 31.7375C164.415 31.7375 161.785 30.761 159.884 28.8079C157.996 26.8417 157.052 24.1399 157.052 20.7024C157.052 17.1737 157.93 14.4003 159.688 12.3821C161.446 10.3639 163.861 9.35474 166.934 9.35474C169.786 9.35474 172.038 10.2206 173.692 11.9524C175.346 13.6842 176.173 16.067 176.173 19.1008V21.5813H161.778C161.843 23.6777 162.41 25.2922 163.477 26.425C164.545 27.5448 166.049 28.1047 167.989 28.1047C169.265 28.1047 170.45 27.9875 171.544 27.7532C172.65 27.5058 173.835 27.1021 175.098 26.5422V30.2727C173.979 30.8066 172.846 31.1842 171.7 31.4055C170.554 31.6269 169.246 31.7375 167.774 31.7375ZM166.934 12.8313C165.476 12.8313 164.304 13.2935 163.419 14.218C162.546 15.1425 162.025 16.4902 161.856 18.261H171.661C171.635 16.4771 171.205 15.1295 170.372 14.218C169.538 13.2935 168.393 12.8313 166.934 12.8313ZM199.825 28.0266C200.945 28.0266 202.065 27.8508 203.184 27.4993V30.9563C202.677 31.1777 202.019 31.3599 201.212 31.5032C200.417 31.6594 199.591 31.7375 198.731 31.7375C194.382 31.7375 192.208 29.4459 192.208 24.8625V13.2219H189.259V11.1907L192.423 9.51099L193.985 4.94067H196.817V9.74536H202.969V13.2219H196.817V24.7844C196.817 25.8912 197.091 26.7115 197.637 27.2454C198.197 27.7662 198.927 28.0266 199.825 28.0266ZM226.68 20.5071C226.68 24.0357 225.775 26.7896 223.966 28.7688C222.156 30.748 219.636 31.7375 216.407 31.7375C214.389 31.7375 212.605 31.2818 211.055 30.3704C209.506 29.4589 208.315 28.1503 207.481 26.4446C206.648 24.7389 206.231 22.7597 206.231 20.5071C206.231 17.0045 207.13 14.2701 208.927 12.304C210.723 10.3378 213.256 9.35474 216.524 9.35474C219.649 9.35474 222.123 10.3639 223.946 12.3821C225.769 14.3873 226.68 17.0956 226.68 20.5071ZM210.958 20.5071C210.958 25.4941 212.8 27.9875 216.485 27.9875C220.131 27.9875 221.954 25.4941 221.954 20.5071C221.954 15.5722 220.118 13.1047 216.446 13.1047C214.519 13.1047 213.119 13.7428 212.247 15.0188C211.387 16.2948 210.958 18.1243 210.958 20.5071ZM197.54 67.2219H192.266V85.3469H187.657V67.2219H184.102V65.0735L187.657 63.6672V62.261C187.657 59.7089 188.256 57.8209 189.454 56.5969C190.652 55.3599 192.481 54.7415 194.942 54.7415C196.557 54.7415 198.145 55.0084 199.708 55.5422L198.497 59.0188C197.364 58.6542 196.283 58.4719 195.255 58.4719C194.213 58.4719 193.451 58.7974 192.969 59.4485C192.501 60.0865 192.266 61.05 192.266 62.3391V63.7454H197.54V67.2219ZM220.391 74.5071C220.391 78.0357 219.486 80.7896 217.677 82.7688C215.867 84.748 213.347 85.7375 210.118 85.7375C208.1 85.7375 206.316 85.2818 204.766 84.3704C203.217 83.4589 202.025 82.1503 201.192 80.4446C200.359 78.7389 199.942 76.7597 199.942 74.5071C199.942 71.0045 200.841 68.2701 202.637 66.304C204.434 64.3378 206.967 63.3547 210.235 63.3547C213.36 63.3547 215.834 64.3639 217.657 66.3821C219.48 68.3873 220.391 71.0956 220.391 74.5071ZM204.669 74.5071C204.669 79.4941 206.511 81.9875 210.196 81.9875C213.842 81.9875 215.665 79.4941 215.665 74.5071C215.665 69.5722 213.829 67.1047 210.157 67.1047C208.23 67.1047 206.83 67.7428 205.958 69.0188C205.098 70.2948 204.669 72.1243 204.669 74.5071ZM236.641 63.3547C237.566 63.3547 238.328 63.4198 238.927 63.55L238.477 67.8274C237.826 67.6711 237.149 67.593 236.446 67.593C234.61 67.593 233.119 68.192 231.973 69.3899C230.841 70.5878 230.274 72.1438 230.274 74.0579V85.3469H225.684V63.7454H229.278L229.884 67.554H230.118C230.834 66.2649 231.765 65.2428 232.911 64.4875C234.07 63.7323 235.313 63.3547 236.641 63.3547ZM253.829 56.7922H262.305C266.238 56.7922 269.076 57.3652 270.821 58.511C272.579 59.6568 273.458 61.4667 273.458 63.9407C273.458 65.6073 273.028 66.9941 272.169 68.1008C271.309 69.2076 270.072 69.9042 268.458 70.1907V70.386C270.463 70.7636 271.934 71.5123 272.872 72.6321C273.822 73.7389 274.298 75.2428 274.298 77.1438C274.298 79.7089 273.399 81.7206 271.602 83.179C269.818 84.6243 267.331 85.3469 264.141 85.3469H253.829V56.7922ZM258.497 68.5891H262.989C264.942 68.5891 266.368 68.2831 267.266 67.6711C268.165 67.0461 268.614 65.9915 268.614 64.5071C268.614 63.1659 268.126 62.1959 267.149 61.5969C266.186 60.998 264.649 60.6985 262.54 60.6985H258.497V68.5891ZM258.497 72.3782V81.4211H263.458C265.411 81.4211 266.882 81.05 267.872 80.3079C268.874 79.5527 269.376 78.3678 269.376 76.7532C269.376 75.2688 268.868 74.1685 267.852 73.4524C266.837 72.7362 265.294 72.3782 263.223 72.3782H258.497ZM289.18 85.7375C285.821 85.7375 283.191 84.761 281.29 82.8079C279.402 80.8417 278.458 78.1399 278.458 74.7024C278.458 71.1737 279.337 68.4003 281.094 66.3821C282.852 64.3639 285.268 63.3547 288.341 63.3547C291.192 63.3547 293.445 64.2206 295.098 65.9524C296.752 67.6842 297.579 70.067 297.579 73.1008V75.5813H283.184C283.249 77.6777 283.816 79.2922 284.884 80.425C285.951 81.5448 287.455 82.1047 289.395 82.1047C290.671 82.1047 291.856 81.9875 292.95 81.7532C294.057 81.5058 295.242 81.1021 296.505 80.5422V84.2727C295.385 84.8066 294.252 85.1842 293.106 85.4055C291.96 85.6269 290.652 85.7375 289.18 85.7375ZM288.341 66.8313C286.882 66.8313 285.71 67.2935 284.825 68.218C283.953 69.1425 283.432 70.4902 283.262 72.261H293.067C293.041 70.4771 292.611 69.1295 291.778 68.218C290.945 67.2935 289.799 66.8313 288.341 66.8313ZM317.305 79.1946C317.305 81.304 316.537 82.925 315.001 84.0579C313.464 85.1777 311.264 85.7375 308.399 85.7375C305.522 85.7375 303.21 85.3014 301.466 84.429V80.4641C304.005 81.636 306.368 82.2219 308.555 82.2219C311.381 82.2219 312.794 81.3691 312.794 79.6633C312.794 79.1165 312.637 78.6607 312.325 78.2961C312.012 77.9316 311.498 77.554 310.782 77.1633C310.066 76.7727 309.07 76.33 307.794 75.8352C305.307 74.8717 303.621 73.9081 302.735 72.9446C301.863 71.981 301.427 70.731 301.427 69.1946C301.427 67.3456 302.169 65.9133 303.653 64.8977C305.15 63.8691 307.182 63.3547 309.747 63.3547C312.286 63.3547 314.688 63.8691 316.954 64.8977L315.469 68.3547C313.139 67.3912 311.179 66.9094 309.591 66.9094C307.169 66.9094 305.958 67.5995 305.958 68.9797C305.958 69.6568 306.27 70.2297 306.895 70.6985C307.533 71.1672 308.913 71.8118 311.036 72.6321C312.82 73.3222 314.115 73.9537 314.923 74.5266C315.73 75.0995 316.329 75.7636 316.719 76.5188C317.11 77.261 317.305 78.1529 317.305 79.1946ZM330.333 82.0266C331.453 82.0266 332.572 81.8508 333.692 81.4993V84.9563C333.184 85.1777 332.527 85.3599 331.719 85.5032C330.925 85.6594 330.098 85.7375 329.239 85.7375C324.89 85.7375 322.716 83.4459 322.716 78.8625V67.2219H319.766V65.1907L322.93 63.511L324.493 58.9407H327.325V63.7454H333.477V67.2219H327.325V78.7844C327.325 79.8912 327.598 80.7115 328.145 81.2454C328.705 81.7662 329.434 82.0266 330.333 82.0266ZM365.372 77.593C365.372 80.1321 364.454 82.1243 362.618 83.5696C360.782 85.0149 358.249 85.7375 355.02 85.7375C351.791 85.7375 349.148 85.2362 347.091 84.2336V79.8196C348.393 80.4316 349.773 80.9133 351.231 81.2649C352.703 81.6165 354.07 81.7922 355.333 81.7922C357.182 81.7922 358.542 81.4407 359.415 80.7375C360.3 80.0344 360.743 79.0904 360.743 77.9055C360.743 76.8378 360.339 75.9329 359.532 75.1907C358.725 74.4485 357.058 73.5696 354.532 72.554C351.928 71.4993 350.092 70.2948 349.024 68.9407C347.956 67.5865 347.423 65.9589 347.423 64.0579C347.423 61.675 348.269 59.8 349.962 58.4329C351.654 57.0657 353.927 56.3821 356.778 56.3821C359.512 56.3821 362.234 56.981 364.942 58.179L363.458 61.9875C360.919 60.9198 358.653 60.386 356.661 60.386C355.15 60.386 354.005 60.718 353.223 61.3821C352.442 62.0331 352.052 62.899 352.052 63.9797C352.052 64.7219 352.208 65.3599 352.52 65.8938C352.833 66.4146 353.347 66.9094 354.063 67.3782C354.779 67.8469 356.068 68.4654 357.93 69.2336C360.027 70.106 361.563 70.9198 362.54 71.675C363.516 72.4303 364.233 73.2831 364.688 74.2336C365.144 75.1842 365.372 76.304 365.372 77.593ZM381.368 85.7375C378.634 85.7375 376.511 84.7545 375.001 82.7883H374.727C374.91 84.6112 375.001 85.718 375.001 86.1086V94.9563H370.411V63.7454H374.122C374.226 64.149 374.441 65.1125 374.766 66.636H375.001C376.433 64.4485 378.581 63.3547 381.446 63.3547C384.141 63.3547 386.238 64.3313 387.735 66.2844C389.246 68.2375 390.001 70.9784 390.001 74.5071C390.001 78.0357 389.233 80.7896 387.696 82.7688C386.173 84.748 384.063 85.7375 381.368 85.7375ZM380.255 67.1047C378.432 67.1047 377.097 67.6386 376.251 68.7063C375.417 69.774 375.001 71.4797 375.001 73.8235V74.5071C375.001 77.1373 375.417 79.0448 376.251 80.2297C377.084 81.4016 378.445 81.9875 380.333 81.9875C381.921 81.9875 383.145 81.3365 384.005 80.0344C384.864 78.7323 385.294 76.8769 385.294 74.468C385.294 72.0461 384.864 70.2167 384.005 68.9797C383.158 67.7297 381.908 67.1047 380.255 67.1047ZM404.766 85.7375C401.407 85.7375 398.777 84.761 396.876 82.8079C394.988 80.8417 394.044 78.1399 394.044 74.7024C394.044 71.1737 394.923 68.4003 396.68 66.3821C398.438 64.3639 400.854 63.3547 403.927 63.3547C406.778 63.3547 409.031 64.2206 410.684 65.9524C412.338 67.6842 413.165 70.067 413.165 73.1008V75.5813H398.77C398.835 77.6777 399.402 79.2922 400.469 80.425C401.537 81.5448 403.041 82.1047 404.981 82.1047C406.257 82.1047 407.442 81.9875 408.536 81.7532C409.643 81.5058 410.828 81.1021 412.091 80.5422V84.2727C410.971 84.8066 409.838 85.1842 408.692 85.4055C407.546 85.6269 406.238 85.7375 404.766 85.7375ZM403.927 66.8313C402.468 66.8313 401.296 67.2935 400.411 68.218C399.538 69.1425 399.018 70.4902 398.848 72.261H408.653C408.627 70.4771 408.197 69.1295 407.364 68.218C406.531 67.2935 405.385 66.8313 403.927 66.8313ZM431.895 85.3469L430.977 82.3391H430.821C429.779 83.6542 428.731 84.5527 427.677 85.0344C426.622 85.5032 425.268 85.7375 423.614 85.7375C421.492 85.7375 419.831 85.1646 418.634 84.0188C417.449 82.873 416.856 81.2519 416.856 79.1555C416.856 76.929 417.683 75.2493 419.337 74.1165C420.99 72.9836 423.51 72.3652 426.895 72.261L430.626 72.1438V70.9915C430.626 69.6112 430.3 68.5826 429.649 67.9055C429.011 67.2154 428.015 66.8704 426.661 66.8704C425.554 66.8704 424.493 67.0331 423.477 67.3586C422.462 67.6842 421.485 68.0683 420.548 68.511L419.063 65.2297C420.235 64.6178 421.518 64.1555 422.911 63.843C424.304 63.5175 425.619 63.3547 426.856 63.3547C429.604 63.3547 431.674 63.9537 433.067 65.1516C434.473 66.3495 435.177 68.231 435.177 70.7961V85.3469H431.895ZM425.059 82.2219C426.726 82.2219 428.061 81.7597 429.063 80.8352C430.079 79.8977 430.587 78.5891 430.587 76.9094V75.0344L427.813 75.1516C425.652 75.2297 424.076 75.5943 423.087 76.2454C422.11 76.8834 421.622 77.8665 421.622 79.1946C421.622 80.1581 421.908 80.9068 422.481 81.4407C423.054 81.9615 423.913 82.2219 425.059 82.2219ZM446.016 73.9407L448.614 70.6985L455.137 63.7454H460.43L451.739 73.0227L460.977 85.3469H455.587L448.653 75.8743L446.134 77.9446V85.3469H441.583V54.9563H446.134V69.7805L445.899 73.9407H446.016ZM473.907 85.7375C470.548 85.7375 467.917 84.761 466.016 82.8079C464.128 80.8417 463.184 78.1399 463.184 74.7024C463.184 71.1737 464.063 68.4003 465.821 66.3821C467.579 64.3639 469.994 63.3547 473.067 63.3547C475.919 63.3547 478.171 64.2206 479.825 65.9524C481.479 67.6842 482.305 70.067 482.305 73.1008V75.5813H467.911C467.976 77.6777 468.542 79.2922 469.61 80.425C470.678 81.5448 472.182 82.1047 474.122 82.1047C475.398 82.1047 476.583 81.9875 477.677 81.7532C478.783 81.5058 479.968 81.1021 481.231 80.5422V84.2727C480.111 84.8066 478.979 85.1842 477.833 85.4055C476.687 85.6269 475.378 85.7375 473.907 85.7375ZM473.067 66.8313C471.609 66.8313 470.437 67.2935 469.552 68.218C468.679 69.1425 468.158 70.4902 467.989 72.261H477.794C477.768 70.4771 477.338 69.1295 476.505 68.218C475.671 67.2935 474.525 66.8313 473.067 66.8313ZM498.477 63.3547C499.402 63.3547 500.163 63.4198 500.762 63.55L500.313 67.8274C499.662 67.6711 498.985 67.593 498.282 67.593C496.446 67.593 494.955 68.192 493.809 69.3899C492.677 70.5878 492.11 72.1438 492.11 74.0579V85.3469H487.52V63.7454H491.114L491.719 67.554H491.954C492.67 66.2649 493.601 65.2428 494.747 64.4875C495.906 63.7323 497.149 63.3547 498.477 63.3547ZM519.298 79.1946C519.298 81.304 518.529 82.925 516.993 84.0579C515.456 85.1777 513.256 85.7375 510.391 85.7375C507.514 85.7375 505.203 85.3014 503.458 84.429V80.4641C505.997 81.636 508.36 82.2219 510.548 82.2219C513.373 82.2219 514.786 81.3691 514.786 79.6633C514.786 79.1165 514.63 78.6607 514.317 78.2961C514.005 77.9316 513.49 77.554 512.774 77.1633C512.058 76.7727 511.062 76.33 509.786 75.8352C507.299 74.8717 505.613 73.9081 504.727 72.9446C503.855 71.981 503.419 70.731 503.419 69.1946C503.419 67.3456 504.161 65.9133 505.645 64.8977C507.143 63.8691 509.174 63.3547 511.739 63.3547C514.278 63.3547 516.68 63.8691 518.946 64.8977L517.462 68.3547C515.131 67.3912 513.171 66.9094 511.583 66.9094C509.161 66.9094 507.95 67.5995 507.95 68.9797C507.95 69.6568 508.262 70.2297 508.887 70.6985C509.525 71.1672 510.906 71.8118 513.028 72.6321C514.812 73.3222 516.108 73.9537 516.915 74.5266C517.722 75.0995 518.321 75.7636 518.712 76.5188C519.102 77.261 519.298 78.1529 519.298 79.1946Z" fill="url(#paint0_linear)"/>
<path d="M30.6062 31.3469H25.5281L20.6843 14.3157C20.476 13.5735 20.2156 12.5058 19.9031 11.1125C19.5906 9.7063 19.4018 8.72974 19.3367 8.18286C19.2065 9.01619 18.9916 10.0969 18.6921 11.425C18.4057 12.7532 18.1648 13.7428 17.9695 14.3938L13.2429 31.3469H8.16479L4.47339 17.05L0.723389 2.79224H5.48901L9.57104 19.4329C10.2091 22.1021 10.6648 24.4589 10.9382 26.5032C11.0815 25.3964 11.2963 24.1594 11.5828 22.7922C11.8692 21.425 12.1296 20.3183 12.364 19.4719L17.0125 2.79224H21.6414L26.407 19.55C26.8627 21.0995 27.3445 23.4172 27.8523 26.5032C28.0476 24.6412 28.5164 22.2714 29.2585 19.3938L33.321 2.79224H38.0476L30.6062 31.3469ZM51.0554 31.7375C47.696 31.7375 45.0658 30.761 43.1648 28.8079C41.2768 26.8417 40.3328 24.1399 40.3328 20.7024C40.3328 17.1737 41.2117 14.4003 42.9695 12.3821C44.7273 10.3639 47.1427 9.35474 50.2156 9.35474C53.0671 9.35474 55.3197 10.2206 56.9734 11.9524C58.627 13.6842 59.4539 16.067 59.4539 19.1008V21.5813H45.0593C45.1244 23.6777 45.6908 25.2922 46.7585 26.425C47.8263 27.5448 49.3302 28.1047 51.2703 28.1047C52.5463 28.1047 53.7312 27.9875 54.825 27.7532C55.9317 27.5058 57.1166 27.1021 58.3796 26.5422V30.2727C57.2598 30.8066 56.127 31.1842 54.9812 31.4055C53.8354 31.6269 52.5268 31.7375 51.0554 31.7375ZM50.2156 12.8313C48.7572 12.8313 47.5854 13.2935 46.7 14.218C45.8276 15.1425 45.3067 16.4902 45.1375 18.261H54.9421C54.9161 16.4771 54.4864 15.1295 53.6531 14.218C52.8197 13.2935 51.6739 12.8313 50.2156 12.8313ZM69.2585 31.3469H64.6687V0.956299H69.2585V31.3469ZM84.5515 31.7375C81.2833 31.7375 78.7963 30.787 77.0906 28.886C75.3979 26.9719 74.5515 24.231 74.5515 20.6633C74.5515 17.0305 75.4369 14.2375 77.2078 12.2844C78.9916 10.3313 81.5632 9.35474 84.9226 9.35474C87.2013 9.35474 89.252 9.77791 91.075 10.6243L89.6882 14.3157C87.7481 13.5605 86.1466 13.1829 84.8835 13.1829C81.1466 13.1829 79.2781 15.6633 79.2781 20.6243C79.2781 23.0461 79.7403 24.8691 80.6648 26.093C81.6023 27.304 82.9695 27.9094 84.7664 27.9094C86.8106 27.9094 88.7442 27.4016 90.5671 26.386V30.3899C89.7468 30.8717 88.8679 31.2167 87.9304 31.425C87.0059 31.6334 85.8796 31.7375 84.5515 31.7375ZM114.805 20.5071C114.805 24.0357 113.9 26.7896 112.091 28.7688C110.281 30.748 107.761 31.7375 104.532 31.7375C102.514 31.7375 100.73 31.2818 99.1804 30.3704C97.6309 29.4589 96.4395 28.1503 95.6062 26.4446C94.7729 24.7389 94.3562 22.7597 94.3562 20.5071C94.3562 17.0045 95.2546 14.2701 97.0515 12.304C98.8484 10.3378 101.381 9.35474 104.649 9.35474C107.774 9.35474 110.248 10.3639 112.071 12.3821C113.894 14.3873 114.805 17.0956 114.805 20.5071ZM99.0828 20.5071C99.0828 25.4941 100.925 27.9875 104.61 27.9875C108.256 27.9875 110.079 25.4941 110.079 20.5071C110.079 15.5722 108.243 13.1047 104.571 13.1047C102.644 13.1047 101.244 13.7428 100.372 15.0188C99.5125 16.2948 99.0828 18.1243 99.0828 20.5071ZM138.302 31.3469H133.692V18.0266C133.692 16.373 133.38 15.1425 132.755 14.3352C132.13 13.5149 131.153 13.1047 129.825 13.1047C128.054 13.1047 126.752 13.6842 125.919 14.843C125.098 15.9889 124.688 17.9029 124.688 20.5852V31.3469H120.098V9.74536H123.692L124.337 12.5774H124.571C125.17 11.5487 126.036 10.7545 127.169 10.1946C128.315 9.63468 129.571 9.35474 130.938 9.35474C134.259 9.35474 136.459 10.4875 137.54 12.7532H137.852C138.49 11.6855 139.389 10.8521 140.548 10.2532C141.706 9.65422 143.035 9.35474 144.532 9.35474C147.11 9.35474 148.985 10.0058 150.157 11.3079C151.342 12.6099 151.934 14.5956 151.934 17.2649V31.3469H147.344V18.0266C147.344 16.373 147.025 15.1425 146.387 14.3352C145.762 13.5149 144.786 13.1047 143.458 13.1047C141.674 13.1047 140.365 13.6646 139.532 14.7844C138.712 15.8912 138.302 17.5969 138.302 19.9016V31.3469ZM167.774 31.7375C164.415 31.7375 161.785 30.761 159.884 28.8079C157.996 26.8417 157.052 24.1399 157.052 20.7024C157.052 17.1737 157.93 14.4003 159.688 12.3821C161.446 10.3639 163.861 9.35474 166.934 9.35474C169.786 9.35474 172.038 10.2206 173.692 11.9524C175.346 13.6842 176.173 16.067 176.173 19.1008V21.5813H161.778C161.843 23.6777 162.41 25.2922 163.477 26.425C164.545 27.5448 166.049 28.1047 167.989 28.1047C169.265 28.1047 170.45 27.9875 171.544 27.7532C172.65 27.5058 173.835 27.1021 175.098 26.5422V30.2727C173.979 30.8066 172.846 31.1842 171.7 31.4055C170.554 31.6269 169.246 31.7375 167.774 31.7375ZM166.934 12.8313C165.476 12.8313 164.304 13.2935 163.419 14.218C162.546 15.1425 162.025 16.4902 161.856 18.261H171.661C171.635 16.4771 171.205 15.1295 170.372 14.218C169.538 13.2935 168.393 12.8313 166.934 12.8313ZM199.825 28.0266C200.945 28.0266 202.065 27.8508 203.184 27.4993V30.9563C202.677 31.1777 202.019 31.3599 201.212 31.5032C200.417 31.6594 199.591 31.7375 198.731 31.7375C194.382 31.7375 192.208 29.4459 192.208 24.8625V13.2219H189.259V11.1907L192.423 9.51099L193.985 4.94067H196.817V9.74536H202.969V13.2219H196.817V24.7844C196.817 25.8912 197.091 26.7115 197.637 27.2454C198.197 27.7662 198.927 28.0266 199.825 28.0266ZM226.68 20.5071C226.68 24.0357 225.775 26.7896 223.966 28.7688C222.156 30.748 219.636 31.7375 216.407 31.7375C214.389 31.7375 212.605 31.2818 211.055 30.3704C209.506 29.4589 208.315 28.1503 207.481 26.4446C206.648 24.7389 206.231 22.7597 206.231 20.5071C206.231 17.0045 207.13 14.2701 208.927 12.304C210.723 10.3378 213.256 9.35474 216.524 9.35474C219.649 9.35474 222.123 10.3639 223.946 12.3821C225.769 14.3873 226.68 17.0956 226.68 20.5071ZM210.958 20.5071C210.958 25.4941 212.8 27.9875 216.485 27.9875C220.131 27.9875 221.954 25.4941 221.954 20.5071C221.954 15.5722 220.118 13.1047 216.446 13.1047C214.519 13.1047 213.119 13.7428 212.247 15.0188C211.387 16.2948 210.958 18.1243 210.958 20.5071ZM197.54 67.2219H192.266V85.3469H187.657V67.2219H184.102V65.0735L187.657 63.6672V62.261C187.657 59.7089 188.256 57.8209 189.454 56.5969C190.652 55.3599 192.481 54.7415 194.942 54.7415C196.557 54.7415 198.145 55.0084 199.708 55.5422L198.497 59.0188C197.364 58.6542 196.283 58.4719 195.255 58.4719C194.213 58.4719 193.451 58.7974 192.969 59.4485C192.501 60.0865 192.266 61.05 192.266 62.3391V63.7454H197.54V67.2219ZM220.391 74.5071C220.391 78.0357 219.486 80.7896 217.677 82.7688C215.867 84.748 213.347 85.7375 210.118 85.7375C208.1 85.7375 206.316 85.2818 204.766 84.3704C203.217 83.4589 202.025 82.1503 201.192 80.4446C200.359 78.7389 199.942 76.7597 199.942 74.5071C199.942 71.0045 200.841 68.2701 202.637 66.304C204.434 64.3378 206.967 63.3547 210.235 63.3547C213.36 63.3547 215.834 64.3639 217.657 66.3821C219.48 68.3873 220.391 71.0956 220.391 74.5071ZM204.669 74.5071C204.669 79.4941 206.511 81.9875 210.196 81.9875C213.842 81.9875 215.665 79.4941 215.665 74.5071C215.665 69.5722 213.829 67.1047 210.157 67.1047C208.23 67.1047 206.83 67.7428 205.958 69.0188C205.098 70.2948 204.669 72.1243 204.669 74.5071ZM236.641 63.3547C237.566 63.3547 238.328 63.4198 238.927 63.55L238.477 67.8274C237.826 67.6711 237.149 67.593 236.446 67.593C234.61 67.593 233.119 68.192 231.973 69.3899C230.841 70.5878 230.274 72.1438 230.274 74.0579V85.3469H225.684V63.7454H229.278L229.884 67.554H230.118C230.834 66.2649 231.765 65.2428 232.911 64.4875C234.07 63.7323 235.313 63.3547 236.641 63.3547ZM253.829 56.7922H262.305C266.238 56.7922 269.076 57.3652 270.821 58.511C272.579 59.6568 273.458 61.4667 273.458 63.9407C273.458 65.6073 273.028 66.9941 272.169 68.1008C271.309 69.2076 270.072 69.9042 268.458 70.1907V70.386C270.463 70.7636 271.934 71.5123 272.872 72.6321C273.822 73.7389 274.298 75.2428 274.298 77.1438C274.298 79.7089 273.399 81.7206 271.602 83.179C269.818 84.6243 267.331 85.3469 264.141 85.3469H253.829V56.7922ZM258.497 68.5891H262.989C264.942 68.5891 266.368 68.2831 267.266 67.6711C268.165 67.0461 268.614 65.9915 268.614 64.5071C268.614 63.1659 268.126 62.1959 267.149 61.5969C266.186 60.998 264.649 60.6985 262.54 60.6985H258.497V68.5891ZM258.497 72.3782V81.4211H263.458C265.411 81.4211 266.882 81.05 267.872 80.3079C268.874 79.5527 269.376 78.3678 269.376 76.7532C269.376 75.2688 268.868 74.1685 267.852 73.4524C266.837 72.7362 265.294 72.3782 263.223 72.3782H258.497ZM289.18 85.7375C285.821 85.7375 283.191 84.761 281.29 82.8079C279.402 80.8417 278.458 78.1399 278.458 74.7024C278.458 71.1737 279.337 68.4003 281.094 66.3821C282.852 64.3639 285.268 63.3547 288.341 63.3547C291.192 63.3547 293.445 64.2206 295.098 65.9524C296.752 67.6842 297.579 70.067 297.579 73.1008V75.5813H283.184C283.249 77.6777 283.816 79.2922 284.884 80.425C285.951 81.5448 287.455 82.1047 289.395 82.1047C290.671 82.1047 291.856 81.9875 292.95 81.7532C294.057 81.5058 295.242 81.1021 296.505 80.5422V84.2727C295.385 84.8066 294.252 85.1842 293.106 85.4055C291.96 85.6269 290.652 85.7375 289.18 85.7375ZM288.341 66.8313C286.882 66.8313 285.71 67.2935 284.825 68.218C283.953 69.1425 283.432 70.4902 283.262 72.261H293.067C293.041 70.4771 292.611 69.1295 291.778 68.218C290.945 67.2935 289.799 66.8313 288.341 66.8313ZM317.305 79.1946C317.305 81.304 316.537 82.925 315.001 84.0579C313.464 85.1777 311.264 85.7375 308.399 85.7375C305.522 85.7375 303.21 85.3014 301.466 84.429V80.4641C304.005 81.636 306.368 82.2219 308.555 82.2219C311.381 82.2219 312.794 81.3691 312.794 79.6633C312.794 79.1165 312.637 78.6607 312.325 78.2961C312.012 77.9316 311.498 77.554 310.782 77.1633C310.066 76.7727 309.07 76.33 307.794 75.8352C305.307 74.8717 303.621 73.9081 302.735 72.9446C301.863 71.981 301.427 70.731 301.427 69.1946C301.427 67.3456 302.169 65.9133 303.653 64.8977C305.15 63.8691 307.182 63.3547 309.747 63.3547C312.286 63.3547 314.688 63.8691 316.954 64.8977L315.469 68.3547C313.139 67.3912 311.179 66.9094 309.591 66.9094C307.169 66.9094 305.958 67.5995 305.958 68.9797C305.958 69.6568 306.27 70.2297 306.895 70.6985C307.533 71.1672 308.913 71.8118 311.036 72.6321C312.82 73.3222 314.115 73.9537 314.923 74.5266C315.73 75.0995 316.329 75.7636 316.719 76.5188C317.11 77.261 317.305 78.1529 317.305 79.1946ZM330.333 82.0266C331.453 82.0266 332.572 81.8508 333.692 81.4993V84.9563C333.184 85.1777 332.527 85.3599 331.719 85.5032C330.925 85.6594 330.098 85.7375 329.239 85.7375C324.89 85.7375 322.716 83.4459 322.716 78.8625V67.2219H319.766V65.1907L322.93 63.511L324.493 58.9407H327.325V63.7454H333.477V67.2219H327.325V78.7844C327.325 79.8912 327.598 80.7115 328.145 81.2454C328.705 81.7662 329.434 82.0266 330.333 82.0266ZM365.372 77.593C365.372 80.1321 364.454 82.1243 362.618 83.5696C360.782 85.0149 358.249 85.7375 355.02 85.7375C351.791 85.7375 349.148 85.2362 347.091 84.2336V79.8196C348.393 80.4316 349.773 80.9133 351.231 81.2649C352.703 81.6165 354.07 81.7922 355.333 81.7922C357.182 81.7922 358.542 81.4407 359.415 80.7375C360.3 80.0344 360.743 79.0904 360.743 77.9055C360.743 76.8378 360.339 75.9329 359.532 75.1907C358.725 74.4485 357.058 73.5696 354.532 72.554C351.928 71.4993 350.092 70.2948 349.024 68.9407C347.956 67.5865 347.423 65.9589 347.423 64.0579C347.423 61.675 348.269 59.8 349.962 58.4329C351.654 57.0657 353.927 56.3821 356.778 56.3821C359.512 56.3821 362.234 56.981 364.942 58.179L363.458 61.9875C360.919 60.9198 358.653 60.386 356.661 60.386C355.15 60.386 354.005 60.718 353.223 61.3821C352.442 62.0331 352.052 62.899 352.052 63.9797C352.052 64.7219 352.208 65.3599 352.52 65.8938C352.833 66.4146 353.347 66.9094 354.063 67.3782C354.779 67.8469 356.068 68.4654 357.93 69.2336C360.027 70.106 361.563 70.9198 362.54 71.675C363.516 72.4303 364.233 73.2831 364.688 74.2336C365.144 75.1842 365.372 76.304 365.372 77.593ZM381.368 85.7375C378.634 85.7375 376.511 84.7545 375.001 82.7883H374.727C374.91 84.6112 375.001 85.718 375.001 86.1086V94.9563H370.411V63.7454H374.122C374.226 64.149 374.441 65.1125 374.766 66.636H375.001C376.433 64.4485 378.581 63.3547 381.446 63.3547C384.141 63.3547 386.238 64.3313 387.735 66.2844C389.246 68.2375 390.001 70.9784 390.001 74.5071C390.001 78.0357 389.233 80.7896 387.696 82.7688C386.173 84.748 384.063 85.7375 381.368 85.7375ZM380.255 67.1047C378.432 67.1047 377.097 67.6386 376.251 68.7063C375.417 69.774 375.001 71.4797 375.001 73.8235V74.5071C375.001 77.1373 375.417 79.0448 376.251 80.2297C377.084 81.4016 378.445 81.9875 380.333 81.9875C381.921 81.9875 383.145 81.3365 384.005 80.0344C384.864 78.7323 385.294 76.8769 385.294 74.468C385.294 72.0461 384.864 70.2167 384.005 68.9797C383.158 67.7297 381.908 67.1047 380.255 67.1047ZM404.766 85.7375C401.407 85.7375 398.777 84.761 396.876 82.8079C394.988 80.8417 394.044 78.1399 394.044 74.7024C394.044 71.1737 394.923 68.4003 396.68 66.3821C398.438 64.3639 400.854 63.3547 403.927 63.3547C406.778 63.3547 409.031 64.2206 410.684 65.9524C412.338 67.6842 413.165 70.067 413.165 73.1008V75.5813H398.77C398.835 77.6777 399.402 79.2922 400.469 80.425C401.537 81.5448 403.041 82.1047 404.981 82.1047C406.257 82.1047 407.442 81.9875 408.536 81.7532C409.643 81.5058 410.828 81.1021 412.091 80.5422V84.2727C410.971 84.8066 409.838 85.1842 408.692 85.4055C407.546 85.6269 406.238 85.7375 404.766 85.7375ZM403.927 66.8313C402.468 66.8313 401.296 67.2935 400.411 68.218C399.538 69.1425 399.018 70.4902 398.848 72.261H408.653C408.627 70.4771 408.197 69.1295 407.364 68.218C406.531 67.2935 405.385 66.8313 403.927 66.8313ZM431.895 85.3469L430.977 82.3391H430.821C429.779 83.6542 428.731 84.5527 427.677 85.0344C426.622 85.5032 425.268 85.7375 423.614 85.7375C421.492 85.7375 419.831 85.1646 418.634 84.0188C417.449 82.873 416.856 81.2519 416.856 79.1555C416.856 76.929 417.683 75.2493 419.337 74.1165C420.99 72.9836 423.51 72.3652 426.895 72.261L430.626 72.1438V70.9915C430.626 69.6112 430.3 68.5826 429.649 67.9055C429.011 67.2154 428.015 66.8704 426.661 66.8704C425.554 66.8704 424.493 67.0331 423.477 67.3586C422.462 67.6842 421.485 68.0683 420.548 68.511L419.063 65.2297C420.235 64.6178 421.518 64.1555 422.911 63.843C424.304 63.5175 425.619 63.3547 426.856 63.3547C429.604 63.3547 431.674 63.9537 433.067 65.1516C434.473 66.3495 435.177 68.231 435.177 70.7961V85.3469H431.895ZM425.059 82.2219C426.726 82.2219 428.061 81.7597 429.063 80.8352C430.079 79.8977 430.587 78.5891 430.587 76.9094V75.0344L427.813 75.1516C425.652 75.2297 424.076 75.5943 423.087 76.2454C422.11 76.8834 421.622 77.8665 421.622 79.1946C421.622 80.1581 421.908 80.9068 422.481 81.4407C423.054 81.9615 423.913 82.2219 425.059 82.2219ZM446.016 73.9407L448.614 70.6985L455.137 63.7454H460.43L451.739 73.0227L460.977 85.3469H455.587L448.653 75.8743L446.134 77.9446V85.3469H441.583V54.9563H446.134V69.7805L445.899 73.9407H446.016ZM473.907 85.7375C470.548 85.7375 467.917 84.761 466.016 82.8079C464.128 80.8417 463.184 78.1399 463.184 74.7024C463.184 71.1737 464.063 68.4003 465.821 66.3821C467.579 64.3639 469.994 63.3547 473.067 63.3547C475.919 63.3547 478.171 64.2206 479.825 65.9524C481.479 67.6842 482.305 70.067 482.305 73.1008V75.5813H467.911C467.976 77.6777 468.542 79.2922 469.61 80.425C470.678 81.5448 472.182 82.1047 474.122 82.1047C475.398 82.1047 476.583 81.9875 477.677 81.7532C478.783 81.5058 479.968 81.1021 481.231 80.5422V84.2727C480.111 84.8066 478.979 85.1842 477.833 85.4055C476.687 85.6269 475.378 85.7375 473.907 85.7375ZM473.067 66.8313C471.609 66.8313 470.437 67.2935 469.552 68.218C468.679 69.1425 468.158 70.4902 467.989 72.261H477.794C477.768 70.4771 477.338 69.1295 476.505 68.218C475.671 67.2935 474.525 66.8313 473.067 66.8313ZM498.477 63.3547C499.402 63.3547 500.163 63.4198 500.762 63.55L500.313 67.8274C499.662 67.6711 498.985 67.593 498.282 67.593C496.446 67.593 494.955 68.192 493.809 69.3899C492.677 70.5878 492.11 72.1438 492.11 74.0579V85.3469H487.52V63.7454H491.114L491.719 67.554H491.954C492.67 66.2649 493.601 65.2428 494.747 64.4875C495.906 63.7323 497.149 63.3547 498.477 63.3547ZM519.298 79.1946C519.298 81.304 518.529 82.925 516.993 84.0579C515.456 85.1777 513.256 85.7375 510.391 85.7375C507.514 85.7375 505.203 85.3014 503.458 84.429V80.4641C505.997 81.636 508.36 82.2219 510.548 82.2219C513.373 82.2219 514.786 81.3691 514.786 79.6633C514.786 79.1165 514.63 78.6607 514.317 78.2961C514.005 77.9316 513.49 77.554 512.774 77.1633C512.058 76.7727 511.062 76.33 509.786 75.8352C507.299 74.8717 505.613 73.9081 504.727 72.9446C503.855 71.981 503.419 70.731 503.419 69.1946C503.419 67.3456 504.161 65.9133 505.645 64.8977C507.143 63.8691 509.174 63.3547 511.739 63.3547C514.278 63.3547 516.68 63.8691 518.946 64.8977L517.462 68.3547C515.131 67.3912 513.171 66.9094 511.583 66.9094C509.161 66.9094 507.95 67.5995 507.95 68.9797C507.95 69.6568 508.262 70.2297 508.887 70.6985C509.525 71.1672 510.906 71.8118 513.028 72.6321C514.812 73.3222 516.108 73.9537 516.915 74.5266C517.722 75.0995 518.321 75.7636 518.712 76.5188C519.102 77.261 519.298 78.1529 519.298 79.1946Z" fill="url(#paint1_linear)"/>
<path d="M22.2468 76.675C22.2468 78.4459 21.7976 80.0214 20.8992 81.4016C20.0007 82.7688 18.7052 83.8365 17.0125 84.6047C15.3197 85.3599 13.3341 85.7375 11.0554 85.7375C9.15438 85.7375 7.55933 85.6073 6.27026 85.3469C4.9812 85.0735 3.64006 84.6047 2.24683 83.9407V77.0657C3.71818 77.8209 5.24813 78.4133 6.83667 78.843C8.42521 79.2597 9.88354 79.468 11.2117 79.468C12.3575 79.468 13.1973 79.2727 13.7312 78.8821C14.2651 78.4784 14.532 77.9641 14.532 77.3391C14.532 76.9485 14.4213 76.6099 14.2 76.3235C13.9916 76.024 13.6466 75.7245 13.1648 75.425C12.696 75.1256 11.433 74.5136 9.37573 73.5891C7.51375 72.7428 6.11401 71.9224 5.17651 71.1282C4.25203 70.3339 3.56193 69.4224 3.1062 68.3938C2.66349 67.3652 2.44214 66.1477 2.44214 64.7415C2.44214 62.1112 3.39917 60.0605 5.31323 58.5891C7.22729 57.1178 9.8575 56.3821 13.2039 56.3821C16.1596 56.3821 19.1739 57.0657 22.2468 58.4329L19.8835 64.3899C17.2143 63.1659 14.9096 62.554 12.9695 62.554C11.9669 62.554 11.2377 62.7297 10.782 63.0813C10.3263 63.4329 10.0984 63.8691 10.0984 64.3899C10.0984 64.9498 10.3848 65.4511 10.9578 65.8938C11.5437 66.3365 13.1192 67.1438 15.6843 68.3157C18.1453 69.4224 19.851 70.6139 20.8015 71.8899C21.7651 73.1529 22.2468 74.748 22.2468 76.675ZM39.4929 85.7375C38.3731 85.7375 37.3705 85.5553 36.4851 85.1907C35.5997 84.8131 34.7208 84.1425 33.8484 83.179H33.4968C33.7312 84.7284 33.8484 85.692 33.8484 86.0696V94.9563H26.2117V63.218H32.4226L33.4968 66.0305H33.8484C35.2677 63.8951 37.2273 62.8274 39.7273 62.8274C42.1752 62.8274 44.0958 63.843 45.489 65.8743C46.8822 67.9055 47.5789 70.692 47.5789 74.2336C47.5789 77.8014 46.8497 80.6139 45.3914 82.6711C43.946 84.7154 41.9799 85.7375 39.4929 85.7375ZM36.9343 68.8235C35.8145 68.8235 35.0268 69.2271 34.571 70.0344C34.1283 70.8287 33.8875 72.0136 33.8484 73.5891V74.1946C33.8484 76.0956 34.1023 77.4693 34.6101 78.3157C35.1179 79.162 35.9187 79.5852 37.0125 79.5852C37.989 79.5852 38.6986 79.1685 39.1414 78.3352C39.5841 77.4889 39.8054 76.0956 39.8054 74.1555C39.8054 72.2545 39.5841 70.8938 39.1414 70.0735C38.6986 69.2402 37.963 68.8235 36.9343 68.8235ZM62.6375 85.7375C58.9526 85.7375 56.088 84.761 54.0437 82.8079C52.0125 80.8417 50.9968 78.0487 50.9968 74.429C50.9968 70.692 51.9408 67.8274 53.8289 65.8352C55.7169 63.83 58.4122 62.8274 61.9148 62.8274C65.2481 62.8274 67.8197 63.6998 69.6296 65.4446C71.4526 67.1764 72.364 69.6764 72.364 72.9446V76.343H58.7117C58.7638 77.58 59.213 78.55 60.0593 79.2532C60.9187 79.9563 62.0841 80.3079 63.5554 80.3079C64.8966 80.3079 66.127 80.1842 67.2468 79.9368C68.3796 79.6764 69.6036 79.2402 70.9187 78.6282V84.1165C69.7208 84.7284 68.4838 85.1516 67.2078 85.386C65.9317 85.6204 64.4083 85.7375 62.6375 85.7375ZM62.1882 68.0227C61.2898 68.0227 60.5346 68.3092 59.9226 68.8821C59.3236 69.442 58.9721 70.3274 58.8679 71.5383H65.4304C65.4044 70.4706 65.0984 69.6178 64.5125 68.9797C63.9395 68.3417 63.1648 68.0227 62.1882 68.0227ZM91.114 85.3469L89.6492 82.4172H89.4929C88.4643 83.6933 87.4161 84.5657 86.3484 85.0344C85.2807 85.5032 83.9005 85.7375 82.2078 85.7375C80.1244 85.7375 78.4838 85.1125 77.2859 83.8625C76.088 82.6125 75.489 80.8547 75.489 78.5891C75.489 76.2323 76.3093 74.481 77.95 73.3352C79.5906 72.1764 81.9669 71.5253 85.0789 71.3821L88.7703 71.2649V70.9524C88.7703 69.1295 87.8718 68.218 86.075 68.218C84.4604 68.218 82.4096 68.7649 79.9226 69.8586L77.7156 64.8196C80.2937 63.4915 83.5489 62.8274 87.4812 62.8274C90.3197 62.8274 92.5138 63.5305 94.0632 64.9368C95.6257 66.343 96.407 68.3092 96.407 70.8352V85.3469H91.114ZM85.45 80.3469C86.3744 80.3469 87.1622 80.054 87.8132 79.468C88.4773 78.8821 88.8093 78.1204 88.8093 77.1829V75.4641L87.0515 75.5422C84.5385 75.6334 83.282 76.5579 83.282 78.3157C83.282 79.6698 84.0046 80.3469 85.45 80.3469ZM109.005 72.9055C109.929 71.4342 110.717 70.2883 111.368 69.468L116.329 63.218H124.844L117.169 72.6321L125.333 85.3469H116.602L111.759 77.4172L109.278 79.3118V85.3469H101.602V54.9563H109.278V66.9094C109.278 68.9537 109.135 70.9524 108.848 72.9055H109.005ZM145.372 85.3469H128.419V56.7922H145.372V62.9836H136.134V67.4758H144.688V73.6672H136.134V79.0579H145.372V85.3469ZM156.798 85.7375C155.222 85.7375 153.842 85.2883 152.657 84.3899C151.485 83.4915 150.574 82.1698 149.923 80.425C149.285 78.6803 148.966 76.6425 148.966 74.3118C148.966 70.718 149.688 67.9055 151.134 65.8743C152.579 63.843 154.565 62.8274 157.091 62.8274C158.328 62.8274 159.408 63.0748 160.333 63.5696C161.27 64.0644 162.123 64.8977 162.891 66.0696H163.048C162.8 64.3378 162.677 62.606 162.677 60.8743V54.9563H170.372V85.3469H164.61L162.969 82.554H162.677C161.361 84.6764 159.402 85.7375 156.798 85.7375ZM159.923 79.7024C161.147 79.7024 162.006 79.3183 162.501 78.55C163.009 77.7818 163.282 76.5969 163.321 74.9954V74.3899C163.321 72.4368 163.041 71.05 162.481 70.2297C161.921 69.3964 161.042 68.9797 159.844 68.9797C158.842 68.9797 158.061 69.455 157.501 70.4055C156.954 71.343 156.68 72.6842 156.68 74.429C156.68 76.1477 156.96 77.4563 157.52 78.3547C158.08 79.2532 158.881 79.7024 159.923 79.7024Z" fill="#D0873C"/>
<path d="M22.2468 76.675C22.2468 78.4459 21.7976 80.0214 20.8992 81.4016C20.0007 82.7688 18.7052 83.8365 17.0125 84.6047C15.3197 85.3599 13.3341 85.7375 11.0554 85.7375C9.15438 85.7375 7.55933 85.6073 6.27026 85.3469C4.9812 85.0735 3.64006 84.6047 2.24683 83.9407V77.0657C3.71818 77.8209 5.24813 78.4133 6.83667 78.843C8.42521 79.2597 9.88354 79.468 11.2117 79.468C12.3575 79.468 13.1973 79.2727 13.7312 78.8821C14.2651 78.4784 14.532 77.9641 14.532 77.3391C14.532 76.9485 14.4213 76.6099 14.2 76.3235C13.9916 76.024 13.6466 75.7245 13.1648 75.425C12.696 75.1256 11.433 74.5136 9.37573 73.5891C7.51375 72.7428 6.11401 71.9224 5.17651 71.1282C4.25203 70.3339 3.56193 69.4224 3.1062 68.3938C2.66349 67.3652 2.44214 66.1477 2.44214 64.7415C2.44214 62.1112 3.39917 60.0605 5.31323 58.5891C7.22729 57.1178 9.8575 56.3821 13.2039 56.3821C16.1596 56.3821 19.1739 57.0657 22.2468 58.4329L19.8835 64.3899C17.2143 63.1659 14.9096 62.554 12.9695 62.554C11.9669 62.554 11.2377 62.7297 10.782 63.0813C10.3263 63.4329 10.0984 63.8691 10.0984 64.3899C10.0984 64.9498 10.3848 65.4511 10.9578 65.8938C11.5437 66.3365 13.1192 67.1438 15.6843 68.3157C18.1453 69.4224 19.851 70.6139 20.8015 71.8899C21.7651 73.1529 22.2468 74.748 22.2468 76.675ZM39.4929 85.7375C38.3731 85.7375 37.3705 85.5553 36.4851 85.1907C35.5997 84.8131 34.7208 84.1425 33.8484 83.179H33.4968C33.7312 84.7284 33.8484 85.692 33.8484 86.0696V94.9563H26.2117V63.218H32.4226L33.4968 66.0305H33.8484C35.2677 63.8951 37.2273 62.8274 39.7273 62.8274C42.1752 62.8274 44.0958 63.843 45.489 65.8743C46.8822 67.9055 47.5789 70.692 47.5789 74.2336C47.5789 77.8014 46.8497 80.6139 45.3914 82.6711C43.946 84.7154 41.9799 85.7375 39.4929 85.7375ZM36.9343 68.8235C35.8145 68.8235 35.0268 69.2271 34.571 70.0344C34.1283 70.8287 33.8875 72.0136 33.8484 73.5891V74.1946C33.8484 76.0956 34.1023 77.4693 34.6101 78.3157C35.1179 79.162 35.9187 79.5852 37.0125 79.5852C37.989 79.5852 38.6986 79.1685 39.1414 78.3352C39.5841 77.4889 39.8054 76.0956 39.8054 74.1555C39.8054 72.2545 39.5841 70.8938 39.1414 70.0735C38.6986 69.2402 37.963 68.8235 36.9343 68.8235ZM62.6375 85.7375C58.9526 85.7375 56.088 84.761 54.0437 82.8079C52.0125 80.8417 50.9968 78.0487 50.9968 74.429C50.9968 70.692 51.9408 67.8274 53.8289 65.8352C55.7169 63.83 58.4122 62.8274 61.9148 62.8274C65.2481 62.8274 67.8197 63.6998 69.6296 65.4446C71.4526 67.1764 72.364 69.6764 72.364 72.9446V76.343H58.7117C58.7638 77.58 59.213 78.55 60.0593 79.2532C60.9187 79.9563 62.0841 80.3079 63.5554 80.3079C64.8966 80.3079 66.127 80.1842 67.2468 79.9368C68.3796 79.6764 69.6036 79.2402 70.9187 78.6282V84.1165C69.7208 84.7284 68.4838 85.1516 67.2078 85.386C65.9317 85.6204 64.4083 85.7375 62.6375 85.7375ZM62.1882 68.0227C61.2898 68.0227 60.5346 68.3092 59.9226 68.8821C59.3236 69.442 58.9721 70.3274 58.8679 71.5383H65.4304C65.4044 70.4706 65.0984 69.6178 64.5125 68.9797C63.9395 68.3417 63.1648 68.0227 62.1882 68.0227ZM91.114 85.3469L89.6492 82.4172H89.4929C88.4643 83.6933 87.4161 84.5657 86.3484 85.0344C85.2807 85.5032 83.9005 85.7375 82.2078 85.7375C80.1244 85.7375 78.4838 85.1125 77.2859 83.8625C76.088 82.6125 75.489 80.8547 75.489 78.5891C75.489 76.2323 76.3093 74.481 77.95 73.3352C79.5906 72.1764 81.9669 71.5253 85.0789 71.3821L88.7703 71.2649V70.9524C88.7703 69.1295 87.8718 68.218 86.075 68.218C84.4604 68.218 82.4096 68.7649 79.9226 69.8586L77.7156 64.8196C80.2937 63.4915 83.5489 62.8274 87.4812 62.8274C90.3197 62.8274 92.5138 63.5305 94.0632 64.9368C95.6257 66.343 96.407 68.3092 96.407 70.8352V85.3469H91.114ZM85.45 80.3469C86.3744 80.3469 87.1622 80.054 87.8132 79.468C88.4773 78.8821 88.8093 78.1204 88.8093 77.1829V75.4641L87.0515 75.5422C84.5385 75.6334 83.282 76.5579 83.282 78.3157C83.282 79.6698 84.0046 80.3469 85.45 80.3469ZM109.005 72.9055C109.929 71.4342 110.717 70.2883 111.368 69.468L116.329 63.218H124.844L117.169 72.6321L125.333 85.3469H116.602L111.759 77.4172L109.278 79.3118V85.3469H101.602V54.9563H109.278V66.9094C109.278 68.9537 109.135 70.9524 108.848 72.9055H109.005ZM145.372 85.3469H128.419V56.7922H145.372V62.9836H136.134V67.4758H144.688V73.6672H136.134V79.0579H145.372V85.3469ZM156.798 85.7375C155.222 85.7375 153.842 85.2883 152.657 84.3899C151.485 83.4915 150.574 82.1698 149.923 80.425C149.285 78.6803 148.966 76.6425 148.966 74.3118C148.966 70.718 149.688 67.9055 151.134 65.8743C152.579 63.843 154.565 62.8274 157.091 62.8274C158.328 62.8274 159.408 63.0748 160.333 63.5696C161.27 64.0644 162.123 64.8977 162.891 66.0696H163.048C162.8 64.3378 162.677 62.606 162.677 60.8743V54.9563H170.372V85.3469H164.61L162.969 82.554H162.677C161.361 84.6764 159.402 85.7375 156.798 85.7375ZM159.923 79.7024C161.147 79.7024 162.006 79.3183 162.501 78.55C163.009 77.7818 163.282 76.5969 163.321 74.9954V74.3899C163.321 72.4368 163.041 71.05 162.481 70.2297C161.921 69.3964 161.042 68.9797 159.844 68.9797C158.842 68.9797 158.061 69.455 157.501 70.4055C156.954 71.343 156.68 72.6842 156.68 74.429C156.68 76.1477 156.96 77.4563 157.52 78.3547C158.08 79.2532 158.881 79.7024 159.923 79.7024Z" fill="url(#paint2_linear)"/>
<path d="M22.2468 76.675C22.2468 78.4459 21.7976 80.0214 20.8992 81.4016C20.0007 82.7688 18.7052 83.8365 17.0125 84.6047C15.3197 85.3599 13.3341 85.7375 11.0554 85.7375C9.15438 85.7375 7.55933 85.6073 6.27026 85.3469C4.9812 85.0735 3.64006 84.6047 2.24683 83.9407V77.0657C3.71818 77.8209 5.24813 78.4133 6.83667 78.843C8.42521 79.2597 9.88354 79.468 11.2117 79.468C12.3575 79.468 13.1973 79.2727 13.7312 78.8821C14.2651 78.4784 14.532 77.9641 14.532 77.3391C14.532 76.9485 14.4213 76.6099 14.2 76.3235C13.9916 76.024 13.6466 75.7245 13.1648 75.425C12.696 75.1256 11.433 74.5136 9.37573 73.5891C7.51375 72.7428 6.11401 71.9224 5.17651 71.1282C4.25203 70.3339 3.56193 69.4224 3.1062 68.3938C2.66349 67.3652 2.44214 66.1477 2.44214 64.7415C2.44214 62.1112 3.39917 60.0605 5.31323 58.5891C7.22729 57.1178 9.8575 56.3821 13.2039 56.3821C16.1596 56.3821 19.1739 57.0657 22.2468 58.4329L19.8835 64.3899C17.2143 63.1659 14.9096 62.554 12.9695 62.554C11.9669 62.554 11.2377 62.7297 10.782 63.0813C10.3263 63.4329 10.0984 63.8691 10.0984 64.3899C10.0984 64.9498 10.3848 65.4511 10.9578 65.8938C11.5437 66.3365 13.1192 67.1438 15.6843 68.3157C18.1453 69.4224 19.851 70.6139 20.8015 71.8899C21.7651 73.1529 22.2468 74.748 22.2468 76.675ZM39.4929 85.7375C38.3731 85.7375 37.3705 85.5553 36.4851 85.1907C35.5997 84.8131 34.7208 84.1425 33.8484 83.179H33.4968C33.7312 84.7284 33.8484 85.692 33.8484 86.0696V94.9563H26.2117V63.218H32.4226L33.4968 66.0305H33.8484C35.2677 63.8951 37.2273 62.8274 39.7273 62.8274C42.1752 62.8274 44.0958 63.843 45.489 65.8743C46.8822 67.9055 47.5789 70.692 47.5789 74.2336C47.5789 77.8014 46.8497 80.6139 45.3914 82.6711C43.946 84.7154 41.9799 85.7375 39.4929 85.7375ZM36.9343 68.8235C35.8145 68.8235 35.0268 69.2271 34.571 70.0344C34.1283 70.8287 33.8875 72.0136 33.8484 73.5891V74.1946C33.8484 76.0956 34.1023 77.4693 34.6101 78.3157C35.1179 79.162 35.9187 79.5852 37.0125 79.5852C37.989 79.5852 38.6986 79.1685 39.1414 78.3352C39.5841 77.4889 39.8054 76.0956 39.8054 74.1555C39.8054 72.2545 39.5841 70.8938 39.1414 70.0735C38.6986 69.2402 37.963 68.8235 36.9343 68.8235ZM62.6375 85.7375C58.9526 85.7375 56.088 84.761 54.0437 82.8079C52.0125 80.8417 50.9968 78.0487 50.9968 74.429C50.9968 70.692 51.9408 67.8274 53.8289 65.8352C55.7169 63.83 58.4122 62.8274 61.9148 62.8274C65.2481 62.8274 67.8197 63.6998 69.6296 65.4446C71.4526 67.1764 72.364 69.6764 72.364 72.9446V76.343H58.7117C58.7638 77.58 59.213 78.55 60.0593 79.2532C60.9187 79.9563 62.0841 80.3079 63.5554 80.3079C64.8966 80.3079 66.127 80.1842 67.2468 79.9368C68.3796 79.6764 69.6036 79.2402 70.9187 78.6282V84.1165C69.7208 84.7284 68.4838 85.1516 67.2078 85.386C65.9317 85.6204 64.4083 85.7375 62.6375 85.7375ZM62.1882 68.0227C61.2898 68.0227 60.5346 68.3092 59.9226 68.8821C59.3236 69.442 58.9721 70.3274 58.8679 71.5383H65.4304C65.4044 70.4706 65.0984 69.6178 64.5125 68.9797C63.9395 68.3417 63.1648 68.0227 62.1882 68.0227ZM91.114 85.3469L89.6492 82.4172H89.4929C88.4643 83.6933 87.4161 84.5657 86.3484 85.0344C85.2807 85.5032 83.9005 85.7375 82.2078 85.7375C80.1244 85.7375 78.4838 85.1125 77.2859 83.8625C76.088 82.6125 75.489 80.8547 75.489 78.5891C75.489 76.2323 76.3093 74.481 77.95 73.3352C79.5906 72.1764 81.9669 71.5253 85.0789 71.3821L88.7703 71.2649V70.9524C88.7703 69.1295 87.8718 68.218 86.075 68.218C84.4604 68.218 82.4096 68.7649 79.9226 69.8586L77.7156 64.8196C80.2937 63.4915 83.5489 62.8274 87.4812 62.8274C90.3197 62.8274 92.5138 63.5305 94.0632 64.9368C95.6257 66.343 96.407 68.3092 96.407 70.8352V85.3469H91.114ZM85.45 80.3469C86.3744 80.3469 87.1622 80.054 87.8132 79.468C88.4773 78.8821 88.8093 78.1204 88.8093 77.1829V75.4641L87.0515 75.5422C84.5385 75.6334 83.282 76.5579 83.282 78.3157C83.282 79.6698 84.0046 80.3469 85.45 80.3469ZM109.005 72.9055C109.929 71.4342 110.717 70.2883 111.368 69.468L116.329 63.218H124.844L117.169 72.6321L125.333 85.3469H116.602L111.759 77.4172L109.278 79.3118V85.3469H101.602V54.9563H109.278V66.9094C109.278 68.9537 109.135 70.9524 108.848 72.9055H109.005ZM145.372 85.3469H128.419V56.7922H145.372V62.9836H136.134V67.4758H144.688V73.6672H136.134V79.0579H145.372V85.3469ZM156.798 85.7375C155.222 85.7375 153.842 85.2883 152.657 84.3899C151.485 83.4915 150.574 82.1698 149.923 80.425C149.285 78.6803 148.966 76.6425 148.966 74.3118C148.966 70.718 149.688 67.9055 151.134 65.8743C152.579 63.843 154.565 62.8274 157.091 62.8274C158.328 62.8274 159.408 63.0748 160.333 63.5696C161.27 64.0644 162.123 64.8977 162.891 66.0696H163.048C162.8 64.3378 162.677 62.606 162.677 60.8743V54.9563H170.372V85.3469H164.61L162.969 82.554H162.677C161.361 84.6764 159.402 85.7375 156.798 85.7375ZM159.923 79.7024C161.147 79.7024 162.006 79.3183 162.501 78.55C163.009 77.7818 163.282 76.5969 163.321 74.9954V74.3899C163.321 72.4368 163.041 71.05 162.481 70.2297C161.921 69.3964 161.042 68.9797 159.844 68.9797C158.842 68.9797 158.061 69.455 157.501 70.4055C156.954 71.343 156.68 72.6842 156.68 74.429C156.68 76.1477 156.96 77.4563 157.52 78.3547C158.08 79.2532 158.881 79.7024 159.923 79.7024Z" fill="url(#paint3_linear)"/>
<path d="M22.2468 76.675C22.2468 78.4459 21.7976 80.0214 20.8992 81.4016C20.0007 82.7688 18.7052 83.8365 17.0125 84.6047C15.3197 85.3599 13.3341 85.7375 11.0554 85.7375C9.15438 85.7375 7.55933 85.6073 6.27026 85.3469C4.9812 85.0735 3.64006 84.6047 2.24683 83.9407V77.0657C3.71818 77.8209 5.24813 78.4133 6.83667 78.843C8.42521 79.2597 9.88354 79.468 11.2117 79.468C12.3575 79.468 13.1973 79.2727 13.7312 78.8821C14.2651 78.4784 14.532 77.9641 14.532 77.3391C14.532 76.9485 14.4213 76.6099 14.2 76.3235C13.9916 76.024 13.6466 75.7245 13.1648 75.425C12.696 75.1256 11.433 74.5136 9.37573 73.5891C7.51375 72.7428 6.11401 71.9224 5.17651 71.1282C4.25203 70.3339 3.56193 69.4224 3.1062 68.3938C2.66349 67.3652 2.44214 66.1477 2.44214 64.7415C2.44214 62.1112 3.39917 60.0605 5.31323 58.5891C7.22729 57.1178 9.8575 56.3821 13.2039 56.3821C16.1596 56.3821 19.1739 57.0657 22.2468 58.4329L19.8835 64.3899C17.2143 63.1659 14.9096 62.554 12.9695 62.554C11.9669 62.554 11.2377 62.7297 10.782 63.0813C10.3263 63.4329 10.0984 63.8691 10.0984 64.3899C10.0984 64.9498 10.3848 65.4511 10.9578 65.8938C11.5437 66.3365 13.1192 67.1438 15.6843 68.3157C18.1453 69.4224 19.851 70.6139 20.8015 71.8899C21.7651 73.1529 22.2468 74.748 22.2468 76.675ZM39.4929 85.7375C38.3731 85.7375 37.3705 85.5553 36.4851 85.1907C35.5997 84.8131 34.7208 84.1425 33.8484 83.179H33.4968C33.7312 84.7284 33.8484 85.692 33.8484 86.0696V94.9563H26.2117V63.218H32.4226L33.4968 66.0305H33.8484C35.2677 63.8951 37.2273 62.8274 39.7273 62.8274C42.1752 62.8274 44.0958 63.843 45.489 65.8743C46.8822 67.9055 47.5789 70.692 47.5789 74.2336C47.5789 77.8014 46.8497 80.6139 45.3914 82.6711C43.946 84.7154 41.9799 85.7375 39.4929 85.7375ZM36.9343 68.8235C35.8145 68.8235 35.0268 69.2271 34.571 70.0344C34.1283 70.8287 33.8875 72.0136 33.8484 73.5891V74.1946C33.8484 76.0956 34.1023 77.4693 34.6101 78.3157C35.1179 79.162 35.9187 79.5852 37.0125 79.5852C37.989 79.5852 38.6986 79.1685 39.1414 78.3352C39.5841 77.4889 39.8054 76.0956 39.8054 74.1555C39.8054 72.2545 39.5841 70.8938 39.1414 70.0735C38.6986 69.2402 37.963 68.8235 36.9343 68.8235ZM62.6375 85.7375C58.9526 85.7375 56.088 84.761 54.0437 82.8079C52.0125 80.8417 50.9968 78.0487 50.9968 74.429C50.9968 70.692 51.9408 67.8274 53.8289 65.8352C55.7169 63.83 58.4122 62.8274 61.9148 62.8274C65.2481 62.8274 67.8197 63.6998 69.6296 65.4446C71.4526 67.1764 72.364 69.6764 72.364 72.9446V76.343H58.7117C58.7638 77.58 59.213 78.55 60.0593 79.2532C60.9187 79.9563 62.0841 80.3079 63.5554 80.3079C64.8966 80.3079 66.127 80.1842 67.2468 79.9368C68.3796 79.6764 69.6036 79.2402 70.9187 78.6282V84.1165C69.7208 84.7284 68.4838 85.1516 67.2078 85.386C65.9317 85.6204 64.4083 85.7375 62.6375 85.7375ZM62.1882 68.0227C61.2898 68.0227 60.5346 68.3092 59.9226 68.8821C59.3236 69.442 58.9721 70.3274 58.8679 71.5383H65.4304C65.4044 70.4706 65.0984 69.6178 64.5125 68.9797C63.9395 68.3417 63.1648 68.0227 62.1882 68.0227ZM91.114 85.3469L89.6492 82.4172H89.4929C88.4643 83.6933 87.4161 84.5657 86.3484 85.0344C85.2807 85.5032 83.9005 85.7375 82.2078 85.7375C80.1244 85.7375 78.4838 85.1125 77.2859 83.8625C76.088 82.6125 75.489 80.8547 75.489 78.5891C75.489 76.2323 76.3093 74.481 77.95 73.3352C79.5906 72.1764 81.9669 71.5253 85.0789 71.3821L88.7703 71.2649V70.9524C88.7703 69.1295 87.8718 68.218 86.075 68.218C84.4604 68.218 82.4096 68.7649 79.9226 69.8586L77.7156 64.8196C80.2937 63.4915 83.5489 62.8274 87.4812 62.8274C90.3197 62.8274 92.5138 63.5305 94.0632 64.9368C95.6257 66.343 96.407 68.3092 96.407 70.8352V85.3469H91.114ZM85.45 80.3469C86.3744 80.3469 87.1622 80.054 87.8132 79.468C88.4773 78.8821 88.8093 78.1204 88.8093 77.1829V75.4641L87.0515 75.5422C84.5385 75.6334 83.282 76.5579 83.282 78.3157C83.282 79.6698 84.0046 80.3469 85.45 80.3469ZM109.005 72.9055C109.929 71.4342 110.717 70.2883 111.368 69.468L116.329 63.218H124.844L117.169 72.6321L125.333 85.3469H116.602L111.759 77.4172L109.278 79.3118V85.3469H101.602V54.9563H109.278V66.9094C109.278 68.9537 109.135 70.9524 108.848 72.9055H109.005ZM145.372 85.3469H128.419V56.7922H145.372V62.9836H136.134V67.4758H144.688V73.6672H136.134V79.0579H145.372V85.3469ZM156.798 85.7375C155.222 85.7375 153.842 85.2883 152.657 84.3899C151.485 83.4915 150.574 82.1698 149.923 80.425C149.285 78.6803 148.966 76.6425 148.966 74.3118C148.966 70.718 149.688 67.9055 151.134 65.8743C152.579 63.843 154.565 62.8274 157.091 62.8274C158.328 62.8274 159.408 63.0748 160.333 63.5696C161.27 64.0644 162.123 64.8977 162.891 66.0696H163.048C162.8 64.3378 162.677 62.606 162.677 60.8743V54.9563H170.372V85.3469H164.61L162.969 82.554H162.677C161.361 84.6764 159.402 85.7375 156.798 85.7375ZM159.923 79.7024C161.147 79.7024 162.006 79.3183 162.501 78.55C163.009 77.7818 163.282 76.5969 163.321 74.9954V74.3899C163.321 72.4368 163.041 71.05 162.481 70.2297C161.921 69.3964 161.042 68.9797 159.844 68.9797C158.842 68.9797 158.061 69.455 157.501 70.4055C156.954 71.343 156.68 72.6842 156.68 74.429C156.68 76.1477 156.96 77.4563 157.52 78.3547C158.08 79.2532 158.881 79.7024 159.923 79.7024Z" fill="url(#paint4_linear)"/>
<defs>
<linearGradient id="paint0_linear" x1="274.442" y1="-11.6531" x2="274.442" y2="133.582" gradientUnits="userSpaceOnUse">
<stop stop-color="white"/>
<stop offset="1" stop-color="white" stop-opacity="0"/>
</linearGradient>
<linearGradient id="paint1_linear" x1="274.442" y1="-11.6531" x2="274.442" y2="133.582" gradientUnits="userSpaceOnUse">
<stop stop-color="white"/>
<stop offset="1" stop-color="white" stop-opacity="0"/>
</linearGradient>
<linearGradient id="paint2_linear" x1="274.442" y1="-11.6531" x2="274.442" y2="133.582" gradientUnits="userSpaceOnUse">
<stop stop-color="white"/>
<stop offset="1" stop-color="white" stop-opacity="0"/>
</linearGradient>
<linearGradient id="paint3_linear" x1="274.442" y1="-11.6531" x2="274.442" y2="133.582" gradientUnits="userSpaceOnUse">
<stop stop-color="white"/>
<stop offset="1" stop-color="white" stop-opacity="0"/>
</linearGradient>
<linearGradient id="paint4_linear" x1="274.442" y1="-11.6531" x2="274.442" y2="133.582" gradientUnits="userSpaceOnUse">
<stop stop-color="white"/>
<stop offset="1" stop-color="white" stop-opacity="0"/>
</linearGradient>
</defs>
</svg>
